Amatic-Regular.ufo
<glyph name="exclam" format="1">
  <advance width="520"/>
  <unicode hex="0021"/>
  <outline>
    <contour>
      <point x="252" y="330" type="curve" smooth="yes"/>
      <point x="252" y="821" type="line" smooth="yes"/>
      <point x="252" y="938"/>
      <point x="257" y="1054"/>
      <point x="257" y="1171" type="curve" smooth="yes"/>
      <point x="257" y="1282"/>
      <point x="242" y="1387"/>
      <point x="242" y="1493" type="curve" smooth="yes"/>
      <point x="242" y="1522"/>
      <point x="279" y="1548"/>
      <point x="306" y="1548" type="curve" smooth="yes"/>
      <point x="322" y="1548"/>
      <point x="332" y="1538"/>
      <point x="332" y="1522" type="curve" smooth="yes"/>
      <point x="332" y="1194"/>
      <point x="289" y="871"/>
      <point x="289" y="543" type="curve" smooth="yes"/>
      <point x="289" y="518"/>
      <point x="291" y="486"/>
      <point x="291" y="453" type="curve" smooth="yes"/>
      <point x="291" y="408"/>
      <point x="287" y="361"/>
      <point x="275" y="332" type="curve"/>
      <point x="281" y="322" type="line"/>
      <point x="254" y="322" type="line"/>
      <point x="254" y="324"/>
      <point x="252" y="328"/>
    </contour>
    <contour>
      <point x="195" y="39" type="curve"/>
      <point x="195" y="66"/>
      <point x="230" y="102"/>
      <point x="257" y="102" type="curve" smooth="yes"/>
      <point x="300" y="102"/>
      <point x="318" y="66"/>
      <point x="318" y="27" type="curve" smooth="yes"/>
      <point x="318" y="-6"/>
      <point x="300" y="-25"/>
      <point x="267" y="-27" type="curve"/>
      <point x="259" y="-2"/>
      <point x="232" y="-35"/>
    </contour>
  </outline>
</glyph>
<glyph name="quotedbl" format="1">
  <advance width="680"/>
  <unicode hex="0022"/>
  <outline>
    <contour>
      <point x="440" y="1257" type="curve" smooth="yes"/>
      <point x="417" y="1292"/>
      <point x="414" y="1352"/>
      <point x="414" y="1409" type="curve" smooth="yes"/>
      <point x="414" y="1505"/>
      <point x="414" y="1575"/>
      <point x="455" y="1575" type="curve" smooth="yes"/>
      <point x="471" y="1575"/>
      <point x="481" y="1536"/>
      <point x="481" y="1497" type="curve" smooth="yes"/>
      <point x="481" y="1436"/>
      <point x="461" y="1255"/>
      <point x="447" y="1255" type="curve" smooth="yes"/>
      <point x="445" y="1255"/>
      <point x="442" y="1255"/>
    </contour>
    <contour>
      <point x="203" y="1262" type="curve" smooth="yes"/>
      <point x="207" y="1291"/>
      <point x="207" y="1335"/>
      <point x="207" y="1384" type="curve" smooth="yes"/>
      <point x="207" y="1401" type="line" smooth="yes"/>
      <point x="207" y="1489"/>
      <point x="209" y="1575"/>
      <point x="229" y="1575" type="curve" smooth="yes"/>
      <point x="258" y="1575"/>
      <point x="277" y="1536"/>
      <point x="277" y="1497" type="curve" smooth="yes"/>
      <point x="277" y="1431"/>
      <point x="238" y="1257"/>
      <point x="211" y="1257" type="curve" smooth="yes"/>
      <point x="209" y="1257"/>
      <point x="205" y="1260"/>
    </contour>
  </outline>
</glyph>
<glyph name="numbersign" format="1">
  <advance width="820"/>
  <unicode hex="0023"/>
  <outline>
    <contour>
      <point x="298" y="666" type="curve" smooth="yes"/>
      <point x="310" y="664"/>
      <point x="320" y="662"/>
      <point x="332" y="662" type="curve" smooth="yes"/>
      <point x="395" y="662"/>
      <point x="460" y="662"/>
      <point x="521" y="670" type="curve"/>
      <point x="537" y="766"/>
      <point x="558" y="865"/>
      <point x="558" y="963" type="curve" smooth="yes"/>
      <point x="558" y="983"/>
      <point x="449" y="983"/>
      <point x="400" y="983" type="curve" smooth="yes"/>
      <point x="375" y="983"/>
      <point x="350" y="981"/>
      <point x="332" y="971" type="curve"/>
      <point x="316" y="934"/>
      <point x="296" y="723"/>
      <point x="296" y="674" type="curve" smooth="yes"/>
      <point x="296" y="672"/>
      <point x="298" y="668"/>
    </contour>
    <contour>
      <point x="459" y="-37" type="curve" smooth="yes"/>
      <point x="459" y="49"/>
      <point x="486" y="133"/>
      <point x="486" y="219" type="curve" smooth="yes"/>
      <point x="486" y="348"/>
      <point x="525" y="473"/>
      <point x="525" y="602" type="curve"/>
      <point x="470" y="608"/>
      <point x="414" y="608"/>
      <point x="359" y="608" type="curve" smooth="yes"/>
      <point x="334" y="608"/>
      <point x="310" y="608"/>
      <point x="287" y="600" type="curve"/>
      <point x="258" y="391"/>
      <point x="236" y="-57"/>
      <point x="199" y="-57" type="curve" smooth="yes"/>
      <point x="189" y="-57"/>
      <point x="165" y="-51"/>
      <point x="165" y="-37" type="curve" smooth="yes"/>
      <point x="165" y="57"/>
      <point x="177" y="152"/>
      <point x="187" y="244" type="curve" smooth="yes"/>
      <point x="201" y="363"/>
      <point x="215" y="483"/>
      <point x="240" y="600" type="curve"/>
      <point x="211" y="600"/>
      <point x="183" y="592"/>
      <point x="152" y="592" type="curve" smooth="yes"/>
      <point x="123" y="592"/>
      <point x="91" y="598"/>
      <point x="91" y="635" type="curve" smooth="yes"/>
      <point x="91" y="653"/>
      <point x="123" y="655"/>
      <point x="160" y="655" type="curve" smooth="yes"/>
      <point x="203" y="655" type="line" smooth="yes"/>
      <point x="219" y="655"/>
      <point x="234" y="655"/>
      <point x="244" y="657" type="curve"/>
      <point x="252" y="675"/>
      <point x="281" y="936"/>
      <point x="281" y="971" type="curve"/>
      <point x="258" y="971"/>
      <point x="237" y="967"/>
      <point x="212" y="967" type="curve" smooth="yes"/>
      <point x="187" y="967"/>
      <point x="134" y="969"/>
      <point x="132" y="1004" type="curve"/>
      <point x="148" y="1022" type="line"/>
      <point x="191" y="1022" type="line" smooth="yes"/>
      <point x="226" y="1022"/>
      <point x="268" y="1023"/>
      <point x="285" y="1028" type="curve"/>
      <point x="301" y="1169"/>
      <point x="332" y="1313"/>
      <point x="332" y="1456" type="curve" smooth="yes"/>
      <point x="332" y="1470"/>
      <point x="330" y="1483"/>
      <point x="330" y="1497" type="curve" smooth="yes"/>
      <point x="330" y="1517"/>
      <point x="334" y="1542"/>
      <point x="361" y="1542" type="curve"/>
      <point x="375" y="1513" type="line"/>
      <point x="375" y="1353"/>
      <point x="339" y="1198"/>
      <point x="339" y="1038" type="curve"/>
      <point x="368" y="1030"/>
      <point x="396" y="1030"/>
      <point x="427" y="1030" type="curve" smooth="yes"/>
      <point x="453" y="1030" type="line" smooth="yes"/>
      <point x="489" y="1030"/>
      <point x="528" y="1031"/>
      <point x="562" y="1044" type="curve"/>
      <point x="595" y="1204"/>
      <point x="626" y="1364"/>
      <point x="638" y="1526" type="curve"/>
      <point x="646" y="1536"/>
      <point x="656" y="1542"/>
      <point x="668" y="1542" type="curve" smooth="yes"/>
      <point x="678" y="1542"/>
      <point x="689" y="1532"/>
      <point x="693" y="1522" type="curve"/>
      <point x="691" y="1362"/>
      <point x="619" y="1215"/>
      <point x="619" y="1055" type="curve"/>
      <point x="623" y="1044" type="line"/>
      <point x="699" y="1044" type="line"/>
      <point x="726" y="1016" type="line"/>
      <point x="722" y="1006"/>
      <point x="713" y="983"/>
      <point x="699" y="983" type="curve" smooth="yes"/>
      <point x="670" y="983"/>
      <point x="642" y="987"/>
      <point x="613" y="987" type="curve"/>
      <point x="588" y="889"/>
      <point x="582" y="778"/>
      <point x="582" y="678" type="curve"/>
      <point x="593" y="674" type="line"/>
      <point x="603" y="674"/>
      <point x="617" y="676"/>
      <point x="631" y="676" type="curve" smooth="yes"/>
      <point x="660" y="676"/>
      <point x="689" y="670"/>
      <point x="689" y="637" type="curve" smooth="yes"/>
      <point x="689" y="623"/>
      <point x="666" y="614"/>
      <point x="656" y="610" type="curve"/>
      <point x="576" y="610" type="line"/>
      <point x="560" y="397"/>
      <point x="519" y="184"/>
      <point x="519" y="-31" type="curve"/>
      <point x="496" y="-57" type="line"/>
      <point x="484" y="-57"/>
      <point x="459" y="-53"/>
    </contour>
  </outline>
</glyph>
<glyph name="quotesingle" format="1">
  <advance width="480"/>
  <unicode hex="0027"/>
  <outline>
    <contour>
      <point x="211" y="1262" type="curve" smooth="yes"/>
      <point x="215" y="1291"/>
      <point x="215" y="1335"/>
      <point x="215" y="1384" type="curve" smooth="yes"/>
      <point x="215" y="1401" type="line" smooth="yes"/>
      <point x="215" y="1489"/>
      <point x="217" y="1575"/>
      <point x="237" y="1575" type="curve" smooth="yes"/>
      <point x="266" y="1575"/>
      <point x="285" y="1536"/>
      <point x="285" y="1497" type="curve" smooth="yes"/>
      <point x="285" y="1431"/>
      <point x="246" y="1257"/>
      <point x="219" y="1257" type="curve" smooth="yes"/>
      <point x="217" y="1257"/>
      <point x="213" y="1260"/>
    </contour>
  </outline>
</glyph>
<glyph name="parenleft" format="1">
  <advance width="600"/>
  <unicode hex="0028"/>
  <outline>
    <contour>
      <point x="171" y="879" type="curve" smooth="yes"/>
      <point x="171" y="988"/>
      <point x="259" y="1622"/>
      <point x="370" y="1626" type="curve"/>
      <point x="390" y="1610" type="line"/>
      <point x="388" y="1540"/>
      <point x="342" y="1484"/>
      <point x="319" y="1423" type="curve" smooth="yes"/>
      <point x="258" y="1253"/>
      <point x="227" y="1059"/>
      <point x="227" y="879" type="curve" smooth="yes"/>
      <point x="227" y="564"/>
      <point x="259" y="154"/>
      <point x="382" y="-139" type="curve" smooth="yes"/>
      <point x="407" y="-198"/>
      <point x="450" y="-252"/>
      <point x="466" y="-315" type="curve"/>
      <point x="460" y="-325"/>
      <point x="447" y="-340"/>
      <point x="435" y="-340" type="curve" smooth="yes"/>
      <point x="396" y="-340"/>
      <point x="382" y="-287"/>
      <point x="370" y="-258" type="curve" smooth="yes"/>
      <point x="239" y="35"/>
      <point x="171" y="517"/>
    </contour>
  </outline>
</glyph>
<glyph name="parenright" format="1">
  <advance width="720"/>
  <unicode hex="0029"/>
  <outline>
    <contour>
      <point x="542" y="817" type="curve" smooth="yes"/>
      <point x="542" y="649"/>
      <point x="518" y="483"/>
      <point x="479" y="319" type="curve" smooth="yes"/>
      <point x="459" y="231"/>
      <point x="341" y="-279"/>
      <point x="257" y="-279" type="curve" smooth="yes"/>
      <point x="243" y="-279"/>
      <point x="227" y="-270"/>
      <point x="227" y="-254" type="curve" smooth="yes"/>
      <point x="227" y="-236"/>
      <point x="286" y="-141"/>
      <point x="311" y="-78" type="curve" smooth="yes"/>
      <point x="409" y="182"/>
      <point x="487" y="536"/>
      <point x="487" y="817" type="curve" smooth="yes"/>
      <point x="487" y="1012"/>
      <point x="461" y="1239"/>
      <point x="395" y="1423" type="curve" smooth="yes"/>
      <point x="372" y="1486"/>
      <point x="323" y="1540"/>
      <point x="323" y="1610" type="curve"/>
      <point x="343" y="1626" type="line"/>
      <point x="464" y="1622"/>
      <point x="542" y="934"/>
    </contour>
  </outline>
</glyph>
<glyph name="one" format="1">
  <advance width="740"/>
  <unicode hex="0031"/>
  <outline>
    <contour>
      <point x="537" y="14" type="curve" smooth="yes"/>
      <point x="555" y="14"/>
      <point x="582" y="18"/>
      <point x="582" y="43" type="curve" smooth="yes"/>
      <point x="582" y="72"/>
      <point x="537" y="72"/>
      <point x="519" y="72" type="curve" smooth="yes"/>
      <point x="488" y="72"/>
      <point x="458" y="66"/>
      <point x="427" y="66" type="curve"/>
      <point x="418" y="72" type="line"/>
      <point x="418" y="82"/>
      <point x="421" y="92"/>
      <point x="421" y="102" type="curve" smooth="yes"/>
      <point x="421" y="143"/>
      <point x="412" y="302"/>
      <point x="412" y="334" type="curve" smooth="yes"/>
      <point x="412" y="360" type="line" smooth="yes"/>
      <point x="412" y="589"/>
      <point x="385" y="961"/>
      <point x="385" y="1047" type="curve" smooth="yes"/>
      <point x="385" y="1176"/>
      <point x="375" y="1305"/>
      <point x="375" y="1434" type="curve" smooth="yes"/>
      <point x="375" y="1497" type="line" smooth="yes"/>
      <point x="375" y="1515"/>
      <point x="360" y="1530"/>
      <point x="342" y="1530" type="curve" smooth="yes"/>
      <point x="206" y="1530"/>
      <point x="139" y="1530"/>
      <point x="139" y="1501" type="curve" smooth="yes"/>
      <point x="139" y="1481"/>
      <point x="160" y="1479"/>
      <point x="174" y="1479" type="curve" smooth="yes"/>
      <point x="190" y="1479"/>
      <point x="205" y="1483"/>
      <point x="221" y="1483" type="curve" smooth="yes"/>
      <point x="303" y="1483"/>
      <point x="315" y="1481"/>
      <point x="315" y="1415" type="curve" smooth="yes"/>
      <point x="315" y="1390"/>
      <point x="313" y="1307"/>
      <point x="313" y="1284" type="curve" smooth="yes"/>
      <point x="338" y="893"/>
      <point x="359" y="495"/>
      <point x="359" y="104" type="curve" smooth="yes"/>
      <point x="359" y="65"/>
      <point x="347" y="64"/>
      <point x="308" y="64" type="curve" smooth="yes"/>
      <point x="290" y="64"/>
      <point x="206" y="65"/>
      <point x="191" y="65" type="curve" smooth="yes"/>
      <point x="182" y="65"/>
      <point x="175" y="53"/>
      <point x="175" y="46" type="curve" smooth="yes"/>
      <point x="175" y="9"/>
      <point x="189" y="6"/>
      <point x="207" y="6" type="curve" smooth="yes"/>
      <point x="291" y="6"/>
      <point x="453" y="14"/>
    </contour>
  </outline>
</glyph>
<glyph name="seven" format="1">
  <advance width="600"/>
  <unicode hex="0037"/>
  <outline>
    <contour>
      <point x="165" y="-4" type="line"/>
      <point x="165" y="47"/>
      <point x="190" y="94"/>
      <point x="202" y="143" type="curve" smooth="yes"/>
      <point x="284" y="493"/>
      <point x="306" y="856"/>
      <point x="351" y="1212" type="curve" smooth="yes"/>
      <point x="363" y="1312"/>
      <point x="386" y="1414"/>
      <point x="386" y="1516" type="curve" smooth="yes"/>
      <point x="386" y="1528"/>
      <point x="325" y="1528"/>
      <point x="315" y="1528" type="curve" smooth="yes"/>
      <point x="274" y="1528"/>
      <point x="235" y="1522"/>
      <point x="194" y="1522" type="curve"/>
      <point x="163" y="1542" type="line"/>
      <point x="181" y="1561" type="line"/>
      <point x="253" y="1561"/>
      <point x="326" y="1567"/>
      <point x="398" y="1567" type="curve" smooth="yes"/>
      <point x="418" y="1567"/>
      <point x="438" y="1548"/>
      <point x="444" y="1530" type="curve"/>
      <point x="428" y="1487"/>
      <point x="433" y="1440"/>
      <point x="429" y="1395" type="curve" smooth="yes"/>
      <point x="417" y="1252"/>
      <point x="268" y="131"/>
      <point x="237" y="86" type="curve"/>
      <point x="239" y="80"/>
      <point x="239" y="74"/>
      <point x="239" y="70" type="curve" smooth="yes"/>
      <point x="239" y="41"/>
      <point x="225" y="-25"/>
      <point x="190" y="-27" type="curve"/>
    </contour>
  </outline>
</glyph>
<glyph name="eight" format="1">
  <advance width="680"/>
  <unicode hex="0038"/>
  <outline>
    <contour>
      <point x="198" y="1438" type="curve" smooth="yes"/>
      <point x="198" y="1372"/>
      <point x="262" y="996"/>
      <point x="305" y="969" type="curve"/>
      <point x="342" y="1088"/>
      <point x="366" y="1210"/>
      <point x="366" y="1335" type="curve" smooth="yes"/>
      <point x="366" y="1382"/>
      <point x="358" y="1565"/>
      <point x="292" y="1565" type="curve" smooth="yes"/>
      <point x="286" y="1565"/>
      <point x="278" y="1563"/>
      <point x="270" y="1563" type="curve" smooth="yes"/>
      <point x="262" y="1563"/>
      <point x="251" y="1565"/>
      <point x="245" y="1569" type="curve"/>
      <point x="204" y="1536"/>
      <point x="198" y="1487"/>
    </contour>
    <contour>
      <point x="264" y="53" type="line"/>
      <point x="266" y="18"/>
      <point x="288" y="-39"/>
      <point x="331" y="-39" type="curve" smooth="yes"/>
      <point x="425" y="-39"/>
      <point x="454" y="39"/>
      <point x="454" y="119" type="curve" smooth="yes"/>
      <point x="454" y="273"/>
      <point x="417" y="448"/>
      <point x="376" y="598" type="curve" smooth="yes"/>
      <point x="358" y="661"/>
      <point x="348" y="741"/>
      <point x="321" y="788" type="curve"/>
      <point x="258" y="700"/>
      <point x="239" y="291"/>
      <point x="239" y="168" type="curve" smooth="yes"/>
      <point x="239" y="131"/>
      <point x="252" y="94"/>
      <point x="266" y="59" type="curve"/>
    </contour>
    <contour>
      <point x="192" y="186" type="curve" smooth="yes"/>
      <point x="192" y="374"/>
      <point x="211" y="572"/>
      <point x="258" y="756" type="curve" smooth="yes"/>
      <point x="268" y="793"/>
      <point x="288" y="829"/>
      <point x="288" y="868" type="curve" smooth="yes"/>
      <point x="288" y="891"/>
      <point x="249" y="1003"/>
      <point x="241" y="1030" type="curve" smooth="yes"/>
      <point x="204" y="1143"/>
      <point x="147" y="1325"/>
      <point x="147" y="1442" type="curve" smooth="yes"/>
      <point x="147" y="1518"/>
      <point x="174" y="1610"/>
      <point x="266" y="1610" type="curve" smooth="yes"/>
      <point x="303" y="1610" type="line"/>
      <point x="330" y="1596"/>
      <point x="360" y="1590"/>
      <point x="374" y="1559" type="curve" smooth="yes"/>
      <point x="401" y="1498"/>
      <point x="413" y="1399"/>
      <point x="413" y="1331" type="curve" smooth="yes"/>
      <point x="413" y="1222"/>
      <point x="392" y="1114"/>
      <point x="372" y="1008" type="curve" smooth="yes"/>
      <point x="366" y="981"/>
      <point x="342" y="888"/>
      <point x="342" y="868" type="curve" smooth="yes"/>
      <point x="342" y="852"/>
      <point x="362" y="813"/>
      <point x="368" y="795" type="curve" smooth="yes"/>
      <point x="434" y="596"/>
      <point x="503" y="333"/>
      <point x="503" y="104" type="curve" smooth="yes"/>
      <point x="503" y="88"/>
      <point x="497" y="71"/>
      <point x="497" y="55" type="curve" smooth="yes"/>
      <point x="497" y="51"/>
      <point x="497" y="49"/>
      <point x="499" y="45" type="curve" smooth="yes"/>
      <point x="460" y="-31"/>
      <point x="423" y="-78"/>
      <point x="331" y="-78" type="curve" smooth="yes"/>
      <point x="222" y="-78"/>
      <point x="192" y="104"/>
    </contour>
  </outline>
</glyph>
<glyph name="nine" format="1">
  <advance width="740"/>
  <unicode hex="0039"/>
  <outline>
    <contour>
      <point x="452" y="997" type="curve"/>
      <point x="481" y="1001" type="line"/>
      <point x="489" y="1146"/>
      <point x="491" y="1295"/>
      <point x="491" y="1440" type="curve" smooth="yes"/>
      <point x="491" y="1508"/>
      <point x="473" y="1563"/>
      <point x="395" y="1563" type="curve" smooth="yes"/>
      <point x="273" y="1563"/>
      <point x="225" y="1474"/>
      <point x="225" y="1366" type="curve" smooth="yes"/>
      <point x="225" y="1208"/>
      <point x="328" y="1011"/>
    </contour>
    <contour>
      <point x="454" y="-27" type="line"/>
      <point x="472" y="24"/>
      <point x="473" y="101"/>
      <point x="473" y="156" type="curve" smooth="yes"/>
      <point x="473" y="346"/>
      <point x="483" y="537"/>
      <point x="483" y="727" type="curve" smooth="yes"/>
      <point x="483" y="801"/>
      <point x="479" y="874"/>
      <point x="479" y="948" type="curve"/>
      <point x="465" y="944" type="line"/>
      <point x="265" y="970"/>
      <point x="171" y="1151"/>
      <point x="171" y="1316" type="curve" smooth="yes"/>
      <point x="171" y="1465"/>
      <point x="248" y="1602"/>
      <point x="393" y="1602" type="curve" smooth="yes"/>
      <point x="430" y="1602"/>
      <point x="506" y="1581"/>
      <point x="526" y="1550" type="curve" smooth="yes"/>
      <point x="540" y="1527"/>
      <point x="541" y="1262"/>
      <point x="541" y="1223" type="curve" smooth="yes"/>
      <point x="541" y="1143"/>
      <point x="538" y="1061"/>
      <point x="538" y="981" type="curve" smooth="yes"/>
      <point x="538" y="952"/>
      <point x="524" y="928"/>
      <point x="524" y="899" type="curve" smooth="yes"/>
      <point x="524" y="670"/>
      <point x="518" y="438"/>
      <point x="518" y="209" type="curve" smooth="yes"/>
      <point x="518" y="158"/>
      <point x="504" y="108"/>
      <point x="504" y="57" type="curve" smooth="yes"/>
      <point x="504" y="41"/>
      <point x="506" y="26"/>
      <point x="506" y="10" type="curve" smooth="yes"/>
      <point x="506" y="-13"/>
      <point x="502" y="-47"/>
      <point x="471" y="-47" type="curve"/>
    </contour>
  </outline>
</glyph>
<glyph name="less" format="1">
  <advance width="700"/>
  <unicode hex="003C"/>
  <outline>
    <contour>
      <point x="493" y="4" type="line"/>
      <point x="450" y="67"/>
      <point x="415" y="160"/>
      <point x="376" y="242" type="curve" smooth="yes"/>
      <point x="274" y="455" type="line" smooth="yes"/>
      <point x="260" y="486"/>
      <point x="241" y="518"/>
      <point x="229" y="549" type="curve" smooth="yes"/>
      <point x="211" y="598"/>
      <point x="147" y="645"/>
      <point x="147" y="698" type="curve" smooth="yes"/>
      <point x="147" y="755"/>
      <point x="337" y="1149"/>
      <point x="370" y="1247" type="curve" smooth="yes"/>
      <point x="382" y="1282"/>
      <point x="409" y="1415"/>
      <point x="448" y="1421" type="curve"/>
      <point x="475" y="1401" type="line"/>
      <point x="444" y="1202"/>
      <point x="219" y="870"/>
      <point x="219" y="700" type="curve" smooth="yes"/>
      <point x="219" y="675"/>
      <point x="497" y="116"/>
      <point x="534" y="53" type="curve"/>
      <point x="552" y="39" type="line"/>
      <point x="550" y="27"/>
      <point x="538" y="0"/>
      <point x="524" y="0" type="curve" smooth="yes"/>
      <point x="516" y="0"/>
      <point x="507" y="4"/>
      <point x="497" y="4" type="curve" smooth="yes"/>
    </contour>
  </outline>
</glyph>
<glyph name="equal" format="1">
  <advance width="760"/>
  <unicode hex="003D"/>
  <outline>
    <contour>
      <point x="538" y="594" type="curve"/>
      <point x="538" y="596"/>
      <point x="254" y="598"/>
      <point x="143" y="598" type="curve" smooth="yes"/>
      <point x="132" y="598"/>
      <point x="123" y="614"/>
      <point x="123" y="626" type="curve" smooth="yes"/>
      <point x="123" y="632"/>
      <point x="126" y="637"/>
      <point x="133" y="637" type="curve" smooth="yes"/>
      <point x="143" y="637"/>
      <point x="440" y="635"/>
      <point x="536" y="635" type="curve" smooth="yes"/>
      <point x="545" y="635"/>
      <point x="552" y="621"/>
      <point x="552" y="610" type="curve" smooth="yes"/>
      <point x="552" y="601"/>
      <point x="547" y="594"/>
    </contour>
    <contour>
      <point x="590" y="727" type="curve" smooth="yes"/>
      <point x="588" y="721"/>
      <point x="486" y="721"/>
      <point x="373" y="721" type="curve" smooth="yes"/>
      <point x="175" y="721" type="line" smooth="yes"/>
      <point x="159" y="721"/>
      <point x="145" y="729"/>
      <point x="145" y="743" type="curve" smooth="yes"/>
      <point x="145" y="747"/>
      <point x="146" y="751"/>
      <point x="148" y="756" type="curve" smooth="yes"/>
      <point x="150" y="762"/>
      <point x="238" y="762"/>
      <point x="330" y="762" type="curve" smooth="yes"/>
      <point x="561" y="762" type="line" smooth="yes"/>
      <point x="576" y="762"/>
      <point x="592" y="752"/>
      <point x="592" y="737" type="curve" smooth="yes"/>
      <point x="592" y="734"/>
      <point x="592" y="730"/>
    </contour>
  </outline>
</glyph>
<glyph name="at" format="1">
  <advance width="1140"/>
  <unicode hex="0040"/>
  <outline>
    <contour>
      <point x="530" y="1409" type="curve" smooth="yes"/>
      <point x="411" y="1409"/>
      <point x="405" y="1211"/>
      <point x="405" y="1094" type="curve" smooth="yes"/>
      <point x="405" y="831" type="line" smooth="yes"/>
      <point x="405" y="702"/>
      <point x="413" y="526"/>
      <point x="541" y="526" type="curve" smooth="yes"/>
      <point x="615" y="526"/>
      <point x="687" y="675"/>
      <point x="687" y="745" type="curve" smooth="yes"/>
      <point x="687" y="899" type="line" smooth="yes"/>
      <point x="687" y="1012"/>
      <point x="663" y="1124"/>
      <point x="642" y="1233" type="curve" smooth="yes"/>
      <point x="625" y="1319"/>
      <point x="626" y="1409"/>
    </contour>
    <contour>
      <point x="226" y="279" type="curve"/>
      <point x="224" y="310"/>
      <point x="209" y="331"/>
      <point x="199" y="360" type="curve" smooth="yes"/>
      <point x="166" y="452"/>
      <point x="131" y="909"/>
      <point x="131" y="1024" type="curve" smooth="yes"/>
      <point x="131" y="1176"/>
      <point x="135" y="1329"/>
      <point x="166" y="1479" type="curve" smooth="yes"/>
      <point x="213" y="1712"/>
      <point x="269" y="1833"/>
      <point x="519" y="1833" type="curve" smooth="yes"/>
      <point x="865" y="1833"/>
      <point x="909" y="1453"/>
      <point x="952" y="1174" type="curve" smooth="yes"/>
      <point x="966" y="1084"/>
      <point x="983" y="993"/>
      <point x="983" y="903" type="curve" smooth="yes"/>
      <point x="983" y="799"/>
      <point x="978" y="565"/>
      <point x="831" y="565" type="curve" smooth="yes"/>
      <point x="780" y="565"/>
      <point x="766" y="606"/>
      <point x="728" y="616" type="curve"/>
      <point x="694" y="534"/>
      <point x="611" y="467"/>
      <point x="526" y="467" type="curve" smooth="yes"/>
      <point x="336" y="467"/>
      <point x="323" y="778"/>
      <point x="323" y="954" type="curve" smooth="yes"/>
      <point x="323" y="1006" type="line" smooth="yes"/>
      <point x="323" y="1196"/>
      <point x="332" y="1464"/>
      <point x="530" y="1464" type="curve" smooth="yes"/>
      <point x="579" y="1464"/>
      <point x="630" y="1444"/>
      <point x="664" y="1405" type="curve" smooth="yes"/>
      <point x="702" y="1362"/>
      <point x="756" y="788"/>
      <point x="768" y="686" type="curve"/>
      <point x="791" y="676" type="line"/>
      <point x="797" y="664"/>
      <point x="818" y="625"/>
      <point x="834" y="625" type="curve" smooth="yes"/>
      <point x="914" y="625"/>
      <point x="913" y="860"/>
      <point x="913" y="915" type="curve" smooth="yes"/>
      <point x="913" y="1128"/>
      <point x="875" y="1349"/>
      <point x="799" y="1550" type="curve" smooth="yes"/>
      <point x="740" y="1704"/>
      <point x="666" y="1774"/>
      <point x="509" y="1774" type="curve" smooth="yes"/>
      <point x="266" y="1774"/>
      <point x="240" y="1585"/>
      <point x="228" y="1380" type="curve" smooth="yes"/>
      <point x="224" y="1319"/>
      <point x="222" y="1243"/>
      <point x="199" y="1186" type="curve"/>
      <point x="201" y="1159"/>
      <point x="203" y="1133"/>
      <point x="203" y="1106" type="curve" smooth="yes"/>
      <point x="203" y="1086"/>
      <point x="203" y="1060"/>
      <point x="195" y="1040" type="curve"/>
      <point x="199" y="1032"/>
      <point x="199" y="1022"/>
      <point x="199" y="1014" type="curve" smooth="yes"/>
      <point x="199" y="897"/>
      <point x="214" y="785"/>
      <point x="226" y="668" type="curve" smooth="yes"/>
      <point x="249" y="471"/>
      <point x="223" y="354"/>
      <point x="346" y="180" type="curve" smooth="yes"/>
      <point x="379" y="133"/>
      <point x="422" y="86"/>
      <point x="478" y="86" type="curve" smooth="yes"/>
      <point x="627" y="86"/>
      <point x="731" y="131"/>
      <point x="842" y="248" type="curve" smooth="yes"/>
      <point x="852" y="258"/>
      <point x="873" y="283"/>
      <point x="887" y="287" type="curve"/>
      <point x="905" y="268" type="line"/>
      <point x="864" y="125"/>
      <point x="608" y="39"/>
      <point x="485" y="39" type="curve" smooth="yes"/>
      <point x="357" y="39"/>
      <point x="277" y="168"/>
    </contour>
  </outline>
</glyph>
<glyph name="A" format="1">
  <advance width="800"/>
  <unicode hex="0041"/>
  <outline>
    <contour>
      <point x="478" y="1536" type="move" name="top"/>
    </contour>
    <contour>
      <point x="277" y="426" type="line"/>
      <point x="336" y="406"/>
      <point x="421" y="397"/>
      <point x="484" y="397" type="curve" smooth="yes"/>
      <point x="491" y="397"/>
      <point x="501" y="396"/>
      <point x="510" y="396" type="curve" smooth="yes"/>
      <point x="530" y="396"/>
      <point x="550" y="399"/>
      <point x="550" y="416" type="curve" smooth="yes"/>
      <point x="550" y="723"/>
      <point x="494" y="1272"/>
      <point x="481" y="1389" type="curve" smooth="yes"/>
      <point x="479" y="1405"/>
      <point x="473" y="1420"/>
      <point x="473" y="1436" type="curve"/>
      <point x="454" y="1382"/>
      <point x="438" y="1298"/>
      <point x="429" y="1253" type="curve" smooth="yes"/>
      <point x="416" y="1178"/>
      <point x="370" y="859"/>
      <point x="325" y="664" type="curve" smooth="yes"/>
      <point x="309" y="590"/>
      <point x="277" y="514"/>
      <point x="277" y="438" type="curve" smooth="yes"/>
    </contour>
    <contour>
      <point x="552" y="35" type="curve" smooth="yes"/>
      <point x="552" y="303" type="line" smooth="yes"/>
      <point x="552" y="344"/>
      <point x="315" y="369"/>
      <point x="276" y="369" type="curve" smooth="yes"/>
      <point x="260" y="369"/>
      <point x="196" y="54"/>
      <point x="187" y="20" type="curve" smooth="yes"/>
      <point x="184" y="9"/>
      <point x="175" y="5"/>
      <point x="165" y="5" type="curve" smooth="yes"/>
      <point x="146" y="5"/>
      <point x="123" y="20"/>
      <point x="123" y="39" type="curve" smooth="yes"/>
      <point x="123" y="41"/>
      <point x="124" y="43"/>
      <point x="124" y="45" type="curve" smooth="yes"/>
      <point x="134" y="84"/>
      <point x="200" y="383"/>
      <point x="220" y="471" type="curve" smooth="yes"/>
      <point x="281" y="737"/>
      <point x="313" y="1008"/>
      <point x="372" y="1274" type="curve" smooth="yes"/>
      <point x="380" y="1313"/>
      <point x="431" y="1536"/>
      <point x="468" y="1536" type="curve" smooth="yes"/>
      <point x="488" y="1536"/>
      <point x="503" y="1532"/>
      <point x="515" y="1516" type="curve" smooth="yes"/>
      <point x="535" y="1485"/>
      <point x="579" y="1010"/>
      <point x="585" y="940" type="curve" smooth="yes"/>
      <point x="613" y="600" type="line"/>
      <point x="613" y="422"/>
      <point x="636" y="244"/>
      <point x="636" y="66" type="curve" smooth="yes"/>
      <point x="636" y="57" type="line" smooth="yes"/>
      <point x="636" y="24"/>
      <point x="634" y="0"/>
      <point x="591" y="0" type="curve" smooth="yes"/>
      <point x="571" y="0"/>
      <point x="552" y="15"/>
    </contour>
  </outline>
</glyph>
<glyph name="B" format="1">
  <advance width="740"/>
  <unicode hex="0042"/>
  <outline>
    <contour>
      <point x="376" y="1536" type="move" name="top"/>
    </contour>
    <contour>
      <point x="250" y="887" type="curve"/>
      <point x="252" y="887"/>
      <point x="256" y="885"/>
      <point x="256" y="885" type="curve"/>
      <point x="387" y="885"/>
      <point x="465" y="1133"/>
      <point x="465" y="1268" type="curve" smooth="yes"/>
      <point x="465" y="1356"/>
      <point x="389" y="1466"/>
      <point x="295" y="1466" type="curve" smooth="yes"/>
      <point x="248" y="1466"/>
      <point x="242" y="1413"/>
      <point x="242" y="1378" type="curve" smooth="yes"/>
      <point x="242" y="1214"/>
      <point x="250" y="1051"/>
    </contour>
    <contour>
      <point x="260" y="70" type="curve"/>
      <point x="264" y="70"/>
      <point x="269" y="68"/>
      <point x="273" y="68" type="curve" smooth="yes"/>
      <point x="414" y="68"/>
      <point x="527" y="211"/>
      <point x="527" y="371" type="curve" smooth="yes"/>
      <point x="527" y="518"/>
      <point x="511" y="745"/>
      <point x="351" y="811" type="curve"/>
      <point x="316" y="809"/>
      <point x="285" y="794"/>
      <point x="250" y="788" type="curve"/>
      <point x="258" y="548"/>
      <point x="260" y="310"/>
    </contour>
    <contour>
      <point x="183" y="16" type="curve" smooth="yes"/>
      <point x="183" y="188"/>
      <point x="193" y="363"/>
      <point x="193" y="535" type="curve" smooth="yes"/>
      <point x="193" y="820"/>
      <point x="179" y="1104"/>
      <point x="179" y="1389" type="curve" smooth="yes"/>
      <point x="179" y="1424"/>
      <point x="179" y="1536"/>
      <point x="232" y="1536" type="curve" smooth="yes"/>
      <point x="427" y="1536"/>
      <point x="519" y="1394"/>
      <point x="519" y="1214" type="curve" smooth="yes"/>
      <point x="519" y="1087"/>
      <point x="461" y="974"/>
      <point x="387" y="874" type="curve"/>
      <point x="532" y="731"/>
      <point x="584" y="617"/>
      <point x="584" y="433" type="curve" smooth="yes"/>
      <point x="584" y="187"/>
      <point x="554" y="100"/>
      <point x="344" y="8" type="curve"/>
      <point x="315" y="6"/>
      <point x="292" y="-12"/>
      <point x="263" y="-12" type="curve" smooth="yes"/>
      <point x="259" y="-12" type="line" smooth="yes"/>
      <point x="236" y="-12"/>
      <point x="183" y="-11"/>
    </contour>
  </outline>
</glyph>
<glyph name="C" format="1">
  <advance width="780"/>
  <unicode hex="0043"/>
  <outline>
    <contour>
      <point x="448" y="1536" type="move" name="top"/>
    </contour>
    <contour>
      <point x="173" y="877" type="curve" smooth="yes"/>
      <point x="173" y="950"/>
      <point x="171" y="1022"/>
      <point x="171" y="1090" type="curve" smooth="yes"/>
      <point x="171" y="1355"/>
      <point x="200" y="1565"/>
      <point x="483" y="1565" type="curve" smooth="yes"/>
      <point x="522" y="1565"/>
      <point x="601" y="1536"/>
      <point x="601" y="1489" type="curve" smooth="yes"/>
      <point x="601" y="1471"/>
      <point x="583" y="1466"/>
      <point x="569" y="1466" type="curve" smooth="yes"/>
      <point x="543" y="1466"/>
      <point x="503" y="1495"/>
      <point x="466" y="1495" type="curve" smooth="yes"/>
      <point x="254" y="1495"/>
      <point x="225" y="1289"/>
      <point x="225" y="1081" type="curve" smooth="yes"/>
      <point x="225" y="1004"/>
      <point x="229" y="927"/>
      <point x="229" y="860" type="curve" smooth="yes"/>
      <point x="229" y="747"/>
      <point x="268" y="197"/>
      <point x="313" y="127" type="curve" smooth="yes"/>
      <point x="350" y="70"/>
      <point x="424" y="47"/>
      <point x="487" y="47" type="curve" smooth="yes"/>
      <point x="540" y="47"/>
      <point x="595" y="65"/>
      <point x="630" y="106" type="curve" smooth="yes"/>
      <point x="640" y="121"/>
      <point x="655" y="132"/>
      <point x="668" y="132" type="curve" smooth="yes"/>
      <point x="679" y="132"/>
      <point x="687" y="124"/>
      <point x="687" y="102" type="curve" smooth="yes"/>
      <point x="687" y="-2"/>
      <point x="542" y="-33"/>
      <point x="460" y="-33" type="curve" smooth="yes"/>
      <point x="378" y="-33"/>
      <point x="282" y="43"/>
      <point x="249" y="115" type="curve" smooth="yes"/>
      <point x="210" y="199"/>
      <point x="173" y="756"/>
    </contour>
  </outline>
</glyph>
<glyph name="D" format="1">
  <advance width="820"/>
  <unicode hex="0044"/>
  <outline>
    <contour>
      <point x="377" y="1536" type="move" name="top"/>
    </contour>
    <contour>
      <point x="268" y="100" type="line"/>
      <point x="278" y="100" type="line"/>
      <point x="548" y="243"/>
      <point x="592" y="681"/>
      <point x="592" y="874" type="curve" smooth="yes"/>
      <point x="592" y="1132"/>
      <point x="549" y="1473"/>
      <point x="262" y="1473" type="curve" smooth="yes"/>
      <point x="246" y="1473"/>
      <point x="219" y="1473"/>
      <point x="219" y="1450" type="curve" smooth="yes"/>
      <point x="219" y="1335"/>
      <point x="237" y="1223"/>
      <point x="237" y="1110" type="curve" smooth="yes"/>
      <point x="237" y="848"/>
      <point x="268" y="588"/>
      <point x="268" y="330" type="curve" smooth="yes"/>
    </contour>
    <contour>
      <point x="172" y="37" type="curve" smooth="yes"/>
      <point x="172" y="66"/>
      <point x="205" y="90"/>
      <point x="204" y="119" type="curve" smooth="yes"/>
      <point x="198" y="299" type="line"/>
      <point x="184" y="858" type="line"/>
      <point x="179" y="896"/>
      <point x="181" y="1305"/>
      <point x="168" y="1391" type="curve" smooth="yes"/>
      <point x="163" y="1426"/>
      <point x="139" y="1460"/>
      <point x="139" y="1497" type="curve" smooth="yes"/>
      <point x="139" y="1546"/>
      <point x="256" y="1546"/>
      <point x="293" y="1546" type="curve" smooth="yes"/>
      <point x="303" y="1546" type="line" smooth="yes"/>
      <point x="644" y="1546"/>
      <point x="654" y="988"/>
      <point x="654" y="837" type="curve" smooth="yes"/>
      <point x="654" y="592"/>
      <point x="545" y="218"/>
      <point x="389" y="90" type="curve" smooth="yes"/>
      <point x="350" y="59"/>
      <point x="270" y="-4"/>
      <point x="247" y="-4" type="curve" smooth="yes"/>
      <point x="222" y="-4"/>
      <point x="172" y="8"/>
    </contour>
  </outline>
</glyph>
<glyph name="F" format="1">
  <advance width="580"/>
  <unicode hex="0046"/>
  <outline>
    <contour>
      <point x="306" y="1536" type="move" name="top"/>
    </contour>
    <contour>
      <point x="251" y="-4" type="curve" smooth="yes"/>
      <point x="220" y="-4"/>
      <point x="218" y="26"/>
      <point x="218" y="49" type="curve" smooth="yes"/>
      <point x="218" y="201" type="line" smooth="yes"/>
      <point x="218" y="240"/>
      <point x="192" y="612"/>
      <point x="192" y="819" type="curve" smooth="yes"/>
      <point x="192" y="915"/>
      <point x="163" y="1498"/>
      <point x="163" y="1512" type="curve" smooth="yes"/>
      <point x="163" y="1525" type="line" smooth="yes"/>
      <point x="163" y="1546"/>
      <point x="189" y="1549"/>
      <point x="254" y="1549" type="curve" smooth="yes"/>
      <point x="281" y="1549"/>
      <point x="315" y="1548"/>
      <point x="356" y="1548" type="curve" smooth="yes"/>
      <point x="381" y="1548"/>
      <point x="390" y="1521"/>
      <point x="390" y="1501" type="curve" smooth="yes"/>
      <point x="390" y="1481"/>
      <point x="364" y="1481"/>
      <point x="352" y="1481" type="curve" smooth="yes"/>
      <point x="340" y="1481"/>
      <point x="270" y="1483"/>
      <point x="252" y="1483" type="curve" smooth="yes"/>
      <point x="233" y="1483"/>
      <point x="227" y="1482"/>
      <point x="227" y="1443" type="curve" smooth="yes"/>
      <point x="227" y="1398"/>
      <point x="257" y="892"/>
      <point x="257" y="844" type="curve"/>
      <point x="304" y="844"/>
      <point x="348" y="868"/>
      <point x="395" y="868" type="curve" smooth="yes"/>
      <point x="413" y="868"/>
      <point x="427" y="843"/>
      <point x="427" y="827" type="curve" smooth="yes"/>
      <point x="427" y="768"/>
      <point x="257" y="811"/>
      <point x="257" y="762" type="curve" smooth="yes"/>
      <point x="257" y="531"/>
      <point x="296" y="303"/>
      <point x="296" y="72" type="curve"/>
      <point x="290" y="61" type="line"/>
      <point x="294" y="51"/>
      <point x="296" y="42"/>
      <point x="296" y="34" type="curve" smooth="yes"/>
      <point x="296" y="11"/>
      <point x="280" y="-4"/>
    </contour>
  </outline>
</glyph>
<glyph name="G" format="1">
  <advance width="920"/>
  <unicode hex="0047"/>
  <outline>
    <contour>
      <point x="497" y="1536" type="move" name="top"/>
    </contour>
    <contour>
      <point x="171" y="877" type="curve" smooth="yes"/>
      <point x="171" y="1100"/>
      <point x="180" y="1571"/>
      <point x="497" y="1571" type="curve" smooth="yes"/>
      <point x="520" y="1571"/>
      <point x="558" y="1567"/>
      <point x="558" y="1536" type="curve" smooth="yes"/>
      <point x="558" y="1516"/>
      <point x="546" y="1511"/>
      <point x="528" y="1511" type="curve" smooth="yes"/>
      <point x="508" y="1511"/>
      <point x="490" y="1522"/>
      <point x="470" y="1522" type="curve" smooth="yes"/>
      <point x="228" y="1522"/>
      <point x="245" y="989"/>
      <point x="241" y="827" type="curve" smooth="yes"/>
      <point x="240" y="794"/>
      <point x="240" y="756"/>
      <point x="240" y="715" type="curve" smooth="yes"/>
      <point x="240" y="436"/>
      <point x="283" y="25"/>
      <point x="503" y="25" type="curve" smooth="yes"/>
      <point x="583" y="25"/>
      <point x="634" y="61"/>
      <point x="677" y="127" type="curve"/>
      <point x="677" y="166"/>
      <point x="671" y="391"/>
      <point x="624" y="391" type="curve" smooth="yes"/>
      <point x="597" y="391"/>
      <point x="571" y="383"/>
      <point x="542" y="383" type="curve" smooth="yes"/>
      <point x="519" y="383"/>
      <point x="495" y="389"/>
      <point x="495" y="418" type="curve" smooth="yes"/>
      <point x="495" y="447"/>
      <point x="623" y="463"/>
      <point x="648" y="463" type="curve" smooth="yes"/>
      <point x="697" y="463"/>
      <point x="712" y="418"/>
      <point x="712" y="377" type="curve" smooth="yes"/>
      <point x="712" y="254"/>
      <point x="753" y="135"/>
      <point x="753" y="12" type="curve" smooth="yes"/>
      <point x="753" y="-4"/>
      <point x="746" y="-20"/>
      <point x="726" y="-20" type="curve" smooth="yes"/>
      <point x="697" y="-20"/>
      <point x="677" y="-6"/>
      <point x="677" y="25" type="curve" smooth="yes"/>
      <point x="677" y="27"/>
      <point x="679" y="33"/>
      <point x="679" y="35" type="curve"/>
      <point x="601" y="-10"/>
      <point x="532" y="-33"/>
      <point x="473" y="-33" type="curve" smooth="yes"/>
      <point x="264" y="-33"/>
      <point x="171" y="255"/>
    </contour>
  </outline>
</glyph>
<glyph name="K" format="1">
  <advance width="820"/>
  <unicode hex="004B"/>
  <outline>
    <contour>
      <point x="416" y="1536" type="move" name="top"/>
    </contour>
    <contour>
      <point x="361" y="884" type="curve"/>
      <point x="347" y="919" type="line"/>
      <point x="338" y="902"/>
      <point x="271" y="792"/>
      <point x="254" y="763" type="curve"/>
      <point x="254" y="34" type="line" smooth="yes"/>
      <point x="254" y="-4"/>
      <point x="251" y="-26"/>
      <point x="221" y="-26" type="curve" smooth="yes"/>
      <point x="190" y="-26"/>
      <point x="187" y="-5"/>
      <point x="187" y="38" type="curve" smooth="yes"/>
      <point x="187" y="657" type="line" smooth="yes"/>
      <point x="187" y="901"/>
      <point x="196" y="1199"/>
      <point x="196" y="1443" type="curve" smooth="yes"/>
      <point x="196" y="1496"/>
      <point x="198" y="1540"/>
      <point x="223" y="1540" type="curve" smooth="yes"/>
      <point x="264" y="1540"/>
      <point x="267" y="1526"/>
      <point x="267" y="1453" type="curve" smooth="yes"/>
      <point x="267" y="1281"/>
      <point x="260" y="911"/>
      <point x="260" y="864" type="curve"/>
      <point x="262" y="864" type="line"/>
      <point x="332" y="1011"/>
      <point x="386" y="1163"/>
      <point x="449" y="1313" type="curve" smooth="yes"/>
      <point x="465" y="1354"/>
      <point x="561" y="1597"/>
      <point x="594" y="1597" type="curve" smooth="yes"/>
      <point x="612" y="1597"/>
      <point x="629" y="1587"/>
      <point x="629" y="1567" type="curve" smooth="yes"/>
      <point x="623" y="1518"/>
      <point x="594" y="1489"/>
      <point x="576" y="1448" type="curve" smooth="yes"/>
      <point x="537" y="1364"/>
      <point x="423" y="1082"/>
      <point x="385" y="993" type="curve" smooth="yes"/>
      <point x="381" y="983"/>
      <point x="381" y="978"/>
      <point x="387" y="969" type="curve" smooth="yes"/>
      <point x="514" y="647"/>
      <point x="633" y="190"/>
      <point x="684" y="12" type="curve" smooth="yes"/>
      <point x="686" y="7"/>
      <point x="687" y="2"/>
      <point x="687" y="-2" type="curve" smooth="yes"/>
      <point x="687" y="-22"/>
      <point x="668" y="-32"/>
      <point x="651" y="-32" type="curve" smooth="yes"/>
      <point x="640" y="-32"/>
      <point x="630" y="-28"/>
      <point x="627" y="-19" type="curve" smooth="yes"/>
      <point x="590" y="100"/>
      <point x="412" y="737"/>
    </contour>
  </outline>
</glyph>
<glyph name="M" format="1">
  <advance width="980"/>
  <unicode hex="004D"/>
  <outline>
    <contour>
      <point x="486" y="1536" type="move" name="top"/>
    </contour>
    <contour>
      <point x="741" y="10" type="curve" smooth="yes"/>
      <point x="741" y="197" type="line" smooth="yes"/>
      <point x="741" y="422"/>
      <point x="726" y="645"/>
      <point x="726" y="870" type="curve" smooth="yes"/>
      <point x="726" y="946"/>
      <point x="730" y="1024"/>
      <point x="730" y="1100" type="curve" smooth="yes"/>
      <point x="730" y="1161"/>
      <point x="724" y="1221"/>
      <point x="722" y="1282" type="curve"/>
      <point x="718" y="1278"/>
      <point x="719" y="1274"/>
      <point x="718" y="1268" type="curve" smooth="yes"/>
      <point x="678" y="1011"/>
      <point x="593" y="570"/>
      <point x="575" y="483" type="curve" smooth="yes"/>
      <point x="568" y="450"/>
      <point x="545" y="338"/>
      <point x="538" y="296" type="curve" smooth="yes"/>
      <point x="532" y="260"/>
      <point x="511" y="238"/>
      <point x="491" y="238" type="curve" smooth="yes"/>
      <point x="472" y="238"/>
      <point x="453" y="258"/>
      <point x="448" y="302" type="curve" smooth="yes"/>
      <point x="436" y="392"/>
      <point x="263" y="1292"/>
      <point x="245" y="1317" type="curve"/>
      <point x="239" y="1178"/>
      <point x="237" y="1040"/>
      <point x="237" y="903" type="curve" smooth="yes"/>
      <point x="237" y="686"/>
      <point x="243" y="469"/>
      <point x="243" y="252" type="curve" smooth="yes"/>
      <point x="243" y="186"/>
      <point x="253" y="123"/>
      <point x="253" y="57" type="curve" smooth="yes"/>
      <point x="253" y="34"/>
      <point x="253" y="20"/>
      <point x="237" y="4" type="curve"/>
      <point x="186" y="4"/>
      <point x="179" y="62"/>
      <point x="179" y="111" type="curve" smooth="yes"/>
      <point x="179" y="453" type="line" smooth="yes"/>
      <point x="179" y="590"/>
      <point x="182" y="729"/>
      <point x="182" y="868" type="curve" smooth="yes"/>
      <point x="182" y="1030"/>
      <point x="188" y="1192"/>
      <point x="188" y="1354" type="curve" smooth="yes"/>
      <point x="188" y="1533" type="line" smooth="yes"/>
      <point x="188" y="1548"/>
      <point x="204" y="1561"/>
      <point x="218" y="1561" type="curve" smooth="yes"/>
      <point x="227" y="1561"/>
      <point x="235" y="1556"/>
      <point x="239" y="1544" type="curve" smooth="yes"/>
      <point x="259" y="1479"/>
      <point x="387" y="971"/>
      <point x="442" y="717" type="curve" smooth="yes"/>
      <point x="456" y="654"/>
      <point x="496" y="413"/>
      <point x="502" y="376" type="curve"/>
      <point x="514" y="438"/>
      <point x="555" y="692"/>
      <point x="565" y="739" type="curve" smooth="yes"/>
      <point x="600" y="907"/>
      <point x="628" y="1073"/>
      <point x="659" y="1241" type="curve" smooth="yes"/>
      <point x="677" y="1341"/>
      <point x="705" y="1490"/>
      <point x="710" y="1523" type="curve" smooth="yes"/>
      <point x="715" y="1552"/>
      <point x="730" y="1566"/>
      <point x="745" y="1566" type="curve" smooth="yes"/>
      <point x="759" y="1566"/>
      <point x="773" y="1553"/>
      <point x="773" y="1528" type="curve" smooth="yes"/>
      <point x="773" y="1325" type="line" smooth="yes"/>
      <point x="773" y="1016"/>
      <point x="806" y="706"/>
      <point x="806" y="399" type="curve" smooth="yes"/>
      <point x="806" y="273"/>
      <point x="816" y="198"/>
      <point x="816" y="24" type="curve" smooth="yes"/>
      <point x="816" y="-42"/>
      <point x="803" y="-47"/>
      <point x="786" y="-47" type="curve" smooth="yes"/>
      <point x="743" y="-47"/>
      <point x="741" y="-20"/>
    </contour>
  </outline>
</glyph>
<glyph name="N" format="1">
  <advance width="900"/>
  <unicode hex="004E"/>
  <outline>
    <contour>
      <point x="466" y="1536" type="move" name="top"/>
    </contour>
    <contour>
      <point x="244" y="1426" type="curve"/>
      <point x="242" y="1406"/>
      <point x="242" y="1361"/>
      <point x="242" y="1341" type="curve" smooth="yes"/>
      <point x="242" y="600" type="line" smooth="yes"/>
      <point x="242" y="403"/>
      <point x="252" y="213"/>
      <point x="252" y="16" type="curve"/>
      <point x="238" y="0" type="line"/>
      <point x="191" y="0" type="line"/>
      <point x="185" y="16" type="line"/>
      <point x="189" y="32"/>
      <point x="189" y="80"/>
      <point x="189" y="98" type="curve" smooth="yes"/>
      <point x="189" y="336"/>
      <point x="184" y="573"/>
      <point x="184" y="811" type="curve" smooth="yes"/>
      <point x="184" y="1079" type="line" smooth="yes"/>
      <point x="184" y="1208"/>
      <point x="181" y="1337"/>
      <point x="181" y="1466" type="curve" smooth="yes"/>
      <point x="181" y="1480"/>
      <point x="179" y="1495"/>
      <point x="179" y="1509" type="curve" smooth="yes"/>
      <point x="179" y="1546"/>
      <point x="201" y="1552"/>
      <point x="234" y="1552" type="curve" smooth="yes"/>
      <point x="252" y="1552"/>
      <point x="276" y="1532"/>
      <point x="281" y="1513" type="curve" smooth="yes"/>
      <point x="308" y="1404"/>
      <point x="340" y="1232"/>
      <point x="373" y="1096" type="curve" smooth="yes"/>
      <point x="403" y="972"/>
      <point x="472" y="723"/>
      <point x="521" y="539" type="curve" smooth="yes"/>
      <point x="542" y="452"/>
      <point x="587" y="272"/>
      <point x="627" y="150" type="curve"/>
      <point x="639" y="177"/>
      <point x="640" y="219"/>
      <point x="640" y="248" type="curve" smooth="yes"/>
      <point x="640" y="486"/>
      <point x="648" y="723"/>
      <point x="648" y="961" type="curve" smooth="yes"/>
      <point x="648" y="1067"/>
      <point x="651" y="1172"/>
      <point x="651" y="1278" type="curve" smooth="yes"/>
      <point x="649" y="1567" type="line"/>
      <point x="655" y="1587"/>
      <point x="671" y="1595"/>
      <point x="691" y="1595" type="curve" smooth="yes"/>
      <point x="704" y="1595"/>
      <point x="707" y="1566"/>
      <point x="707" y="1535" type="curve" smooth="yes"/>
      <point x="707" y="1506"/>
      <point x="704" y="1475"/>
      <point x="704" y="1460" type="curve" smooth="yes"/>
      <point x="704" y="1329" type="line" smooth="yes"/>
      <point x="704" y="1000"/>
      <point x="699" y="685"/>
      <point x="699" y="360" type="curve" smooth="yes"/>
      <point x="699" y="255"/>
      <point x="689" y="142"/>
      <point x="689" y="37" type="curve" smooth="yes"/>
      <point x="689" y="2"/>
      <point x="676" y="-23"/>
      <point x="637" y="-23" type="curve" smooth="yes"/>
      <point x="590" y="-23"/>
      <point x="589" y="63"/>
      <point x="580" y="94" type="curve" smooth="yes"/>
      <point x="535" y="256"/>
      <point x="369" y="846"/>
      <point x="328" y="1016" type="curve" smooth="yes"/>
      <point x="300" y="1133"/>
      <point x="257" y="1361"/>
    </contour>
  </outline>
</glyph>
<glyph name="O" format="1">
  <advance width="840"/>
  <unicode hex="004F"/>
  <outline>
    <contour>
      <point x="386" y="1536" type="move" name="top"/>
    </contour>
    <contour>
      <point x="383" y="1518" type="curve" smooth="yes"/>
      <point x="236" y="1518"/>
      <point x="232" y="1059"/>
      <point x="232" y="931" type="curve" smooth="yes"/>
      <point x="232" y="831" type="line" smooth="yes"/>
      <point x="232" y="690"/>
      <point x="273" y="14"/>
      <point x="459" y="14" type="curve" smooth="yes"/>
      <point x="602" y="14"/>
      <point x="606" y="540"/>
      <point x="606" y="653" type="curve" smooth="yes"/>
      <point x="606" y="662" type="line" smooth="yes"/>
      <point x="606" y="834"/>
      <point x="604" y="1518"/>
    </contour>
    <contour>
      <point x="171" y="1025" type="line" smooth="yes"/>
      <point x="171" y="1272"/>
      <point x="194" y="1571"/>
      <point x="373" y="1571" type="curve" smooth="yes"/>
      <point x="554" y="1571"/>
      <point x="595" y="1399"/>
      <point x="617" y="1239" type="curve" smooth="yes"/>
      <point x="646" y="1032"/>
      <point x="666" y="827"/>
      <point x="666" y="618" type="curve" smooth="yes"/>
      <point x="666" y="612" type="line" smooth="yes"/>
      <point x="666" y="403"/>
      <point x="665" y="-43"/>
      <point x="455" y="-43" type="curve" smooth="yes"/>
      <point x="184" y="-43"/>
      <point x="171" y="637"/>
      <point x="171" y="942" type="curve" smooth="yes"/>
    </contour>
  </outline>
</glyph>
<glyph name="P" format="1">
  <advance width="660"/>
  <unicode hex="0050"/>
  <outline>
    <contour>
      <point x="296" y="1536" type="move" name="top"/>
    </contour>
    <contour>
      <point x="222" y="1505" type="curve"/>
      <point x="222" y="1272"/>
      <point x="246" y="1038"/>
      <point x="246" y="805" type="curve"/>
      <point x="250" y="801" type="line"/>
      <point x="281" y="803"/>
      <point x="296" y="828"/>
      <point x="316" y="848" type="curve" smooth="yes"/>
      <point x="414" y="946"/>
      <point x="449" y="1053"/>
      <point x="449" y="1182" type="curve" smooth="yes"/>
      <point x="449" y="1321"/>
      <point x="401" y="1505"/>
    </contour>
    <contour>
      <point x="222" y="-12" type="curve" smooth="yes"/>
      <point x="197" y="-12"/>
      <point x="197" y="45"/>
      <point x="197" y="59" type="curve" smooth="yes"/>
      <point x="197" y="182"/>
      <point x="191" y="303"/>
      <point x="191" y="426" type="curve" smooth="yes"/>
      <point x="191" y="537"/>
      <point x="189" y="647"/>
      <point x="189" y="758" type="curve" smooth="yes"/>
      <point x="189" y="928"/>
      <point x="185" y="1098"/>
      <point x="179" y="1266" type="curve" smooth="yes"/>
      <point x="175" y="1352"/>
      <point x="171" y="1500"/>
      <point x="171" y="1536" type="curve"/>
      <point x="183" y="1554"/>
      <point x="186" y="1565"/>
      <point x="209" y="1565" type="curve" smooth="yes"/>
      <point x="412" y="1565"/>
      <point x="506" y="1364"/>
      <point x="506" y="1186" type="curve" smooth="yes"/>
      <point x="506" y="1021"/>
      <point x="414" y="761"/>
      <point x="250" y="725" type="curve"/>
      <point x="250" y="500"/>
      <point x="267" y="276"/>
      <point x="267" y="51" type="curve" smooth="yes"/>
      <point x="267" y="18"/>
      <point x="263" y="-12"/>
    </contour>
  </outline>
</glyph>
<glyph name="Q" format="1">
  <advance width="860"/>
  <unicode hex="0051"/>
  <outline>
    <contour>
      <point x="238" y="713" type="curve" smooth="yes"/>
      <point x="238" y="590" type="line" smooth="yes"/>
      <point x="238" y="457"/>
      <point x="271" y="80"/>
      <point x="457" y="80" type="curve" smooth="yes"/>
      <point x="558" y="80"/>
      <point x="600" y="329"/>
      <point x="600" y="887" type="curve" smooth="yes"/>
      <point x="600" y="941" type="line" smooth="yes"/>
      <point x="600" y="1161"/>
      <point x="592" y="1520"/>
      <point x="387" y="1520" type="curve" smooth="yes"/>
      <point x="253" y="1520"/>
      <point x="238" y="900"/>
    </contour>
    <contour>
      <point x="651" y="-283" type="curve" smooth="yes"/>
      <point x="637" y="-283"/>
      <point x="606" y="-262"/>
      <point x="590" y="-256" type="curve" smooth="yes"/>
      <point x="504" y="-219"/>
      <point x="508" y="-63"/>
      <point x="481" y="27" type="curve"/>
      <point x="192" y="27"/>
      <point x="180" y="381"/>
      <point x="180" y="573" type="curve" smooth="yes"/>
      <point x="180" y="631"/>
      <point x="179" y="697"/>
      <point x="179" y="765" type="curve" smooth="yes"/>
      <point x="179" y="1127"/>
      <point x="195" y="1577"/>
      <point x="391" y="1577" type="curve" smooth="yes"/>
      <point x="487" y="1577"/>
      <point x="600" y="1485"/>
      <point x="616" y="1391" type="curve" smooth="yes"/>
      <point x="661" y="1137"/>
      <point x="672" y="852"/>
      <point x="672" y="594" type="curve" smooth="yes"/>
      <point x="672" y="369"/>
      <point x="640" y="189"/>
      <point x="545" y="53" type="curve"/>
      <point x="547" y="28"/>
      <point x="559" y="9"/>
      <point x="565" y="-14" type="curve" smooth="yes"/>
      <point x="581" y="-73"/>
      <point x="563" y="-217"/>
      <point x="657" y="-217" type="curve" smooth="yes"/>
      <point x="665" y="-217" type="line" smooth="yes"/>
      <point x="687" y="-217"/>
      <point x="729" y="-219"/>
      <point x="729" y="-244" type="curve" smooth="yes"/>
      <point x="729" y="-283"/>
      <point x="678" y="-283"/>
    </contour>
  </outline>
</glyph>
<glyph name="bracketright" format="1">
  <advance width="740"/>
  <unicode hex="005D"/>
  <outline>
    <contour>
      <point x="313" y="-68" type="curve" smooth="yes"/>
      <point x="313" y="-13"/>
      <point x="485" y="-22"/>
      <point x="524" y="-14" type="curve"/>
      <point x="516" y="2" type="line"/>
      <point x="516" y="51" type="line"/>
      <point x="491" y="106"/>
      <point x="452" y="1061"/>
      <point x="448" y="1204" type="curve" smooth="yes"/>
      <point x="446" y="1288"/>
      <point x="436" y="1374"/>
      <point x="436" y="1458" type="curve" smooth="yes"/>
      <point x="436" y="1485"/>
      <point x="430" y="1499"/>
      <point x="401" y="1499" type="curve" smooth="yes"/>
      <point x="362" y="1499"/>
      <point x="325" y="1491"/>
      <point x="286" y="1491" type="curve" smooth="yes"/>
      <point x="275" y="1491" type="line" smooth="yes"/>
      <point x="257" y="1491"/>
      <point x="227" y="1493"/>
      <point x="227" y="1511" type="curve" smooth="yes"/>
      <point x="227" y="1556"/>
      <point x="427" y="1550"/>
      <point x="462" y="1552" type="curve"/>
      <point x="503" y="1528" type="line"/>
      <point x="499" y="1510"/>
      <point x="483" y="1499"/>
      <point x="483" y="1481" type="curve" smooth="yes"/>
      <point x="483" y="1157"/>
      <point x="538" y="834"/>
      <point x="538" y="510" type="curve" smooth="yes"/>
      <point x="538" y="328"/>
      <point x="579" y="147"/>
      <point x="579" y="-35" type="curve" smooth="yes"/>
      <point x="579" y="-76"/>
      <point x="383" y="-88"/>
      <point x="348" y="-88" type="curve" smooth="yes"/>
      <point x="336" y="-88"/>
      <point x="313" y="-84"/>
    </contour>
  </outline>
</glyph>
<glyph name="c" format="1">
  <advance width="720"/>
  <unicode hex="0063"/>
  <outline>
    <contour>
      <point x="436" y="1356" type="move" name="top"/>
    </contour>
    <contour>
      <point x="394" y="-33" type="line"/>
      <point x="359" y="-15"/>
      <point x="325" y="-15"/>
      <point x="292" y="10" type="curve" smooth="yes"/>
      <point x="179" y="92"/>
      <point x="171" y="294"/>
      <point x="171" y="446" type="curve" smooth="yes"/>
      <point x="171" y="680" type="line" smooth="yes"/>
      <point x="171" y="832"/>
      <point x="171" y="1211"/>
      <point x="300" y="1313" type="curve" smooth="yes"/>
      <point x="333" y="1338"/>
      <point x="372" y="1344"/>
      <point x="407" y="1364" type="curve"/>
      <point x="489" y="1364" type="line"/>
      <point x="507" y="1360"/>
      <point x="528" y="1358"/>
      <point x="528" y="1333" type="curve"/>
      <point x="501" y="1303" type="line"/>
      <point x="415" y="1303" type="line" smooth="yes"/>
      <point x="268" y="1303"/>
      <point x="253" y="940"/>
      <point x="253" y="838" type="curve"/>
      <point x="249" y="827" type="line"/>
      <point x="249" y="690"/>
      <point x="241" y="551"/>
      <point x="241" y="414" type="curve" smooth="yes"/>
      <point x="241" y="260"/>
      <point x="255" y="35"/>
      <point x="458" y="35" type="curve" smooth="yes"/>
      <point x="476" y="35"/>
      <point x="495" y="41"/>
      <point x="509" y="53" type="curve"/>
      <point x="523" y="53"/>
      <point x="540" y="47"/>
      <point x="540" y="31" type="curve" smooth="yes"/>
      <point x="540" y="6"/>
      <point x="482" y="-25"/>
      <point x="462" y="-33" type="curve"/>
    </contour>
  </outline>
</glyph>
<glyph name="d" format="1">
  <advance width="800"/>
  <unicode hex="0064"/>
  <outline>
    <contour>
      <point x="366" y="1356" type="move" name="top"/>
    </contour>
    <contour>
      <point x="276" y="76" type="line"/>
      <point x="282" y="49" type="line"/>
      <point x="345" y="49" type="line"/>
      <point x="363" y="72"/>
      <point x="378" y="80"/>
      <point x="401" y="100" type="curve" smooth="yes"/>
      <point x="518" y="206"/>
      <point x="546" y="420"/>
      <point x="546" y="592" type="curve" smooth="yes"/>
      <point x="546" y="619"/>
      <point x="544" y="643"/>
      <point x="544" y="666" type="curve"/>
      <point x="534" y="872" type="line" smooth="yes"/>
      <point x="528" y="1009"/>
      <point x="438" y="1262"/>
      <point x="270" y="1262" type="curve" smooth="yes"/>
      <point x="254" y="1262"/>
      <point x="247" y="1094"/>
      <point x="247" y="883" type="curve" smooth="yes"/>
      <point x="247" y="602"/>
      <point x="260" y="260"/>
      <point x="270" y="119" type="curve"/>
      <point x="268" y="80" type="line"/>
    </contour>
    <contour>
      <point x="192" y="45" type="curve" smooth="yes"/>
      <point x="186" y="164"/>
      <point x="184" y="282"/>
      <point x="184" y="401" type="curve" smooth="yes"/>
      <point x="184" y="563"/>
      <point x="188" y="723"/>
      <point x="188" y="885" type="curve" smooth="yes"/>
      <point x="188" y="1012"/>
      <point x="186" y="1141"/>
      <point x="180" y="1270" type="curve"/>
      <point x="168" y="1280"/>
      <point x="163" y="1295"/>
      <point x="163" y="1311" type="curve" smooth="yes"/>
      <point x="163" y="1331"/>
      <point x="192" y="1356"/>
      <point x="212" y="1356" type="curve" smooth="yes"/>
      <point x="235" y="1356"/>
      <point x="246" y="1331"/>
      <point x="264" y="1321" type="curve" smooth="yes"/>
      <point x="291" y="1307"/>
      <point x="331" y="1310"/>
      <point x="360" y="1296" type="curve" smooth="yes"/>
      <point x="415" y="1269"/>
      <point x="460" y="1208"/>
      <point x="511" y="1171" type="curve"/>
      <point x="509" y="1167" type="line"/>
      <point x="513" y="1142"/>
      <point x="561" y="1094"/>
      <point x="575" y="1057" type="curve" smooth="yes"/>
      <point x="604" y="979"/>
      <point x="608" y="883"/>
      <point x="608" y="813" type="curve" smooth="yes"/>
      <point x="608" y="780"/>
      <point x="606" y="750"/>
      <point x="606" y="717" type="curve" smooth="yes"/>
      <point x="606" y="706"/>
      <point x="605" y="693"/>
      <point x="605" y="680" type="curve" smooth="yes"/>
      <point x="605" y="658"/>
      <point x="607" y="635"/>
      <point x="616" y="618" type="curve"/>
      <point x="567" y="356"/>
      <point x="624" y="140"/>
      <point x="352" y="-10" type="curve"/>
      <point x="210" y="-10" type="line" smooth="yes"/>
      <point x="194" y="-10"/>
      <point x="192" y="35"/>
    </contour>
  </outline>
</glyph>
<glyph name="f" format="1">
  <advance width="620"/>
  <unicode hex="0066"/>
  <outline>
    <contour>
      <point x="366" y="1356" type="move" name="top"/>
    </contour>
    <contour>
      <point x="163" y="2" type="line"/>
      <point x="179" y="168"/>
      <point x="182" y="334"/>
      <point x="182" y="500" type="curve" smooth="yes"/>
      <point x="182" y="774"/>
      <point x="210" y="1051"/>
      <point x="210" y="1325" type="curve" smooth="yes"/>
      <point x="210" y="1352"/>
      <point x="243" y="1364"/>
      <point x="266" y="1364" type="curve" smooth="yes"/>
      <point x="303" y="1364"/>
      <point x="511" y="1350"/>
      <point x="511" y="1305" type="curve" smooth="yes"/>
      <point x="511" y="1274"/>
      <point x="461" y="1270"/>
      <point x="438" y="1270" type="curve"/>
      <point x="405" y="1288"/>
      <point x="362" y="1290"/>
      <point x="325" y="1290" type="curve" smooth="yes"/>
      <point x="278" y="1290"/>
      <point x="296" y="1284"/>
      <point x="278" y="1247" type="curve"/>
      <point x="278" y="1100"/>
      <point x="258" y="958"/>
      <point x="258" y="815" type="curve" smooth="yes"/>
      <point x="258" y="743" type="line" smooth="yes"/>
      <point x="258" y="725"/>
      <point x="395" y="754"/>
      <point x="395" y="705" type="curve" smooth="yes"/>
      <point x="395" y="680"/>
      <point x="366" y="666"/>
      <point x="346" y="666" type="curve" smooth="yes"/>
      <point x="323" y="666"/>
      <point x="301" y="678"/>
      <point x="278" y="678" type="curve" smooth="yes"/>
      <point x="241" y="678"/>
      <point x="241" y="603"/>
      <point x="241" y="578" type="curve" smooth="yes"/>
      <point x="241" y="346" type="line" smooth="yes"/>
      <point x="241" y="248"/>
      <point x="253" y="151"/>
      <point x="253" y="53" type="curve" smooth="yes"/>
      <point x="253" y="20"/>
      <point x="247" y="-29"/>
      <point x="204" y="-29" type="curve"/>
    </contour>
  </outline>
</glyph>
<glyph name="h" format="1">
  <advance width="740"/>
  <unicode hex="0068"/>
  <outline>
    <contour>
      <point x="356" y="1356" type="move" name="top"/>
    </contour>
    <contour>
      <point x="427" y="739" type="line"/>
      <point x="431" y="735" type="line"/>
      <point x="427" y="735" type="line"/>
    </contour>
    <contour>
      <point x="493" y="-2" type="curve"/>
      <point x="489" y="180"/>
      <point x="483" y="365"/>
      <point x="483" y="547" type="curve"/>
      <point x="478" y="555" type="line"/>
      <point x="478" y="557"/>
      <point x="485" y="573"/>
      <point x="485" y="573" type="curve"/>
      <point x="485" y="598"/>
      <point x="482" y="624"/>
      <point x="478" y="649" type="curve"/>
      <point x="446" y="657" type="line"/>
      <point x="434" y="653"/>
      <point x="419" y="651"/>
      <point x="405" y="651" type="curve" smooth="yes"/>
      <point x="360" y="651"/>
      <point x="319" y="672"/>
      <point x="274" y="672" type="curve"/>
      <point x="253" y="664" type="line"/>
      <point x="253" y="578"/>
      <point x="247" y="492"/>
      <point x="247" y="406" type="curve"/>
      <point x="253" y="397" type="line"/>
      <point x="253" y="282"/>
      <point x="265" y="170"/>
      <point x="265" y="55" type="curve" smooth="yes"/>
      <point x="265" y="35"/>
      <point x="258" y="2"/>
      <point x="231" y="2" type="curve" smooth="yes"/>
      <point x="186" y="2"/>
      <point x="186" y="94"/>
      <point x="186" y="125" type="curve" smooth="yes"/>
      <point x="186" y="250"/>
      <point x="190" y="375"/>
      <point x="190" y="500" type="curve" smooth="yes"/>
      <point x="190" y="525"/>
      <point x="190" y="686"/>
      <point x="184" y="700" type="curve"/>
      <point x="194" y="720"/>
      <point x="194" y="811"/>
      <point x="194" y="836" type="curve" smooth="yes"/>
      <point x="194" y="996"/>
      <point x="179" y="1155"/>
      <point x="179" y="1315" type="curve" smooth="yes"/>
      <point x="179" y="1333"/>
      <point x="194" y="1354"/>
      <point x="214" y="1354" type="curve" smooth="yes"/>
      <point x="253" y="1354"/>
      <point x="255" y="1272"/>
      <point x="255" y="1235" type="curve" smooth="yes"/>
      <point x="255" y="1069"/>
      <point x="247" y="895"/>
      <point x="247" y="735" type="curve" smooth="yes"/>
      <point x="247" y="712"/>
      <point x="366" y="711"/>
      <point x="404" y="711" type="curve" smooth="yes"/>
      <point x="411" y="711" type="line" smooth="yes"/>
      <point x="460" y="711"/>
      <point x="485" y="725"/>
      <point x="485" y="778" type="curve" smooth="yes"/>
      <point x="485" y="966"/>
      <point x="458" y="1155"/>
      <point x="458" y="1343" type="curve" smooth="yes"/>
      <point x="458" y="1361"/>
      <point x="477" y="1374"/>
      <point x="493" y="1374" type="curve" smooth="yes"/>
      <point x="499" y="1374"/>
      <point x="522" y="1364"/>
      <point x="530" y="1362" type="curve"/>
      <point x="530" y="1043"/>
      <point x="556" y="725"/>
      <point x="556" y="406" type="curve" smooth="yes"/>
      <point x="556" y="271"/>
      <point x="559" y="135"/>
      <point x="569" y="0" type="curve"/>
      <point x="556" y="-23" type="line"/>
      <point x="554" y="-5"/>
      <point x="507" y="-2"/>
    </contour>
  </outline>
</glyph>
<glyph name="n" format="1">
  <advance width="1000"/>
  <unicode hex="006E"/>
  <outline>
    <contour>
      <point x="506" y="1356" type="move" name="top"/>
    </contour>
    <contour>
      <point x="544" y="418" type="curve"/>
      <point x="536" y="428"/>
      <point x="495" y="553"/>
      <point x="489" y="571" type="curve" smooth="yes"/>
      <point x="460" y="661"/>
      <point x="304" y="1143"/>
      <point x="257" y="1188" type="curve"/>
      <point x="245" y="1141"/>
      <point x="241" y="1091"/>
      <point x="241" y="1044" type="curve" smooth="yes"/>
      <point x="241" y="989"/>
      <point x="245" y="936"/>
      <point x="245" y="883" type="curve" smooth="yes"/>
      <point x="245" y="850"/>
      <point x="241" y="817"/>
      <point x="241" y="784" type="curve" smooth="yes"/>
      <point x="241" y="737"/>
      <point x="247" y="688"/>
      <point x="249" y="641" type="curve"/>
      <point x="243" y="641" type="line"/>
      <point x="243" y="586"/>
      <point x="245" y="295"/>
      <point x="257" y="264" type="curve"/>
      <point x="257" y="80" type="line"/>
      <point x="265" y="66"/>
      <point x="265" y="53"/>
      <point x="265" y="37" type="curve" smooth="yes"/>
      <point x="265" y="17"/>
      <point x="250" y="-4"/>
      <point x="227" y="-4" type="curve" smooth="yes"/>
      <point x="186" y="-4"/>
      <point x="184" y="79"/>
      <point x="184" y="106" type="curve" smooth="yes"/>
      <point x="184" y="151"/>
      <point x="192" y="195"/>
      <point x="192" y="240" type="curve" smooth="yes"/>
      <point x="192" y="437"/>
      <point x="179" y="632"/>
      <point x="179" y="829" type="curve" smooth="yes"/>
      <point x="179" y="950"/>
      <point x="192" y="1071"/>
      <point x="192" y="1192" type="curve" smooth="yes"/>
      <point x="192" y="1218" type="line" smooth="yes"/>
      <point x="192" y="1264"/>
      <point x="195" y="1321"/>
      <point x="229" y="1350" type="curve"/>
      <point x="235" y="1343" type="line"/>
      <point x="255" y="1348" type="line"/>
      <point x="280" y="1338"/>
      <point x="282" y="1317"/>
      <point x="288" y="1294" type="curve" smooth="yes"/>
      <point x="351" y="1030"/>
      <point x="497" y="782"/>
      <point x="581" y="520" type="curve" smooth="yes"/>
      <point x="622" y="391"/>
      <point x="636" y="244"/>
      <point x="706" y="125" type="curve"/>
      <point x="710" y="131" type="line"/>
      <point x="749" y="502"/>
      <point x="757" y="874"/>
      <point x="757" y="1247" type="curve" smooth="yes"/>
      <point x="757" y="1263"/>
      <point x="753" y="1280"/>
      <point x="753" y="1298" type="curve" smooth="yes"/>
      <point x="753" y="1316"/>
      <point x="757" y="1341"/>
      <point x="782" y="1341" type="curve" smooth="yes"/>
      <point x="811" y="1341"/>
      <point x="827" y="1307"/>
      <point x="827" y="1282" type="curve" smooth="yes"/>
      <point x="827" y="1145" type="line"/>
      <point x="816" y="1128" type="line"/>
      <point x="816" y="999"/>
      <point x="784" y="72"/>
      <point x="751" y="6" type="curve"/>
      <point x="744" y="5"/>
      <point x="729" y="1"/>
      <point x="716" y="-3" type="curve"/>
      <point x="716" y="-4" type="line"/>
      <point x="715" y="-3" type="line"/>
      <point x="705" y="-6"/>
      <point x="696" y="-8"/>
      <point x="693" y="-8" type="curve" smooth="yes"/>
      <point x="658" y="-8"/>
      <point x="660" y="47"/>
      <point x="648" y="70" type="curve"/>
      <point x="650" y="76" type="line"/>
      <point x="632" y="193"/>
      <point x="579" y="305"/>
    </contour>
  </outline>
</glyph>
<glyph name="q" format="1">
  <advance width="840"/>
  <unicode hex="0071"/>
  <outline>
    <contour>
      <point x="239" y="664" type="curve" smooth="yes"/>
      <point x="239" y="575" type="line" smooth="yes"/>
      <point x="239" y="374"/>
      <point x="248" y="-14"/>
      <point x="398" y="-14" type="curve" smooth="yes"/>
      <point x="418" y="-14"/>
      <point x="438" y="-2"/>
      <point x="458" y="-2" type="curve" smooth="yes"/>
      <point x="548" y="-2"/>
      <point x="601" y="436"/>
      <point x="601" y="514" type="curve" smooth="yes"/>
      <point x="601" y="872" type="line" smooth="yes"/>
      <point x="601" y="1024"/>
      <point x="585" y="1315"/>
      <point x="376" y="1315" type="curve" smooth="yes"/>
      <point x="243" y="1315"/>
      <point x="232" y="802"/>
      <point x="232" y="702" type="curve" smooth="yes"/>
      <point x="232" y="690"/>
      <point x="239" y="676"/>
    </contour>
    <contour>
      <point x="470" y="-401" type="curve"/>
      <point x="470" y="-288"/>
      <point x="443" y="-179"/>
      <point x="423" y="-68" type="curve"/>
      <point x="286" y="-41"/>
      <point x="222" y="8"/>
      <point x="202" y="227" type="curve" smooth="yes"/>
      <point x="186" y="387"/>
      <point x="179" y="547"/>
      <point x="179" y="707" type="curve" smooth="yes"/>
      <point x="179" y="716" type="line" smooth="yes"/>
      <point x="179" y="870"/>
      <point x="181" y="1356"/>
      <point x="382" y="1368" type="curve"/>
      <point x="411" y="1356"/>
      <point x="441" y="1353"/>
      <point x="470" y="1341" type="curve" smooth="yes"/>
      <point x="654" y="1255"/>
      <point x="663" y="991"/>
      <point x="663" y="817" type="curve" smooth="yes"/>
      <point x="663" y="721" type="line" smooth="yes"/>
      <point x="663" y="586"/>
      <point x="628" y="29"/>
      <point x="519" y="-39" type="curve" smooth="yes"/>
      <point x="507" y="-47"/>
      <point x="480" y="-52"/>
      <point x="480" y="-70" type="curve" smooth="yes"/>
      <point x="480" y="-168"/>
      <point x="509" y="-269"/>
      <point x="529" y="-365" type="curve"/>
      <point x="556" y="-392"/>
      <point x="632" y="-359"/>
      <point x="632" y="-408" type="curve" smooth="yes"/>
      <point x="632" y="-424"/>
      <point x="621" y="-434"/>
      <point x="605" y="-434" type="curve" smooth="yes"/>
      <point x="572" y="-434"/>
      <point x="493" y="-426"/>
    </contour>
  </outline>
</glyph>
<glyph name="r" format="1">
  <advance width="660"/>
  <unicode hex="0072"/>
  <outline>
    <contour>
      <point x="326" y="1356" type="move" name="top"/>
    </contour>
    <contour>
      <point x="245" y="764" type="curve"/>
      <point x="249" y="760" type="line"/>
      <point x="360" y="760"/>
      <point x="399" y="1016"/>
      <point x="399" y="1098" type="curve" smooth="yes"/>
      <point x="399" y="1196"/>
      <point x="388" y="1313"/>
      <point x="261" y="1313" type="curve" smooth="yes"/>
      <point x="243" y="1313"/>
      <point x="237" y="1272"/>
      <point x="237" y="1260" type="curve" smooth="yes"/>
      <point x="237" y="1094"/>
      <point x="245" y="930"/>
    </contour>
    <contour>
      <point x="489" y="-25" type="curve" smooth="yes"/>
      <point x="411" y="61"/>
      <point x="353" y="709"/>
      <point x="290" y="709" type="curve" smooth="yes"/>
      <point x="282" y="709" type="line" smooth="yes"/>
      <point x="262" y="709"/>
      <point x="237" y="707"/>
      <point x="237" y="680" type="curve" smooth="yes"/>
      <point x="237" y="530"/>
      <point x="247" y="381"/>
      <point x="255" y="231" type="curve" smooth="yes"/>
      <point x="257" y="184"/>
      <point x="260" y="57"/>
      <point x="272" y="16" type="curve"/>
      <point x="257" y="-18" type="line"/>
      <point x="227" y="-18" type="line"/>
      <point x="212" y="-2" type="line"/>
      <point x="196" y="428"/>
      <point x="179" y="858"/>
      <point x="179" y="1288" type="curve" smooth="yes"/>
      <point x="179" y="1321"/>
      <point x="181" y="1366"/>
      <point x="224" y="1366" type="curve" smooth="yes"/>
      <point x="349" y="1366"/>
      <point x="454" y="1304"/>
      <point x="454" y="1167" type="curve" smooth="yes"/>
      <point x="454" y="1018" type="line" smooth="yes"/>
      <point x="454" y="922"/>
      <point x="347" y="751"/>
      <point x="347" y="741" type="curve" smooth="yes"/>
      <point x="347" y="733"/>
      <point x="499" y="103"/>
      <point x="509" y="78" type="curve" smooth="yes"/>
      <point x="519" y="51"/>
      <point x="542" y="23"/>
      <point x="542" y="-6" type="curve" smooth="yes"/>
      <point x="542" y="-20"/>
      <point x="535" y="-35"/>
      <point x="519" y="-35" type="curve" smooth="yes"/>
      <point x="515" y="-35"/>
      <point x="495" y="-27"/>
    </contour>
  </outline>
</glyph>
<glyph name="s" format="1">
  <advance width="660"/>
  <unicode hex="0073"/>
  <outline>
    <contour>
      <point x="346" y="1356" type="move" name="top"/>
    </contour>
    <contour>
      <point x="406" y="1313" type="curve"/>
      <point x="406" y="1311" type="line"/>
      <point x="408" y="1311" type="line"/>
      <point x="408" y="1313"/>
      <point x="408" y="1313"/>
    </contour>
    <contour>
      <point x="179" y="25" type="curve"/>
      <point x="189" y="41" type="line"/>
      <point x="214" y="39"/>
      <point x="238" y="27"/>
      <point x="263" y="27" type="curve" smooth="yes"/>
      <point x="396" y="27"/>
      <point x="425" y="258"/>
      <point x="425" y="356" type="curve" smooth="yes"/>
      <point x="425" y="651"/>
      <point x="179" y="795"/>
      <point x="179" y="1098" type="curve" smooth="yes"/>
      <point x="179" y="1188"/>
      <point x="224" y="1378"/>
      <point x="341" y="1378" type="curve" smooth="yes"/>
      <point x="368" y="1378"/>
      <point x="419" y="1352"/>
      <point x="419" y="1321" type="curve" smooth="yes"/>
      <point x="419" y="1309"/>
      <point x="400" y="1305"/>
      <point x="392" y="1305" type="curve" smooth="yes"/>
      <point x="376" y="1305"/>
      <point x="365" y="1317"/>
      <point x="349" y="1317" type="curve" smooth="yes"/>
      <point x="259" y="1317"/>
      <point x="232" y="1158"/>
      <point x="232" y="1090" type="curve" smooth="yes"/>
      <point x="232" y="1022"/>
      <point x="253" y="962"/>
      <point x="271" y="899" type="curve"/>
      <point x="286" y="862" type="line"/>
      <point x="397" y="661"/>
      <point x="478" y="578"/>
      <point x="478" y="332" type="curve" smooth="yes"/>
      <point x="478" y="193"/>
      <point x="429" y="-20"/>
      <point x="255" y="-20" type="curve"/>
      <point x="245" y="-25" type="line"/>
      <point x="220" y="-21"/>
      <point x="183" y="-4"/>
    </contour>
  </outline>
</glyph>
<glyph name="u" format="1">
  <advance width="800"/>
  <unicode hex="0075"/>
  <outline>
    <contour>
      <point x="406" y="1356" type="move" name="top"/>
    </contour>
    <contour>
      <point x="392" y="-31" type="curve" smooth="yes"/>
      <point x="345" y="-30"/>
      <point x="288" y="6"/>
      <point x="259" y="41" type="curve" smooth="yes"/>
      <point x="171" y="152"/>
      <point x="202" y="1098"/>
      <point x="175" y="1319" type="curve"/>
      <point x="188" y="1348" type="line"/>
      <point x="235" y="1342"/>
      <point x="235" y="1270"/>
      <point x="235" y="1235" type="curve" smooth="yes"/>
      <point x="241" y="692" type="line"/>
      <point x="241" y="547"/>
      <point x="263" y="403"/>
      <point x="263" y="258" type="curve" smooth="yes"/>
      <point x="263" y="158"/>
      <point x="282" y="25"/>
      <point x="417" y="25" type="curve" smooth="yes"/>
      <point x="521" y="25"/>
      <point x="530" y="340"/>
      <point x="540" y="496" type="curve"/>
      <point x="548" y="772"/>
      <point x="554" y="1053"/>
      <point x="554" y="1329" type="curve" smooth="yes"/>
      <point x="554" y="1341"/>
      <point x="550" y="1354"/>
      <point x="550" y="1366" type="curve" smooth="yes"/>
      <point x="550" y="1386"/>
      <point x="569" y="1389"/>
      <point x="585" y="1389" type="curve" smooth="yes"/>
      <point x="618" y="1389"/>
      <point x="620" y="1379"/>
      <point x="620" y="1305" type="curve" smooth="yes"/>
      <point x="620" y="1239"/>
      <point x="617" y="1135"/>
      <point x="607" y="1096" type="curve" smooth="yes"/>
      <point x="609" y="1092"/>
      <point x="609" y="1087"/>
      <point x="609" y="1083" type="curve" smooth="yes"/>
      <point x="609" y="1030"/>
      <point x="599" y="973"/>
      <point x="599" y="920" type="curve" smooth="yes"/>
      <point x="599" y="906"/>
      <point x="601" y="893"/>
      <point x="601" y="879" type="curve" smooth="yes"/>
      <point x="578" y="592"/>
      <point x="640" y="-31"/>
    </contour>
  </outline>
</glyph>
<glyph name="bar" format="1">
  <advance width="520"/>
  <unicode hex="007C"/>
  <outline>
    <contour>
      <point x="261" y="2" type="line"/>
      <point x="254" y="-68" type="line"/>
      <point x="254" y="-84"/>
      <point x="230" y="-88"/>
      <point x="220" y="-88" type="curve" smooth="yes"/>
      <point x="195" y="-88"/>
      <point x="195" y="-84"/>
      <point x="195" y="-72" type="curve" smooth="yes"/>
      <point x="195" y="110"/>
      <point x="220" y="289"/>
      <point x="220" y="471" type="curve" smooth="yes"/>
      <point x="220" y="809"/>
      <point x="252" y="1143"/>
      <point x="252" y="1487" type="curve" smooth="yes"/>
      <point x="252" y="1514"/>
      <point x="252" y="1552"/>
      <point x="293" y="1552" type="curve" smooth="yes"/>
      <point x="303" y="1552"/>
      <point x="306" y="1542"/>
      <point x="306" y="1530" type="curve" smooth="yes"/>
      <point x="306" y="1149"/>
      <point x="267" y="754"/>
      <point x="267" y="371" type="curve" smooth="yes"/>
      <point x="267" y="330"/>
      <point x="263" y="82"/>
      <point x="261" y="51" type="curve"/>
    </contour>
  </outline>
</glyph>
<glyph name="asciitilde" format="1">
  <advance width="800"/>
  <unicode hex="007E"/>
  <outline>
    <contour>
      <point x="179" y="1055" type="curve" smooth="yes"/>
      <point x="179" y="1133"/>
      <point x="218" y="1200"/>
      <point x="304" y="1200" type="curve" smooth="yes"/>
      <point x="372" y="1200"/>
      <point x="423" y="1075"/>
      <point x="478" y="1075" type="curve" smooth="yes"/>
      <point x="484" y="1075"/>
      <point x="488" y="1075"/>
      <point x="494" y="1077" type="curve"/>
      <point x="508" y="1073" type="line"/>
      <point x="518" y="1100"/>
      <point x="555" y="1094"/>
      <point x="555" y="1149" type="curve" smooth="yes"/>
      <point x="555" y="1163"/>
      <point x="545" y="1174"/>
      <point x="543" y="1188" type="curve"/>
      <point x="547" y="1196"/>
      <point x="556" y="1200"/>
      <point x="564" y="1200" type="curve" smooth="yes"/>
      <point x="599" y="1200"/>
      <point x="611" y="1159"/>
      <point x="611" y="1130" type="curve" smooth="yes"/>
      <point x="611" y="1073"/>
      <point x="559" y="1022"/>
      <point x="502" y="1022" type="curve" smooth="yes"/>
      <point x="422" y="1022"/>
      <point x="367" y="1088"/>
      <point x="320" y="1143" type="curve" smooth="yes"/>
      <point x="312" y="1149"/>
      <point x="304" y="1151"/>
      <point x="296" y="1151" type="curve" smooth="yes"/>
      <point x="264" y="1151"/>
      <point x="230" y="1115"/>
      <point x="230" y="1094" type="curve" smooth="yes"/>
      <point x="230" y="1080"/>
      <point x="240" y="1066"/>
      <point x="240" y="1051" type="curve"/>
      <point x="232" y="1040"/>
      <point x="213" y="1025"/>
      <point x="198" y="1025" type="curve" smooth="yes"/>
      <point x="187" y="1025"/>
      <point x="179" y="1032"/>
    </contour>
  </outline>
</glyph>
<glyph name="exclamdown" format="1">
  <advance width="560"/>
  <unicode hex="00A1"/>
  <outline>
    <contour>
      <point x="284" y="700" type="curve" smooth="yes"/>
      <point x="284" y="1192" type="line" smooth="yes"/>
      <point x="284" y="1194"/>
      <point x="286" y="1198"/>
      <point x="286" y="1200" type="curve"/>
      <point x="313" y="1200" type="line"/>
      <point x="307" y="1190" type="line"/>
      <point x="319" y="1161"/>
      <point x="323" y="1114"/>
      <point x="323" y="1069" type="curve" smooth="yes"/>
      <point x="323" y="1036"/>
      <point x="321" y="1004"/>
      <point x="321" y="979" type="curve" smooth="yes"/>
      <point x="321" y="651"/>
      <point x="364" y="328"/>
      <point x="364" y="0" type="curve" smooth="yes"/>
      <point x="364" y="-16"/>
      <point x="354" y="-27"/>
      <point x="338" y="-27" type="curve" smooth="yes"/>
      <point x="311" y="-27"/>
      <point x="274" y="0"/>
      <point x="274" y="29" type="curve" smooth="yes"/>
      <point x="274" y="135"/>
      <point x="289" y="239"/>
      <point x="289" y="350" type="curve" smooth="yes"/>
      <point x="289" y="467"/>
      <point x="284" y="583"/>
    </contour>
    <contour>
      <point x="227" y="1483" type="curve"/>
      <point x="264" y="1557"/>
      <point x="291" y="1523"/>
      <point x="299" y="1548" type="curve"/>
      <point x="332" y="1546"/>
      <point x="350" y="1528"/>
      <point x="350" y="1495" type="curve" smooth="yes"/>
      <point x="350" y="1456"/>
      <point x="332" y="1419"/>
      <point x="289" y="1419" type="curve" smooth="yes"/>
      <point x="262" y="1419"/>
      <point x="227" y="1456"/>
    </contour>
  </outline>
</glyph>
<glyph name="sterling" format="1">
  <advance width="860"/>
  <unicode hex="00A3"/>
  <outline>
    <contour>
      <point x="123" y="49" type="curve" smooth="yes"/>
      <point x="123" y="90"/>
      <point x="213" y="115"/>
      <point x="242" y="135" type="curve" smooth="yes"/>
      <point x="297" y="176"/>
      <point x="313" y="313"/>
      <point x="313" y="379" type="curve" smooth="yes"/>
      <point x="313" y="553"/>
      <point x="240" y="721"/>
      <point x="201" y="889" type="curve" smooth="yes"/>
      <point x="197" y="889"/>
      <point x="195" y="887"/>
      <point x="191" y="887" type="curve" smooth="yes"/>
      <point x="177" y="887"/>
      <point x="162" y="897"/>
      <point x="162" y="915" type="curve" smooth="yes"/>
      <point x="162" y="931"/>
      <point x="170" y="944"/>
      <point x="188" y="944" type="curve"/>
      <point x="188" y="1042"/>
      <point x="164" y="1137"/>
      <point x="164" y="1235" type="curve" smooth="yes"/>
      <point x="164" y="1375"/>
      <point x="166" y="1606"/>
      <point x="341" y="1606" type="curve" smooth="yes"/>
      <point x="444" y="1606"/>
      <point x="494" y="1454"/>
      <point x="494" y="1399" type="curve"/>
      <point x="475" y="1378" type="line"/>
      <point x="442" y="1378"/>
      <point x="442" y="1402"/>
      <point x="428" y="1425" type="curve"/>
      <point x="428" y="1487"/>
      <point x="386" y="1562"/>
      <point x="328" y="1562" type="curve" smooth="yes"/>
      <point x="247" y="1562"/>
      <point x="215" y="1354"/>
      <point x="215" y="1268" type="curve" smooth="yes"/>
      <point x="215" y="1189"/>
      <point x="229" y="950"/>
      <point x="248" y="950" type="curve" smooth="yes"/>
      <point x="320" y="950"/>
      <point x="391" y="977"/>
      <point x="463" y="977" type="curve" smooth="yes"/>
      <point x="477" y="977"/>
      <point x="492" y="966"/>
      <point x="492" y="950" type="curve" smooth="yes"/>
      <point x="492" y="934"/>
      <point x="487" y="918"/>
      <point x="467" y="918" type="curve" smooth="yes"/>
      <point x="393" y="918"/>
      <point x="320" y="913"/>
      <point x="248" y="899" type="curve"/>
      <point x="303" y="773"/>
      <point x="363" y="541"/>
      <point x="363" y="375" type="curve" smooth="yes"/>
      <point x="363" y="283"/>
      <point x="332" y="227"/>
      <point x="307" y="143" type="curve"/>
      <point x="407" y="143"/>
      <point x="504" y="98"/>
      <point x="604" y="98" type="curve" smooth="yes"/>
      <point x="639" y="98"/>
      <point x="661" y="101"/>
      <point x="694" y="115" type="curve"/>
      <point x="723" y="94" type="line"/>
      <point x="723" y="49"/>
      <point x="658" y="49"/>
      <point x="627" y="49" type="curve" smooth="yes"/>
      <point x="596" y="49"/>
      <point x="564" y="55"/>
      <point x="533" y="55" type="curve"/>
      <point x="526" y="51" type="line"/>
      <point x="481" y="78"/>
      <point x="346" y="90"/>
      <point x="346" y="90" type="curve"/>
      <point x="264" y="90"/>
      <point x="224" y="68"/>
      <point x="154" y="27" type="curve"/>
      <point x="144" y="29"/>
      <point x="123" y="37"/>
    </contour>
  </outline>
</glyph>
<glyph name="currency" format="1">
  <advance width="940"/>
  <unicode hex="00A4"/>
  <outline>
    <contour>
      <point x="287" y="412" type="curve"/>
      <point x="287" y="316"/>
      <point x="379" y="283"/>
      <point x="461" y="283" type="curve" smooth="yes"/>
      <point x="672" y="283"/>
      <point x="711" y="624"/>
      <point x="711" y="780" type="curve" smooth="yes"/>
      <point x="711" y="839"/>
      <point x="686" y="1063"/>
      <point x="637" y="1094" type="curve"/>
      <point x="612" y="1094"/>
      <point x="598" y="1118"/>
      <point x="598" y="1141" type="curve"/>
      <point x="569" y="1182"/>
      <point x="502" y="1204"/>
      <point x="453" y="1204" type="curve" smooth="yes"/>
      <point x="416" y="1204"/>
      <point x="324" y="1131"/>
      <point x="320" y="1094" type="curve"/>
      <point x="338" y="1075" type="line"/>
      <point x="338" y="1009"/>
      <point x="305" y="1047"/>
      <point x="291" y="1024" type="curve" smooth="yes"/>
      <point x="264" y="985"/>
      <point x="236" y="749"/>
      <point x="236" y="696" type="curve" smooth="yes"/>
      <point x="236" y="684"/>
      <point x="238" y="671"/>
      <point x="240" y="659" type="curve"/>
      <point x="234" y="634"/>
      <point x="234" y="611"/>
      <point x="234" y="586" type="curve" smooth="yes"/>
      <point x="234" y="525"/>
      <point x="238" y="457"/>
    </contour>
    <contour>
      <point x="711" y="258" type="curve"/>
      <point x="697" y="283"/>
      <point x="684" y="309"/>
      <point x="668" y="334" type="curve"/>
      <point x="605" y="264"/>
      <point x="516" y="231"/>
      <point x="424" y="231" type="curve" smooth="yes"/>
      <point x="356" y="231"/>
      <point x="287" y="277"/>
      <point x="244" y="326" type="curve"/>
      <point x="215" y="326"/>
      <point x="205" y="227"/>
      <point x="156" y="227" type="curve" smooth="yes"/>
      <point x="121" y="227"/>
      <point x="115" y="248"/>
      <point x="115" y="279" type="curve" smooth="yes"/>
      <point x="115" y="291"/>
      <point x="195" y="360"/>
      <point x="205" y="395" type="curve"/>
      <point x="170" y="452"/>
      <point x="170" y="526"/>
      <point x="170" y="592" type="curve" smooth="yes"/>
      <point x="170" y="688"/>
      <point x="183" y="1009"/>
      <point x="244" y="1075" type="curve"/>
      <point x="244" y="1116"/>
      <point x="146" y="1185"/>
      <point x="146" y="1212" type="curve" smooth="yes"/>
      <point x="146" y="1226"/>
      <point x="156" y="1235"/>
      <point x="170" y="1235" type="curve" smooth="yes"/>
      <point x="221" y="1235"/>
      <point x="244" y="1170"/>
      <point x="277" y="1141" type="curve"/>
      <point x="300" y="1159"/>
      <point x="388" y="1264"/>
      <point x="408" y="1264" type="curve" smooth="yes"/>
      <point x="496" y="1264"/>
      <point x="557" y="1239"/>
      <point x="629" y="1190" type="curve"/>
      <point x="662" y="1194"/>
      <point x="703" y="1329"/>
      <point x="758" y="1329" type="curve"/>
      <point x="787" y="1298" type="line"/>
      <point x="783" y="1263"/>
      <point x="693" y="1186"/>
      <point x="693" y="1143" type="curve" smooth="yes"/>
      <point x="693" y="1129"/>
      <point x="721" y="1050"/>
      <point x="727" y="1032" type="curve" smooth="yes"/>
      <point x="752" y="954"/>
      <point x="783" y="856"/>
      <point x="783" y="774" type="curve" smooth="yes"/>
      <point x="783" y="692"/>
      <point x="764" y="610"/>
      <point x="744" y="530" type="curve" smooth="yes"/>
      <point x="734" y="489"/>
      <point x="715" y="438"/>
      <point x="715" y="397" type="curve" smooth="yes"/>
      <point x="715" y="327"/>
      <point x="793" y="281"/>
      <point x="793" y="248" type="curve" smooth="yes"/>
      <point x="793" y="232"/>
      <point x="784" y="219"/>
      <point x="766" y="219" type="curve" smooth="yes"/>
      <point x="739" y="219"/>
      <point x="711" y="225"/>
    </contour>
  </outline>
</glyph>
<glyph name="yen" format="1">
  <advance width="920"/>
  <unicode hex="00A5"/>
  <outline>
    <contour>
      <point x="393" y="41" type="curve"/>
      <point x="401" y="59"/>
      <point x="420" y="274"/>
      <point x="420" y="307" type="curve" smooth="yes"/>
      <point x="420" y="463"/>
      <point x="436" y="618"/>
      <point x="436" y="774" type="curve" smooth="yes"/>
      <point x="436" y="782"/>
      <point x="434" y="791"/>
      <point x="432" y="797" type="curve"/>
      <point x="346" y="797"/>
      <point x="262" y="792"/>
      <point x="176" y="786" type="curve"/>
      <point x="162" y="794"/>
      <point x="149" y="811"/>
      <point x="141" y="825" type="curve"/>
      <point x="149" y="852" type="line"/>
      <point x="247" y="852"/>
      <point x="344" y="854"/>
      <point x="442" y="860" type="curve"/>
      <point x="446" y="891"/>
      <point x="446" y="923"/>
      <point x="446" y="954" type="curve" smooth="yes"/>
      <point x="446" y="968"/>
      <point x="440" y="981"/>
      <point x="424" y="981" type="curve" smooth="yes"/>
      <point x="375" y="981"/>
      <point x="325" y="973"/>
      <point x="276" y="973" type="curve" smooth="yes"/>
      <point x="253" y="973"/>
      <point x="162" y="973"/>
      <point x="162" y="1010" type="curve"/>
      <point x="176" y="1032" type="line"/>
      <point x="231" y="1032"/>
      <point x="279" y="1030"/>
      <point x="336" y="1030" type="curve" smooth="yes"/>
      <point x="373" y="1030"/>
      <point x="436" y="1032"/>
      <point x="446" y="1044" type="curve"/>
      <point x="446" y="1083" type="line"/>
      <point x="387" y="1118"/>
      <point x="160" y="1620"/>
      <point x="43" y="1716" type="curve"/>
      <point x="43" y="1747" type="line"/>
      <point x="49" y="1749"/>
      <point x="63" y="1755"/>
      <point x="69" y="1755" type="curve" smooth="yes"/>
      <point x="116" y="1755"/>
      <point x="243" y="1542"/>
      <point x="274" y="1497" type="curve"/>
      <point x="276" y="1472"/>
      <point x="344" y="1381"/>
      <point x="360" y="1352" type="curve" smooth="yes"/>
      <point x="376" y="1323"/>
      <point x="452" y="1173"/>
      <point x="477" y="1171" type="curve"/>
      <point x="500" y="1216"/>
      <point x="514" y="1264"/>
      <point x="528" y="1311" type="curve" smooth="yes"/>
      <point x="553" y="1391"/>
      <point x="657" y="1753"/>
      <point x="690" y="1794" type="curve" smooth="yes"/>
      <point x="700" y="1806"/>
      <point x="707" y="1810"/>
      <point x="723" y="1810" type="curve" smooth="yes"/>
      <point x="741" y="1810"/>
      <point x="757" y="1798"/>
      <point x="757" y="1780" type="curve"/>
      <point x="683" y="1608"/>
      <point x="649" y="1421"/>
      <point x="583" y="1245" type="curve"/>
      <point x="583" y="1173"/>
      <point x="520" y="1110"/>
      <point x="518" y="1047" type="curve"/>
      <point x="534" y="1039"/>
      <point x="551" y="1034"/>
      <point x="569" y="1034" type="curve" smooth="yes"/>
      <point x="643" y="1034"/>
      <point x="716" y="1044"/>
      <point x="790" y="1044" type="curve" smooth="yes"/>
      <point x="804" y="1044"/>
      <point x="821" y="1011"/>
      <point x="827" y="1001" type="curve"/>
      <point x="825" y="976"/>
      <point x="716" y="975"/>
      <point x="682" y="975" type="curve" smooth="yes"/>
      <point x="518" y="975" type="line"/>
      <point x="518" y="938"/>
      <point x="514" y="901"/>
      <point x="514" y="864" type="curve"/>
      <point x="741" y="864" type="line" smooth="yes"/>
      <point x="753" y="864"/>
      <point x="768" y="866"/>
      <point x="780" y="866" type="curve" smooth="yes"/>
      <point x="803" y="866"/>
      <point x="823" y="860"/>
      <point x="823" y="821" type="curve" smooth="yes"/>
      <point x="823" y="805"/>
      <point x="800" y="791"/>
      <point x="786" y="791" type="curve" smooth="yes"/>
      <point x="778" y="791" type="line"/>
      <point x="782" y="793" type="line"/>
      <point x="772" y="795"/>
      <point x="757" y="801"/>
      <point x="745" y="801" type="curve" smooth="yes"/>
      <point x="518" y="801" type="line"/>
      <point x="510" y="797" type="line"/>
      <point x="510" y="578"/>
      <point x="479" y="362"/>
      <point x="479" y="143" type="curve" smooth="yes"/>
      <point x="479" y="125"/>
      <point x="481" y="106"/>
      <point x="481" y="90" type="curve" smooth="yes"/>
      <point x="481" y="57"/>
      <point x="475" y="16"/>
      <point x="434" y="16" type="curve" smooth="yes"/>
      <point x="418" y="16"/>
      <point x="393" y="18"/>
    </contour>
  </outline>
</glyph>
<glyph name="section" format="1">
  <advance width="660"/>
  <unicode hex="00A7"/>
  <outline>
    <contour>
      <point x="433" y="520" type="curve" smooth="yes"/>
      <point x="433" y="674"/>
      <point x="321" y="776"/>
      <point x="249" y="897" type="curve"/>
      <point x="229" y="848"/>
      <point x="224" y="793"/>
      <point x="224" y="760" type="curve" smooth="yes"/>
      <point x="224" y="608"/>
      <point x="332" y="510"/>
      <point x="406" y="391" type="curve"/>
      <point x="426" y="438"/>
      <point x="433" y="485"/>
    </contour>
    <contour>
      <point x="486" y="537" type="curve" smooth="yes"/>
      <point x="486" y="482"/>
      <point x="474" y="411"/>
      <point x="439" y="354" type="curve"/>
      <point x="457" y="315"/>
      <point x="470" y="272"/>
      <point x="470" y="223" type="curve" smooth="yes"/>
      <point x="470" y="133"/>
      <point x="425" y="-57"/>
      <point x="308" y="-57" type="curve" smooth="yes"/>
      <point x="281" y="-57"/>
      <point x="230" y="-31"/>
      <point x="230" y="0" type="curve" smooth="yes"/>
      <point x="230" y="12"/>
      <point x="249" y="16"/>
      <point x="257" y="16" type="curve" smooth="yes"/>
      <point x="273" y="16"/>
      <point x="284" y="4"/>
      <point x="300" y="4" type="curve" smooth="yes"/>
      <point x="390" y="4"/>
      <point x="416" y="135"/>
      <point x="416" y="190" type="curve" smooth="yes"/>
      <point x="416" y="237"/>
      <point x="407" y="287"/>
      <point x="384" y="332" type="curve" smooth="yes"/>
      <point x="275" y="547"/>
      <point x="171" y="602"/>
      <point x="171" y="784" type="curve" smooth="yes"/>
      <point x="171" y="835"/>
      <point x="181" y="906"/>
      <point x="216" y="961" type="curve"/>
      <point x="198" y="1002"/>
      <point x="187" y="1047"/>
      <point x="187" y="1098" type="curve" smooth="yes"/>
      <point x="187" y="1188"/>
      <point x="232" y="1378"/>
      <point x="349" y="1378" type="curve" smooth="yes"/>
      <point x="376" y="1378"/>
      <point x="427" y="1352"/>
      <point x="427" y="1321" type="curve" smooth="yes"/>
      <point x="427" y="1309"/>
      <point x="408" y="1305"/>
      <point x="400" y="1305" type="curve" smooth="yes"/>
      <point x="384" y="1305"/>
      <point x="373" y="1317"/>
      <point x="357" y="1317" type="curve" smooth="yes"/>
      <point x="267" y="1317"/>
      <point x="240" y="1158"/>
      <point x="240" y="1090" type="curve" smooth="yes"/>
      <point x="240" y="1043"/>
      <point x="250" y="993"/>
      <point x="275" y="948" type="curve" smooth="yes"/>
      <point x="381" y="753"/>
      <point x="486" y="703"/>
    </contour>
  </outline>
</glyph>
<glyph name="plusminus" format="1">
  <advance width="800"/>
  <unicode hex="00B1"/>
  <outline>
    <contour>
      <point x="346" y="385" type="curve" smooth="yes"/>
      <point x="346" y="449" type="line" smooth="yes"/>
      <point x="346" y="484"/>
      <point x="350" y="518"/>
      <point x="350" y="555" type="curve" smooth="yes"/>
      <point x="350" y="606"/>
      <point x="351" y="623"/>
      <point x="281" y="623" type="curve" smooth="yes"/>
      <point x="250" y="623"/>
      <point x="222" y="612"/>
      <point x="191" y="612" type="curve" smooth="yes"/>
      <point x="160" y="612"/>
      <point x="131" y="620"/>
      <point x="131" y="655" type="curve" smooth="yes"/>
      <point x="131" y="673"/>
      <point x="134" y="684"/>
      <point x="154" y="684" type="curve" smooth="yes"/>
      <point x="191" y="684"/>
      <point x="225" y="678"/>
      <point x="262" y="678" type="curve" smooth="yes"/>
      <point x="274" y="678"/>
      <point x="346" y="678"/>
      <point x="346" y="694" type="curve" smooth="yes"/>
      <point x="346" y="762"/>
      <point x="336" y="831"/>
      <point x="336" y="899" type="curve" smooth="yes"/>
      <point x="336" y="930"/>
      <point x="344" y="944"/>
      <point x="377" y="944" type="curve" smooth="yes"/>
      <point x="400" y="944"/>
      <point x="414" y="932"/>
      <point x="414" y="909" type="curve"/>
      <point x="406" y="889" type="line"/>
      <point x="406" y="836"/>
      <point x="414" y="780"/>
      <point x="414" y="727" type="curve" smooth="yes"/>
      <point x="414" y="686"/>
      <point x="434" y="678"/>
      <point x="471" y="678" type="curve" smooth="yes"/>
      <point x="512" y="678"/>
      <point x="553" y="684"/>
      <point x="594" y="684" type="curve" smooth="yes"/>
      <point x="619" y="684"/>
      <point x="658" y="680"/>
      <point x="658" y="647" type="curve" smooth="yes"/>
      <point x="658" y="624"/>
      <point x="643" y="614"/>
      <point x="623" y="614" type="curve" smooth="yes"/>
      <point x="582" y="614"/>
      <point x="541" y="621"/>
      <point x="498" y="621" type="curve" smooth="yes"/>
      <point x="488" y="621" type="line" smooth="yes"/>
      <point x="434" y="621"/>
      <point x="414" y="619"/>
      <point x="414" y="553" type="curve" smooth="yes"/>
      <point x="414" y="483"/>
      <point x="432" y="446"/>
      <point x="432" y="389" type="curve" smooth="yes"/>
      <point x="432" y="366"/>
      <point x="409" y="356"/>
      <point x="389" y="356" type="curve" smooth="yes"/>
      <point x="375" y="356"/>
      <point x="346" y="369"/>
    </contour>
    <contour>
      <point x="572" y="236" type="curve" smooth="yes"/>
      <point x="572" y="226"/>
      <point x="311" y="217"/>
      <point x="219" y="217" type="curve" smooth="yes"/>
      <point x="201" y="217"/>
      <point x="176" y="229"/>
      <point x="176" y="252" type="curve" smooth="yes"/>
      <point x="176" y="262"/>
      <point x="443" y="270"/>
      <point x="527" y="270" type="curve" smooth="yes"/>
      <point x="545" y="270"/>
      <point x="572" y="256"/>
    </contour>
  </outline>
</glyph>
<glyph name="uni00B3" format="1">
  <advance width="680"/>
  <unicode hex="00B3"/>
  <outline>
    <contour>
      <point x="210" y="74" type="curve"/>
      <point x="226" y="84" type="line"/>
      <point x="259" y="82"/>
      <point x="285" y="53"/>
      <point x="314" y="37" type="curve"/>
      <point x="453" y="37"/>
      <point x="470" y="191"/>
      <point x="470" y="297" type="curve" smooth="yes"/>
      <point x="470" y="485"/>
      <point x="465" y="697"/>
      <point x="330" y="844" type="curve"/>
      <point x="324" y="844"/>
      <point x="318" y="842"/>
      <point x="310" y="842" type="curve" smooth="yes"/>
      <point x="298" y="842"/>
      <point x="283" y="844"/>
      <point x="271" y="850" type="curve"/>
      <point x="271" y="858" type="line"/>
      <point x="261" y="868" type="line"/>
      <point x="263" y="893"/>
      <point x="392" y="983"/>
      <point x="392" y="1130" type="curve" smooth="yes"/>
      <point x="392" y="1214"/>
      <point x="382" y="1491"/>
      <point x="261" y="1491" type="curve" smooth="yes"/>
      <point x="161" y="1491"/>
      <point x="175" y="1374"/>
      <point x="126" y="1374" type="curve" smooth="yes"/>
      <point x="110" y="1374"/>
      <point x="93" y="1387"/>
      <point x="91" y="1403" type="curve"/>
      <point x="128" y="1479"/>
      <point x="175" y="1540"/>
      <point x="267" y="1540" type="curve" smooth="yes"/>
      <point x="302" y="1540"/>
      <point x="339" y="1518"/>
      <point x="359" y="1491" type="curve"/>
      <point x="365" y="1489" type="line"/>
      <point x="435" y="1387"/>
      <point x="447" y="1223"/>
      <point x="447" y="1102" type="curve" smooth="yes"/>
      <point x="447" y="1061"/>
      <point x="430" y="1022"/>
      <point x="410" y="987" type="curve"/>
      <point x="394" y="975"/>
      <point x="363" y="912"/>
      <point x="343" y="889" type="curve"/>
      <point x="484" y="834"/>
      <point x="480" y="631"/>
      <point x="509" y="508" type="curve" smooth="yes"/>
      <point x="525" y="438"/>
      <point x="525" y="441"/>
      <point x="525" y="367" type="curve" smooth="yes"/>
      <point x="525" y="236"/>
      <point x="519" y="-2"/>
      <point x="337" y="-2" type="curve" smooth="yes"/>
      <point x="294" y="-2"/>
      <point x="210" y="21"/>
    </contour>
  </outline>
</glyph>
<glyph name="acute" format="1">
  <advance width="620"/>
  <unicode hex="00B4"/>
  <outline>
    <contour>
      <point x="214" y="805" type="move" name="_top"/>
    </contour>
    <contour>
      <point x="187" y="1139" type="curve" smooth="yes"/>
      <point x="187" y="1157"/>
      <point x="410" y="1319"/>
      <point x="441" y="1348" type="curve"/>
      <point x="461" y="1348"/>
      <point x="486" y="1341"/>
      <point x="486" y="1316" type="curve" smooth="yes"/>
      <point x="486" y="1306"/>
      <point x="482" y="1295"/>
      <point x="480" y="1285" type="curve"/>
      <point x="384" y="1242"/>
      <point x="304" y="1177"/>
      <point x="224" y="1109" type="curve"/>
      <point x="206" y="1109"/>
      <point x="187" y="1119"/>
    </contour>
  </outline>
</glyph>
<glyph name="uni00B9" format="1">
  <advance width="700"/>
  <unicode hex="00B9"/>
  <outline>
    <contour>
      <point x="208" y="37" type="curve"/>
      <point x="218" y="57" type="line"/>
      <point x="236" y="57"/>
      <point x="255" y="55"/>
      <point x="273" y="55" type="curve" smooth="yes"/>
      <point x="312" y="55"/>
      <point x="324" y="72"/>
      <point x="324" y="111" type="curve" smooth="yes"/>
      <point x="324" y="502"/>
      <point x="290" y="893"/>
      <point x="265" y="1284" type="curve" smooth="yes"/>
      <point x="265" y="1307"/>
      <point x="267" y="1329"/>
      <point x="267" y="1354" type="curve" smooth="yes"/>
      <point x="267" y="1420"/>
      <point x="255" y="1483"/>
      <point x="173" y="1483" type="curve" smooth="yes"/>
      <point x="157" y="1483"/>
      <point x="142" y="1479"/>
      <point x="126" y="1479" type="curve" smooth="yes"/>
      <point x="112" y="1479"/>
      <point x="91" y="1481"/>
      <point x="91" y="1501" type="curve" smooth="yes"/>
      <point x="91" y="1530"/>
      <point x="244" y="1530"/>
      <point x="271" y="1530" type="curve" smooth="yes"/>
      <point x="289" y="1530"/>
      <point x="304" y="1515"/>
      <point x="304" y="1497" type="curve"/>
      <point x="308" y="1497" type="line"/>
      <point x="304" y="1477"/>
      <point x="302" y="1454"/>
      <point x="302" y="1434" type="curve" smooth="yes"/>
      <point x="302" y="1305"/>
      <point x="333" y="1176"/>
      <point x="333" y="1047" type="curve" smooth="yes"/>
      <point x="333" y="818"/>
      <point x="367" y="589"/>
      <point x="367" y="360" type="curve" smooth="yes"/>
      <point x="367" y="352"/>
      <point x="365" y="342"/>
      <point x="363" y="334" type="curve" smooth="yes"/>
      <point x="371" y="303"/>
      <point x="376" y="143"/>
      <point x="376" y="102" type="curve" smooth="yes"/>
      <point x="376" y="92"/>
      <point x="373" y="82"/>
      <point x="373" y="72" type="curve"/>
      <point x="382" y="66" type="line"/>
      <point x="413" y="66"/>
      <point x="443" y="72"/>
      <point x="474" y="72" type="curve" smooth="yes"/>
      <point x="492" y="72"/>
      <point x="537" y="72"/>
      <point x="537" y="43" type="curve" smooth="yes"/>
      <point x="537" y="18"/>
      <point x="510" y="14"/>
      <point x="492" y="14" type="curve" smooth="yes"/>
      <point x="408" y="14"/>
      <point x="324" y="6"/>
      <point x="240" y="6" type="curve" smooth="yes"/>
      <point x="222" y="6"/>
      <point x="208" y="19"/>
    </contour>
  </outline>
</glyph>
<glyph name="ordmasculine" format="1">
  <advance width="800"/>
  <unicode hex="00BA"/>
  <outline>
    <contour>
      <point x="534" y="484" type="curve" smooth="yes"/>
      <point x="553" y="484"/>
      <point x="579" y="468"/>
      <point x="579" y="449" type="curve" smooth="yes"/>
      <point x="579" y="435"/>
      <point x="254" y="431"/>
      <point x="227" y="431" type="curve" smooth="yes"/>
      <point x="207" y="431"/>
      <point x="184" y="445"/>
      <point x="184" y="466" type="curve" smooth="yes"/>
      <point x="184" y="479"/>
      <point x="509" y="484"/>
    </contour>
    <contour>
      <point x="229" y="954" type="curve"/>
      <point x="232" y="717"/>
      <point x="287" y="598"/>
      <point x="396" y="598" type="curve" smooth="yes"/>
      <point x="512" y="598"/>
      <point x="571" y="679"/>
      <point x="571" y="842" type="curve" smooth="yes"/>
      <point x="571" y="1045"/>
      <point x="549" y="1167"/>
      <point x="507" y="1210" type="curve" smooth="yes"/>
      <point x="451" y="1266"/>
      <point x="407" y="1294"/>
      <point x="372" y="1294" type="curve" smooth="yes"/>
      <point x="288" y="1294"/>
      <point x="241" y="1181"/>
    </contour>
    <contour>
      <point x="634" y="826" type="curve" smooth="yes"/>
      <point x="634" y="718"/>
      <point x="585" y="630"/>
      <point x="486" y="563" type="curve" smooth="yes"/>
      <point x="462" y="547"/>
      <point x="435" y="538"/>
      <point x="405" y="538" type="curve" smooth="yes"/>
      <point x="244" y="538"/>
      <point x="163" y="654"/>
      <point x="163" y="887" type="curve" smooth="yes"/>
      <point x="163" y="1002"/>
      <point x="171" y="1027"/>
      <point x="205" y="1220" type="curve" smooth="yes"/>
      <point x="217" y="1289"/>
      <point x="271" y="1333"/>
      <point x="361" y="1333" type="curve" smooth="yes"/>
      <point x="391" y="1333"/>
      <point x="427" y="1330"/>
      <point x="469" y="1322" type="curve" smooth="yes"/>
      <point x="496" y="1317"/>
      <point x="523" y="1291"/>
      <point x="548" y="1243" type="curve"/>
      <point x="602" y="1156"/>
      <point x="631" y="1018"/>
    </contour>
  </outline>
</glyph>
<glyph name="guillemotright" format="1">
  <advance width="800"/>
  <unicode hex="00BB"/>
  <outline>
    <contour>
      <point x="678" y="698" type="curve" smooth="yes"/>
      <point x="678" y="657"/>
      <point x="441" y="201"/>
      <point x="402" y="127" type="curve" smooth="yes"/>
      <point x="388" y="100"/>
      <point x="327" y="-35"/>
      <point x="298" y="-35" type="curve" smooth="yes"/>
      <point x="288" y="-35"/>
      <point x="257" y="-26"/>
      <point x="257" y="-12" type="curve" smooth="yes"/>
      <point x="257" y="25"/>
      <point x="609" y="586"/>
      <point x="615" y="692" type="curve"/>
      <point x="605" y="706"/>
      <point x="555" y="845"/>
      <point x="547" y="868" type="curve" smooth="yes"/>
      <point x="502" y="991"/>
      <point x="457" y="1114"/>
      <point x="410" y="1235" type="curve" smooth="yes"/>
      <point x="383" y="1303"/>
      <point x="359" y="1377"/>
      <point x="320" y="1438" type="curve"/>
      <point x="322" y="1458"/>
      <point x="343" y="1466"/>
      <point x="361" y="1466" type="curve" smooth="yes"/>
      <point x="377" y="1466"/>
      <point x="412" y="1376"/>
      <point x="418" y="1360" type="curve"/>
      <point x="418" y="1358" type="line"/>
      <point x="449" y="1274"/>
      <point x="678" y="725"/>
    </contour>
    <contour>
      <point x="158" y="4" type="curve"/>
      <point x="146" y="4"/>
      <point x="136" y="0"/>
      <point x="128" y="0" type="curve" smooth="yes"/>
      <point x="114" y="0"/>
      <point x="101" y="27"/>
      <point x="99" y="39" type="curve"/>
      <point x="117" y="53" type="line"/>
      <point x="154" y="119"/>
      <point x="433" y="675"/>
      <point x="433" y="700" type="curve" smooth="yes"/>
      <point x="433" y="870"/>
      <point x="208" y="1202"/>
      <point x="177" y="1401" type="curve"/>
      <point x="203" y="1421" type="line"/>
      <point x="244" y="1413"/>
      <point x="269" y="1284"/>
      <point x="281" y="1247" type="curve" smooth="yes"/>
      <point x="314" y="1149"/>
      <point x="504" y="757"/>
      <point x="504" y="698" type="curve" smooth="yes"/>
      <point x="504" y="647"/>
      <point x="440" y="598"/>
      <point x="422" y="549" type="curve" smooth="yes"/>
      <point x="410" y="516"/>
      <point x="391" y="486"/>
      <point x="377" y="455" type="curve" smooth="yes"/>
      <point x="201" y="90" type="line" smooth="yes"/>
      <point x="187" y="61"/>
      <point x="174" y="29"/>
    </contour>
  </outline>
</glyph>
<glyph name="onequarter" format="1">
  <advance width="1580"/>
  <unicode hex="00BC"/>
  <outline>
    <contour>
      <point x="1372" y="61" type="line"/>
      <point x="1370" y="66" type="line"/>
      <point x="1376" y="91"/>
      <point x="1379" y="114"/>
      <point x="1379" y="139" type="curve" smooth="yes"/>
      <point x="1379" y="209"/>
      <point x="1364" y="278"/>
      <point x="1364" y="348" type="curve" smooth="yes"/>
      <point x="1364" y="379"/>
      <point x="1368" y="409"/>
      <point x="1368" y="440" type="curve" smooth="yes"/>
      <point x="1368" y="460"/>
      <point x="1368" y="520"/>
      <point x="1348" y="530" type="curve"/>
      <point x="1307" y="530"/>
      <point x="1268" y="518"/>
      <point x="1227" y="518" type="curve" smooth="yes"/>
      <point x="1194" y="518"/>
      <point x="1197" y="523"/>
      <point x="1172" y="541" type="curve"/>
      <point x="1172" y="547" type="line" smooth="yes"/>
      <point x="1172" y="570"/>
      <point x="1178" y="592"/>
      <point x="1182" y="612" type="curve"/>
      <point x="1163" y="653" type="line"/>
      <point x="1163" y="688"/>
      <point x="1182" y="719"/>
      <point x="1182" y="754" type="curve" smooth="yes"/>
      <point x="1182" y="887"/>
      <point x="1202" y="1022"/>
      <point x="1202" y="1155" type="curve" smooth="yes"/>
      <point x="1202" y="1481" type="line" smooth="yes"/>
      <point x="1202" y="1497"/>
      <point x="1194" y="1516"/>
      <point x="1194" y="1532" type="curve" smooth="yes"/>
      <point x="1194" y="1548"/>
      <point x="1203" y="1559"/>
      <point x="1219" y="1559" type="curve" smooth="yes"/>
      <point x="1235" y="1559"/>
      <point x="1256" y="1550"/>
      <point x="1256" y="1530" type="curve" smooth="yes"/>
      <point x="1256" y="1475"/>
      <point x="1247" y="1421"/>
      <point x="1247" y="1366" type="curve" smooth="yes"/>
      <point x="1247" y="1343"/>
      <point x="1250" y="1319"/>
      <point x="1254" y="1296" type="curve"/>
      <point x="1249" y="1290" type="line"/>
      <point x="1251" y="1272"/>
      <point x="1254" y="1253"/>
      <point x="1254" y="1233" type="curve" smooth="yes"/>
      <point x="1254" y="1061"/>
      <point x="1229" y="889"/>
      <point x="1229" y="717" type="curve" smooth="yes"/>
      <point x="1229" y="697"/>
      <point x="1243" y="677"/>
      <point x="1243" y="657" type="curve" smooth="yes"/>
      <point x="1243" y="637"/>
      <point x="1229" y="622"/>
      <point x="1229" y="602" type="curve" smooth="yes"/>
      <point x="1229" y="588"/>
      <point x="1229" y="563"/>
      <point x="1249" y="563" type="curve" smooth="yes"/>
      <point x="1272" y="563"/>
      <point x="1334" y="572"/>
      <point x="1352" y="582" type="curve"/>
      <point x="1352" y="729"/>
      <point x="1344" y="877"/>
      <point x="1338" y="1024" type="curve" smooth="yes"/>
      <point x="1336" y="1079"/>
      <point x="1321" y="1133"/>
      <point x="1321" y="1188" type="curve" smooth="yes"/>
      <point x="1321" y="1206"/>
      <point x="1346" y="1212"/>
      <point x="1360" y="1212" type="curve"/>
      <point x="1379" y="1190" type="line"/>
      <point x="1379" y="1094"/>
      <point x="1391" y="997"/>
      <point x="1391" y="901" type="curve" smooth="yes"/>
      <point x="1391" y="860"/>
      <point x="1397" y="596"/>
      <point x="1411" y="582" type="curve"/>
      <point x="1436" y="582"/>
      <point x="1460" y="590"/>
      <point x="1487" y="590" type="curve" smooth="yes"/>
      <point x="1501" y="590"/>
      <point x="1526" y="587"/>
      <point x="1526" y="567" type="curve" smooth="yes"/>
      <point x="1526" y="514"/>
      <point x="1411" y="576"/>
      <point x="1411" y="498" type="curve" smooth="yes"/>
      <point x="1411" y="451"/>
      <point x="1420" y="177"/>
      <point x="1430" y="152" type="curve"/>
      <point x="1428" y="144"/>
      <point x="1428" y="131"/>
      <point x="1428" y="117" type="curve" smooth="yes"/>
      <point x="1428" y="99"/>
      <point x="1430" y="78"/>
      <point x="1436" y="68" type="curve"/>
      <point x="1430" y="43" type="line"/>
      <point x="1436" y="29" type="line"/>
      <point x="1436" y="0" type="line"/>
      <point x="1403" y="-25" type="line"/>
      <point x="1372" y="-12" type="line"/>
    </contour>
    <contour>
      <point x="991" y="1505" type="curve" smooth="yes"/>
      <point x="991" y="1489"/>
      <point x="954" y="1337"/>
      <point x="950" y="1317" type="curve" smooth="yes"/>
      <point x="876" y="977"/>
      <point x="797" y="641"/>
      <point x="719" y="299" type="curve" smooth="yes"/>
      <point x="678" y="121" type="line" smooth="yes"/>
      <point x="668" y="78"/>
      <point x="662" y="-2"/>
      <point x="619" y="-6" type="curve"/>
      <point x="607" y="2"/>
      <point x="598" y="17"/>
      <point x="598" y="31" type="curve" smooth="yes"/>
      <point x="598" y="129"/>
      <point x="643" y="268"/>
      <point x="670" y="387" type="curve" smooth="yes"/>
      <point x="750" y="741"/>
      <point x="834" y="1096"/>
      <point x="926" y="1448" type="curve" smooth="yes"/>
      <point x="930" y="1460"/>
      <point x="945" y="1532"/>
      <point x="961" y="1532" type="curve" smooth="yes"/>
      <point x="977" y="1532"/>
      <point x="991" y="1523"/>
    </contour>
    <contour>
      <point x="103" y="37" type="curve"/>
      <point x="113" y="57" type="line"/>
      <point x="131" y="57"/>
      <point x="150" y="55"/>
      <point x="168" y="55" type="curve" smooth="yes"/>
      <point x="207" y="55"/>
      <point x="219" y="72"/>
      <point x="219" y="111" type="curve" smooth="yes"/>
      <point x="219" y="502"/>
      <point x="185" y="893"/>
      <point x="160" y="1284" type="curve" smooth="yes"/>
      <point x="160" y="1307"/>
      <point x="162" y="1329"/>
      <point x="162" y="1354" type="curve" smooth="yes"/>
      <point x="162" y="1420"/>
      <point x="150" y="1483"/>
      <point x="68" y="1483" type="curve" smooth="yes"/>
      <point x="52" y="1483"/>
      <point x="37" y="1479"/>
      <point x="21" y="1479" type="curve" smooth="yes"/>
      <point x="7" y="1479"/>
      <point x="-12" y="1481"/>
      <point x="-12" y="1501" type="curve" smooth="yes"/>
      <point x="-12" y="1530"/>
      <point x="139" y="1530"/>
      <point x="166" y="1530" type="curve" smooth="yes"/>
      <point x="184" y="1530"/>
      <point x="199" y="1515"/>
      <point x="199" y="1497" type="curve"/>
      <point x="203" y="1497" type="line"/>
      <point x="199" y="1477"/>
      <point x="197" y="1454"/>
      <point x="197" y="1434" type="curve" smooth="yes"/>
      <point x="197" y="1305"/>
      <point x="228" y="1176"/>
      <point x="228" y="1047" type="curve" smooth="yes"/>
      <point x="228" y="818"/>
      <point x="262" y="589"/>
      <point x="262" y="360" type="curve" smooth="yes"/>
      <point x="262" y="352"/>
      <point x="260" y="342"/>
      <point x="258" y="334" type="curve" smooth="yes"/>
      <point x="266" y="303"/>
      <point x="271" y="143"/>
      <point x="271" y="102" type="curve" smooth="yes"/>
      <point x="271" y="92"/>
      <point x="268" y="82"/>
      <point x="268" y="72" type="curve"/>
      <point x="277" y="66" type="line"/>
      <point x="308" y="66"/>
      <point x="338" y="72"/>
      <point x="369" y="72" type="curve" smooth="yes"/>
      <point x="387" y="72"/>
      <point x="432" y="72"/>
      <point x="432" y="43" type="curve" smooth="yes"/>
      <point x="432" y="18"/>
      <point x="405" y="14"/>
      <point x="387" y="14" type="curve" smooth="yes"/>
      <point x="303" y="14"/>
      <point x="219" y="6"/>
      <point x="135" y="6" type="curve" smooth="yes"/>
      <point x="117" y="6"/>
      <point x="103" y="19"/>
    </contour>
  </outline>
</glyph>
<glyph name="Eth" format="1">
  <advance width="880"/>
  <unicode hex="00D0"/>
  <outline>
    <contour>
      <point x="290" y="451" type="curve"/>
      <point x="288" y="449" type="line"/>
      <point x="288" y="302"/>
      <point x="309" y="153"/>
      <point x="309" y="6" type="curve"/>
      <point x="342" y="12"/>
      <point x="359" y="36"/>
      <point x="382" y="59" type="curve" smooth="yes"/>
      <point x="513" y="188"/>
      <point x="638" y="430"/>
      <point x="638" y="616" type="curve" smooth="yes"/>
      <point x="638" y="778"/>
      <point x="638" y="927"/>
      <point x="595" y="1087" type="curve"/>
      <point x="554" y="1286"/>
      <point x="438" y="1477"/>
      <point x="235" y="1538" type="curve"/>
      <point x="231" y="1534" type="line"/>
      <point x="231" y="1438"/>
      <point x="249" y="864"/>
      <point x="280" y="821" type="curve"/>
      <point x="327" y="821"/>
      <point x="374" y="844"/>
      <point x="421" y="844" type="curve" smooth="yes"/>
      <point x="446" y="844"/>
      <point x="462" y="815"/>
      <point x="464" y="795" type="curve"/>
      <point x="444" y="770" type="line"/>
      <point x="389" y="770"/>
      <point x="331" y="768"/>
      <point x="276" y="756" type="curve"/>
      <point x="276" y="719"/>
      <point x="286" y="469"/>
    </contour>
    <contour>
      <point x="241" y="-49" type="curve"/>
      <point x="239" y="-49" type="line"/>
      <point x="239" y="166"/>
      <point x="231" y="391"/>
      <point x="221" y="602" type="curve" smooth="yes"/>
      <point x="217" y="651"/>
      <point x="216" y="707"/>
      <point x="204" y="754" type="curve"/>
      <point x="161" y="754"/>
      <point x="120" y="741"/>
      <point x="79" y="741" type="curve" smooth="yes"/>
      <point x="54" y="741"/>
      <point x="51" y="756"/>
      <point x="51" y="776" type="curve" smooth="yes"/>
      <point x="51" y="810"/>
      <point x="139" y="813"/>
      <point x="178" y="813" type="curve" smooth="yes"/>
      <point x="196" y="813" type="line"/>
      <point x="204" y="817" type="line"/>
      <point x="204" y="819"/>
      <point x="206" y="825"/>
      <point x="206" y="827" type="curve" smooth="yes"/>
      <point x="206" y="950"/>
      <point x="178" y="1073"/>
      <point x="178" y="1196" type="curve" smooth="yes"/>
      <point x="178" y="1319"/>
      <point x="161" y="1440"/>
      <point x="161" y="1563" type="curve" smooth="yes"/>
      <point x="161" y="1573"/>
      <point x="182" y="1606"/>
      <point x="194" y="1606" type="curve" smooth="yes"/>
      <point x="374" y="1606"/>
      <point x="540" y="1384"/>
      <point x="616" y="1241" type="curve"/>
      <point x="616" y="1237" type="line"/>
      <point x="688" y="1034"/>
      <point x="712" y="848"/>
      <point x="712" y="649" type="curve" smooth="yes"/>
      <point x="712" y="387"/>
      <point x="551" y="23"/>
      <point x="301" y="-88" type="curve"/>
      <point x="272" y="-74"/>
      <point x="257" y="-82"/>
    </contour>
  </outline>
</glyph>
<glyph name="multiply" format="1">
  <advance width="740"/>
  <unicode hex="00D7"/>
  <outline>
    <contour>
      <point x="528" y="430" type="curve" smooth="yes"/>
      <point x="483" y="473" type="line" smooth="yes"/>
      <point x="444" y="510"/>
      <point x="391" y="584"/>
      <point x="364" y="584" type="curve" smooth="yes"/>
      <point x="313" y="584"/>
      <point x="272" y="457"/>
      <point x="213" y="457" type="curve" smooth="yes"/>
      <point x="199" y="457"/>
      <point x="172" y="473"/>
      <point x="172" y="487" type="curve" smooth="yes"/>
      <point x="172" y="507"/>
      <point x="239" y="555"/>
      <point x="264" y="580" type="curve" smooth="yes"/>
      <point x="274" y="590"/>
      <point x="309" y="631"/>
      <point x="309" y="647" type="curve"/>
      <point x="260" y="698"/>
      <point x="139" y="780"/>
      <point x="139" y="817" type="curve" smooth="yes"/>
      <point x="139" y="829"/>
      <point x="160" y="858"/>
      <point x="180" y="858" type="curve" smooth="yes"/>
      <point x="188" y="858"/>
      <point x="197" y="856"/>
      <point x="205" y="848" type="curve"/>
      <point x="215" y="827" type="line"/>
      <point x="258" y="784"/>
      <point x="343" y="700"/>
      <point x="368" y="700" type="curve" smooth="yes"/>
      <point x="417" y="700"/>
      <point x="483" y="844"/>
      <point x="542" y="844" type="curve" smooth="yes"/>
      <point x="556" y="844"/>
      <point x="573" y="827"/>
      <point x="573" y="813" type="curve" smooth="yes"/>
      <point x="573" y="768"/>
      <point x="428" y="684"/>
      <point x="428" y="643" type="curve" smooth="yes"/>
      <point x="428" y="586"/>
      <point x="594" y="520"/>
      <point x="594" y="471" type="curve" smooth="yes"/>
      <point x="594" y="451"/>
      <point x="575" y="424"/>
      <point x="542" y="424" type="curve" smooth="yes"/>
      <point x="536" y="424"/>
      <point x="532" y="426"/>
    </contour>
  </outline>
</glyph>
<glyph name="Thorn" format="1">
  <advance width="700"/>
  <unicode hex="00DE"/>
  <outline>
    <contour>
      <point x="231" y="1207" type="curve"/>
      <point x="231" y="1154" type="line"/>
      <point x="233" y="939"/>
      <point x="255" y="721"/>
      <point x="259" y="502" type="curve"/>
      <point x="290" y="504"/>
      <point x="365" y="529"/>
      <point x="385" y="549" type="curve" smooth="yes"/>
      <point x="483" y="647"/>
      <point x="518" y="754"/>
      <point x="518" y="883" type="curve" smooth="yes"/>
      <point x="518" y="1060"/>
      <point x="457" y="1207"/>
    </contour>
    <contour>
      <point x="225" y="-12" type="curve" smooth="yes"/>
      <point x="200" y="-12"/>
      <point x="200" y="45"/>
      <point x="200" y="59" type="curve" smooth="yes"/>
      <point x="200" y="182"/>
      <point x="202" y="194"/>
      <point x="202" y="317" type="curve" smooth="yes"/>
      <point x="202" y="428"/>
      <point x="198" y="458"/>
      <point x="198" y="569" type="curve" smooth="yes"/>
      <point x="198" y="739"/>
      <point x="186" y="932"/>
      <point x="180" y="1100" type="curve" smooth="yes"/>
      <point x="176" y="1186"/>
      <point x="165" y="1276"/>
      <point x="165" y="1366" type="curve" smooth="yes"/>
      <point x="163" y="1376"/>
      <point x="163" y="1385"/>
      <point x="163" y="1395" type="curve" smooth="yes"/>
      <point x="163" y="1415"/>
      <point x="166" y="1483"/>
      <point x="166" y="1515" type="curve" smooth="yes"/>
      <point x="166" y="1523"/>
      <point x="165" y="1528"/>
      <point x="165" y="1530" type="curve" smooth="yes"/>
      <point x="165" y="1540"/>
      <point x="172" y="1544"/>
      <point x="180" y="1546" type="curve" smooth="yes"/>
      <point x="194" y="1546"/>
      <point x="214" y="1538"/>
      <point x="214" y="1540" type="curve"/>
      <point x="218" y="1485"/>
      <point x="219" y="1323"/>
      <point x="223" y="1268" type="curve"/>
      <point x="223" y="1266" type="line"/>
      <point x="492" y="1262"/>
      <point x="575" y="1063"/>
      <point x="575" y="887" type="curve" smooth="yes"/>
      <point x="575" y="768"/>
      <point x="518" y="564"/>
      <point x="422" y="488" type="curve" smooth="yes"/>
      <point x="406" y="474"/>
      <point x="385" y="471"/>
      <point x="369" y="459" type="curve" smooth="yes"/>
      <point x="349" y="445"/>
      <point x="286" y="433"/>
      <point x="259" y="427" type="curve"/>
      <point x="259" y="202"/>
      <point x="270" y="276"/>
      <point x="270" y="51" type="curve" smooth="yes"/>
      <point x="270" y="18"/>
      <point x="266" y="-12"/>
    </contour>
  </outline>
</glyph>
<glyph name="germandbls" format="1">
  <advance width="720"/>
  <unicode hex="00DF"/>
  <outline>
    <contour>
      <point x="368" y="23" type="curve" smooth="yes"/>
      <point x="347" y="23"/>
      <point x="325" y="37"/>
      <point x="325" y="53" type="curve" smooth="yes"/>
      <point x="325" y="65"/>
      <point x="336" y="78"/>
      <point x="350" y="88" type="curve" smooth="yes"/>
      <point x="383" y="104"/>
      <point x="469" y="158"/>
      <point x="479" y="197" type="curve"/>
      <point x="506" y="248"/>
      <point x="507" y="308"/>
      <point x="507" y="360" type="curve" smooth="yes"/>
      <point x="507" y="371" type="line" smooth="yes"/>
      <point x="507" y="518"/>
      <point x="472" y="745"/>
      <point x="327" y="811" type="curve" smooth="yes"/>
      <point x="311" y="819"/>
      <point x="294" y="840"/>
      <point x="294" y="858" type="curve" smooth="yes"/>
      <point x="294" y="883"/>
      <point x="313" y="885"/>
      <point x="325" y="889" type="curve" smooth="yes"/>
      <point x="386" y="907"/>
      <point x="446" y="1092"/>
      <point x="446" y="1190" type="curve" smooth="yes"/>
      <point x="446" y="1356"/>
      <point x="396" y="1466"/>
      <point x="337" y="1466" type="curve" smooth="yes"/>
      <point x="253" y="1466"/>
      <point x="243" y="1339"/>
      <point x="243" y="1255" type="curve" smooth="yes"/>
      <point x="243" y="1132"/>
      <point x="251" y="1010"/>
      <point x="251" y="887" type="curve" smooth="yes"/>
      <point x="251" y="809" type="line" smooth="yes"/>
      <point x="251" y="555"/>
      <point x="261" y="301"/>
      <point x="261" y="49" type="curve" smooth="yes"/>
      <point x="261" y="20"/>
      <point x="258" y="-12"/>
      <point x="223" y="-12" type="curve" smooth="yes"/>
      <point x="221" y="-12" type="line" smooth="yes"/>
      <point x="210" y="-12"/>
      <point x="184" y="-11"/>
      <point x="184" y="16" type="curve" smooth="yes"/>
      <point x="184" y="188"/>
      <point x="194" y="363"/>
      <point x="194" y="535" type="curve" smooth="yes"/>
      <point x="194" y="783"/>
      <point x="180" y="1018"/>
      <point x="180" y="1266" type="curve" smooth="yes"/>
      <point x="180" y="1325"/>
      <point x="179" y="1536"/>
      <point x="335" y="1536" type="curve" smooth="yes"/>
      <point x="444" y="1536"/>
      <point x="499" y="1394"/>
      <point x="499" y="1214" type="curve" smooth="yes"/>
      <point x="499" y="1079"/>
      <point x="460" y="942"/>
      <point x="368" y="854" type="curve"/>
      <point x="497" y="788"/>
      <point x="565" y="647"/>
      <point x="565" y="473" type="curve" smooth="yes"/>
      <point x="565" y="426" type="line" smooth="yes"/>
      <point x="565" y="262"/>
      <point x="554" y="113"/>
      <point x="386" y="27" type="curve" smooth="yes"/>
      <point x="380" y="25"/>
      <point x="374" y="23"/>
    </contour>
  </outline>
</glyph>
<glyph name="ae" format="1">
  <advance width="940"/>
  <unicode hex="00E6"/>
  <outline>
    <contour>
      <point x="517" y="1237" type="curve"/>
      <point x="492" y="1210"/>
      <point x="318" y="692"/>
      <point x="312" y="643" type="curve"/>
      <point x="371" y="643"/>
      <point x="462" y="656"/>
      <point x="517" y="668" type="curve"/>
      <point x="517" y="948" type="line" smooth="yes"/>
      <point x="517" y="993"/>
      <point x="519" y="1040"/>
      <point x="519" y="1085" type="curve" smooth="yes"/>
      <point x="519" y="1163" type="line" smooth="yes"/>
      <point x="519" y="1188"/>
      <point x="519" y="1212"/>
    </contour>
    <contour>
      <point x="512" y="14" type="line"/>
      <point x="524" y="82"/>
      <point x="529" y="159"/>
      <point x="529" y="229" type="curve" smooth="yes"/>
      <point x="529" y="354"/>
      <point x="519" y="477"/>
      <point x="519" y="600" type="curve"/>
      <point x="508" y="614" type="line"/>
      <point x="477" y="608"/>
      <point x="303" y="605"/>
      <point x="297" y="580" type="curve" smooth="yes"/>
      <point x="195" y="209" type="line" smooth="yes"/>
      <point x="185" y="174"/>
      <point x="160" y="2"/>
      <point x="123" y="2" type="curve" smooth="yes"/>
      <point x="113" y="2"/>
      <point x="107" y="19"/>
      <point x="107" y="27" type="curve" smooth="yes"/>
      <point x="109" y="121"/>
      <point x="164" y="336"/>
      <point x="189" y="432" type="curve"/>
      <point x="271" y="694"/>
      <point x="359" y="940"/>
      <point x="457" y="1196" type="curve"/>
      <point x="461" y="1208" type="line" smooth="yes"/>
      <point x="461" y="1210"/>
      <point x="463" y="1215"/>
      <point x="463" y="1217" type="curve" smooth="yes"/>
      <point x="477" y="1266"/>
      <point x="502" y="1348"/>
      <point x="551" y="1348" type="curve" smooth="yes"/>
      <point x="602" y="1348"/>
      <point x="656" y="1350"/>
      <point x="709" y="1350" type="curve" smooth="yes"/>
      <point x="729" y="1350"/>
      <point x="773" y="1346"/>
      <point x="773" y="1317" type="curve"/>
      <point x="760" y="1292" type="line"/>
      <point x="658" y="1292" type="line" smooth="yes"/>
      <point x="623" y="1292"/>
      <point x="591" y="1292"/>
      <point x="558" y="1288" type="curve"/>
      <point x="558" y="1188"/>
      <point x="564" y="1077"/>
      <point x="564" y="975" type="curve" smooth="yes"/>
      <point x="564" y="873"/>
      <point x="566" y="784"/>
      <point x="566" y="682" type="curve"/>
      <point x="576" y="670" type="line"/>
      <point x="631" y="690"/>
      <point x="683" y="690"/>
      <point x="738" y="690" type="curve"/>
      <point x="766" y="655" type="line"/>
      <point x="766" y="624"/>
      <point x="689" y="621"/>
      <point x="621" y="621" type="curve" smooth="yes"/>
      <point x="566" y="621" type="line"/>
      <point x="566" y="465"/>
      <point x="574" y="312"/>
      <point x="574" y="154" type="curve" smooth="yes"/>
      <point x="574" y="125"/>
      <point x="572" y="99"/>
      <point x="572" y="70" type="curve" smooth="yes"/>
      <point x="572" y="60"/>
      <point x="572" y="35"/>
      <point x="590" y="35" type="curve" smooth="yes"/>
      <point x="668" y="35"/>
      <point x="744" y="57"/>
      <point x="822" y="57" type="curve" smooth="yes"/>
      <point x="836" y="57"/>
      <point x="867" y="51"/>
      <point x="867" y="31" type="curve" smooth="yes"/>
      <point x="867" y="-18"/>
      <point x="623" y="2"/>
      <point x="588" y="-14" type="curve"/>
      <point x="582" y="-12"/>
      <point x="576" y="-12"/>
      <point x="572" y="-12" type="curve" smooth="yes"/>
      <point x="562" y="-12"/>
      <point x="555" y="-14"/>
      <point x="541" y="-14" type="curve"/>
    </contour>
  </outline>
</glyph>
<glyph name="oslash" format="1">
  <advance width="720"/>
  <unicode hex="00F8"/>
  <outline>
    <contour>
      <point x="235" y="647" type="curve"/>
      <point x="235" y="516"/>
      <point x="259" y="385"/>
      <point x="259" y="254" type="curve"/>
      <point x="284" y="404"/>
      <point x="343" y="969"/>
      <point x="355" y="1069" type="curve" smooth="yes"/>
      <point x="363" y="1139"/>
      <point x="378" y="1208"/>
      <point x="378" y="1280" type="curve" smooth="yes"/>
      <point x="378" y="1311"/>
      <point x="346" y="1331"/>
      <point x="319" y="1331" type="curve" smooth="yes"/>
      <point x="315" y="1331"/>
      <point x="294" y="1323"/>
      <point x="288" y="1321" type="curve"/>
      <point x="278" y="1323" type="line"/>
      <point x="223" y="1294"/>
      <point x="220" y="907"/>
      <point x="220" y="782" type="curve" smooth="yes"/>
      <point x="220" y="768" type="line" smooth="yes"/>
      <point x="220" y="731"/>
      <point x="221" y="683"/>
    </contour>
    <contour>
      <point x="284" y="111" type="curve" smooth="yes"/>
      <point x="284" y="50"/>
      <point x="307" y="25"/>
      <point x="368" y="25" type="curve" smooth="yes"/>
      <point x="489" y="25"/>
      <point x="489" y="287"/>
      <point x="489" y="369" type="curve" smooth="yes"/>
      <point x="489" y="537"/>
      <point x="484" y="1096"/>
      <point x="421" y="1217" type="curve"/>
      <point x="364" y="881"/>
      <point x="321" y="285"/>
      <point x="298" y="201" type="curve" smooth="yes"/>
      <point x="290" y="170"/>
      <point x="284" y="142"/>
    </contour>
    <contour>
      <point x="185" y="-219" type="curve" smooth="yes"/>
      <point x="197" y="-98"/>
      <point x="223" y="-17"/>
      <point x="235" y="104" type="curve" smooth="yes"/>
      <point x="235" y="127"/>
      <point x="224" y="149"/>
      <point x="220" y="172" type="curve" smooth="yes"/>
      <point x="182" y="398"/>
      <point x="179" y="638"/>
      <point x="179" y="870" type="curve" smooth="yes"/>
      <point x="179" y="993" type="line" smooth="yes"/>
      <point x="179" y="1083"/>
      <point x="179" y="1382"/>
      <point x="316" y="1382" type="curve" smooth="yes"/>
      <point x="336" y="1382"/>
      <point x="356" y="1368"/>
      <point x="372" y="1360" type="curve"/>
      <point x="378" y="1364" type="line"/>
      <point x="392" y="1350" type="line"/>
      <point x="400" y="1383"/>
      <point x="419" y="1513"/>
      <point x="437" y="1591" type="curve"/>
      <point x="470" y="1591" type="line"/>
      <point x="470" y="1573" type="line" smooth="yes"/>
      <point x="470" y="1553"/>
      <point x="429" y="1334"/>
      <point x="429" y="1311" type="curve" smooth="yes"/>
      <point x="429" y="1291"/>
      <point x="446" y="1271"/>
      <point x="456" y="1255" type="curve"/>
      <point x="454" y="1251" type="line"/>
      <point x="458" y="1231"/>
      <point x="474" y="1214"/>
      <point x="482" y="1196" type="curve" smooth="yes"/>
      <point x="498" y="1161"/>
      <point x="505" y="1110"/>
      <point x="505" y="1071" type="curve"/>
      <point x="501" y="1069" type="line"/>
      <point x="501" y="973"/>
      <point x="527" y="876"/>
      <point x="527" y="780" type="curve" smooth="yes"/>
      <point x="527" y="770" type="line"/>
      <point x="532" y="764" type="line"/>
      <point x="532" y="645"/>
      <point x="538" y="529"/>
      <point x="538" y="410" type="curve" smooth="yes"/>
      <point x="538" y="281"/>
      <point x="535" y="-14"/>
      <point x="351" y="-14" type="curve" smooth="yes"/>
      <point x="318" y="-14"/>
      <point x="281" y="-6"/>
      <point x="261" y="23" type="curve"/>
      <point x="259" y="23" type="line"/>
      <point x="259" y="31"/>
      <point x="231" y="-248"/>
      <point x="204" y="-248" type="curve" smooth="yes"/>
      <point x="192" y="-248"/>
      <point x="185" y="-239"/>
    </contour>
  </outline>
</glyph>
<glyph name="Hbar" format="1">
  <advance width="760"/>
  <unicode hex="0126"/>
  <outline>
    <contour>
      <point x="533" y="-33" type="curve" smooth="yes"/>
      <point x="506" y="-33"/>
      <point x="504" y="-6"/>
      <point x="504" y="12" type="curve" smooth="yes"/>
      <point x="504" y="28"/>
      <point x="506" y="43"/>
      <point x="506" y="59" type="curve" smooth="yes"/>
      <point x="506" y="292"/>
      <point x="498" y="529"/>
      <point x="486" y="762" type="curve" smooth="yes"/>
      <point x="482" y="762"/>
      <point x="477" y="760"/>
      <point x="473" y="760" type="curve" smooth="yes"/>
      <point x="448" y="760"/>
      <point x="420" y="770"/>
      <point x="395" y="770" type="curve" smooth="yes"/>
      <point x="346" y="770"/>
      <point x="293" y="770"/>
      <point x="250" y="745" type="curve"/>
      <point x="250" y="507"/>
      <point x="285" y="275"/>
      <point x="285" y="37" type="curve" smooth="yes"/>
      <point x="285" y="21"/>
      <point x="284" y="6"/>
      <point x="264" y="6" type="curve" smooth="yes"/>
      <point x="246" y="6"/>
      <point x="238" y="9"/>
      <point x="232" y="27" type="curve" smooth="yes"/>
      <point x="212" y="86"/>
      <point x="217" y="494"/>
      <point x="209" y="598" type="curve" smooth="yes"/>
      <point x="194" y="800"/>
      <point x="183" y="1003"/>
      <point x="177" y="1206" type="curve"/>
      <point x="174" y="1206" type="line" smooth="yes"/>
      <point x="156" y="1206"/>
      <point x="131" y="1218"/>
      <point x="131" y="1241" type="curve" smooth="yes"/>
      <point x="131" y="1242"/>
      <point x="148" y="1244"/>
      <point x="176" y="1245" type="curve"/>
      <point x="173" y="1341"/>
      <point x="172" y="1436"/>
      <point x="172" y="1532" type="curve"/>
      <point x="205" y="1548" type="line"/>
      <point x="232" y="1526" type="line"/>
      <point x="226" y="1475"/>
      <point x="223" y="1425"/>
      <point x="223" y="1374" type="curve" smooth="yes"/>
      <point x="223" y="1331"/>
      <point x="225" y="1289"/>
      <point x="227" y="1247" type="curve"/>
      <point x="302" y="1249"/>
      <point x="404" y="1250"/>
      <point x="475" y="1251" type="curve"/>
      <point x="472" y="1341"/>
      <point x="469" y="1430"/>
      <point x="469" y="1520" type="curve" smooth="yes"/>
      <point x="469" y="1530"/>
      <point x="471" y="1538"/>
      <point x="473" y="1548" type="curve"/>
      <point x="526" y="1548"/>
      <point x="531" y="1462"/>
      <point x="531" y="1382" type="curve" smooth="yes"/>
      <point x="531" y="1251" type="line"/>
      <point x="544" y="1249"/>
      <point x="559" y="1233"/>
      <point x="559" y="1212" type="curve"/>
      <point x="532" y="1212" type="line"/>
      <point x="537" y="667"/>
      <point x="561" y="271"/>
      <point x="561" y="49" type="curve"/>
      <point x="565" y="41"/>
      <point x="570" y="30"/>
      <point x="570" y="20" type="curve" smooth="yes"/>
      <point x="570" y="4"/>
      <point x="553" y="-33"/>
    </contour>
    <contour>
      <point x="229" y="1207" type="curve"/>
      <point x="234" y="1124"/>
      <point x="240" y="1041"/>
      <point x="240" y="958" type="curve" smooth="yes"/>
      <point x="240" y="931"/>
      <point x="238" y="904"/>
      <point x="238" y="877" type="curve" smooth="yes"/>
      <point x="238" y="852"/>
      <point x="240" y="828"/>
      <point x="246" y="805" type="curve"/>
      <point x="326" y="805"/>
      <point x="406" y="821"/>
      <point x="486" y="821" type="curve"/>
      <point x="488" y="825" type="line"/>
      <point x="488" y="953"/>
      <point x="482" y="1083"/>
      <point x="477" y="1212" type="curve"/>
      <point x="406" y="1211"/>
      <point x="303" y="1208"/>
    </contour>
  </outline>
</glyph>
<glyph name="lslash" format="1">
  <advance width="740"/>
  <unicode hex="0142"/>
  <outline>
    <component base="l" xOffset="125"/>
    <contour>
      <point x="179" y="617" type="curve" smooth="yes"/>
      <point x="169" y="617"/>
      <point x="146" y="623"/>
      <point x="146" y="638" type="curve" smooth="yes"/>
      <point x="146" y="670"/>
      <point x="447" y="809"/>
      <point x="522" y="842" type="curve" smooth="yes"/>
      <point x="527" y="844"/>
      <point x="535" y="846"/>
      <point x="542" y="846" type="curve" smooth="yes"/>
      <point x="554" y="846"/>
      <point x="577" y="840"/>
      <point x="577" y="826" type="curve" smooth="yes"/>
      <point x="577" y="794"/>
      <point x="281" y="658"/>
      <point x="199" y="621" type="curve" smooth="yes"/>
      <point x="193" y="619"/>
      <point x="186" y="617"/>
    </contour>
  </outline>
</glyph>
<glyph name="Eng" format="1">
  <advance width="920"/>
  <unicode hex="014A"/>
  <outline>
    <contour>
      <point x="691" y="-131" type="curve" smooth="yes"/>
      <point x="691" y="-284"/>
      <point x="608" y="-401"/>
      <point x="517" y="-467" type="curve"/>
      <point x="490" y="-467"/>
      <point x="474" y="-455"/>
      <point x="474" y="-428" type="curve" smooth="yes"/>
      <point x="476" y="-401"/>
      <point x="530" y="-378"/>
      <point x="548" y="-360" type="curve" smooth="yes"/>
      <point x="630" y="-278"/>
      <point x="638" y="-133"/>
      <point x="638" y="-47" type="curve" smooth="yes"/>
      <point x="638" y="-29" type="line"/>
      <point x="630" y="-17"/>
      <point x="622" y="3"/>
      <point x="616" y="23" type="curve" smooth="yes"/>
      <point x="520" y="326"/>
      <point x="398" y="703"/>
      <point x="341" y="1016" type="curve" smooth="yes"/>
      <point x="335" y="1045"/>
      <point x="342" y="1079"/>
      <point x="319" y="1102" type="curve"/>
      <point x="323" y="1112" type="line"/>
      <point x="305" y="1208"/>
      <point x="290" y="1309"/>
      <point x="253" y="1401" type="curve"/>
      <point x="251" y="1381"/>
      <point x="247" y="1361"/>
      <point x="247" y="1341" type="curve" smooth="yes"/>
      <point x="247" y="1329"/>
      <point x="247" y="1315"/>
      <point x="251" y="1303" type="curve"/>
      <point x="239" y="1262"/>
      <point x="237" y="1204"/>
      <point x="237" y="1161" type="curve" smooth="yes"/>
      <point x="237" y="600" type="line" smooth="yes"/>
      <point x="237" y="403"/>
      <point x="265" y="213"/>
      <point x="265" y="16" type="curve"/>
      <point x="251" y="0" type="line"/>
      <point x="204" y="0" type="line"/>
      <point x="198" y="16" type="line"/>
      <point x="202" y="32"/>
      <point x="202" y="80"/>
      <point x="202" y="98" type="curve" smooth="yes"/>
      <point x="202" y="336"/>
      <point x="179" y="573"/>
      <point x="179" y="811" type="curve" smooth="yes"/>
      <point x="179" y="1079" type="line" smooth="yes"/>
      <point x="179" y="1208"/>
      <point x="194" y="1337"/>
      <point x="194" y="1466" type="curve" smooth="yes"/>
      <point x="194" y="1480"/>
      <point x="192" y="1495"/>
      <point x="192" y="1509" type="curve" smooth="yes"/>
      <point x="192" y="1546"/>
      <point x="214" y="1552"/>
      <point x="247" y="1552" type="curve" smooth="yes"/>
      <point x="265" y="1552"/>
      <point x="294" y="1533"/>
      <point x="294" y="1513" type="curve" smooth="yes"/>
      <point x="294" y="1423"/>
      <point x="329" y="1385"/>
      <point x="354" y="1303" type="curve" smooth="yes"/>
      <point x="374" y="1235"/>
      <point x="372" y="1164"/>
      <point x="386" y="1096" type="curve" smooth="yes"/>
      <point x="425" y="908"/>
      <point x="485" y="723"/>
      <point x="534" y="539" type="curve" smooth="yes"/>
      <point x="548" y="482"/>
      <point x="567" y="368"/>
      <point x="585" y="313" type="curve" smooth="yes"/>
      <point x="603" y="258"/>
      <point x="644" y="115"/>
      <point x="644" y="115" type="curve"/>
      <point x="644" y="115"/>
      <point x="653" y="219"/>
      <point x="653" y="248" type="curve" smooth="yes"/>
      <point x="653" y="486"/>
      <point x="661" y="723"/>
      <point x="661" y="961" type="curve" smooth="yes"/>
      <point x="661" y="1067"/>
      <point x="655" y="1172"/>
      <point x="655" y="1278" type="curve" smooth="yes"/>
      <point x="655" y="1305"/>
      <point x="661" y="1331"/>
      <point x="661" y="1356" type="curve" smooth="yes"/>
      <point x="661" y="1362"/>
      <point x="661" y="1378"/>
      <point x="655" y="1382" type="curve"/>
      <point x="661" y="1399" type="line"/>
      <point x="661" y="1446" type="line" smooth="yes"/>
      <point x="661" y="1487"/>
      <point x="661" y="1528"/>
      <point x="653" y="1567" type="curve"/>
      <point x="659" y="1587"/>
      <point x="684" y="1595"/>
      <point x="704" y="1595" type="curve" smooth="yes"/>
      <point x="735" y="1595"/>
      <point x="737" y="1551"/>
      <point x="737" y="1528" type="curve"/>
      <point x="727" y="1508"/>
      <point x="724" y="1483"/>
      <point x="724" y="1460" type="curve" smooth="yes"/>
      <point x="724" y="1437"/>
      <point x="726" y="1414"/>
      <point x="726" y="1391" type="curve" smooth="yes"/>
      <point x="726" y="1371"/>
      <point x="726" y="1347"/>
      <point x="718" y="1329" type="curve"/>
      <point x="718" y="1114"/>
      <point x="712" y="897"/>
      <point x="712" y="682" type="curve" smooth="yes"/>
      <point x="712" y="664"/>
      <point x="714" y="645"/>
      <point x="716" y="627" type="curve"/>
      <point x="712" y="618" type="line"/>
      <point x="712" y="360" type="line" smooth="yes"/>
      <point x="712" y="256"/>
      <point x="702" y="143"/>
      <point x="702" y="37" type="curve" smooth="yes"/>
      <point x="702" y="-14"/>
      <point x="691" y="-59"/>
    </contour>
  </outline>
</glyph>
<glyph name="OE" format="1">
  <advance width="1200"/>
  <unicode hex="0152"/>
  <outline>
    <contour>
      <point x="345" y="197" type="curve"/>
      <point x="415" y="121"/>
      <point x="503" y="72"/>
      <point x="607" y="72" type="curve" smooth="yes"/>
      <point x="658" y="72"/>
      <point x="810" y="80"/>
      <point x="810" y="154" type="curve" smooth="yes"/>
      <point x="810" y="488"/>
      <point x="782" y="819"/>
      <point x="782" y="1153" type="curve" smooth="yes"/>
      <point x="782" y="1235"/>
      <point x="769" y="1319"/>
      <point x="769" y="1401" type="curve"/>
      <point x="712" y="1477"/>
      <point x="593" y="1497"/>
      <point x="503" y="1497" type="curve" smooth="yes"/>
      <point x="251" y="1497"/>
      <point x="220" y="1153"/>
      <point x="220" y="967" type="curve" smooth="yes"/>
      <point x="220" y="918"/>
      <point x="222" y="868"/>
      <point x="222" y="821" type="curve" smooth="yes"/>
      <point x="222" y="796"/>
      <point x="222" y="773"/>
      <point x="220" y="748" type="curve"/>
      <point x="224" y="741" type="line"/>
      <point x="224" y="653"/>
      <point x="249" y="211"/>
    </contour>
    <contour>
      <point x="790" y="10" type="curve"/>
      <point x="802" y="43" type="line"/>
      <point x="753" y="37"/>
      <point x="706" y="10"/>
      <point x="657" y="10" type="curve" smooth="yes"/>
      <point x="342" y="10"/>
      <point x="181" y="250"/>
      <point x="181" y="545" type="curve" smooth="yes"/>
      <point x="181" y="684"/>
      <point x="171" y="826"/>
      <point x="171" y="965" type="curve" smooth="yes"/>
      <point x="171" y="1147"/>
      <point x="222" y="1552"/>
      <point x="468" y="1552" type="curve" smooth="yes"/>
      <point x="560" y="1552"/>
      <point x="697" y="1545"/>
      <point x="763" y="1473" type="curve"/>
      <point x="757" y="1495" type="line"/>
      <point x="788" y="1538" type="line"/>
      <point x="815" y="1538"/>
      <point x="841" y="1526"/>
      <point x="868" y="1526" type="curve" smooth="yes"/>
      <point x="1019" y="1526" type="line" smooth="yes"/>
      <point x="1033" y="1526"/>
      <point x="1050" y="1530"/>
      <point x="1064" y="1530" type="curve"/>
      <point x="1074" y="1524"/>
      <point x="1095" y="1505"/>
      <point x="1095" y="1493" type="curve" smooth="yes"/>
      <point x="1095" y="1473"/>
      <point x="1072" y="1470"/>
      <point x="1058" y="1470" type="curve" smooth="yes"/>
      <point x="978" y="1470"/>
      <point x="896" y="1479"/>
      <point x="816" y="1479" type="curve"/>
      <point x="816" y="1327"/>
      <point x="845" y="1176"/>
      <point x="845" y="1024" type="curve" smooth="yes"/>
      <point x="845" y="989"/>
      <point x="841" y="953"/>
      <point x="841" y="918" type="curve" smooth="yes"/>
      <point x="841" y="889"/>
      <point x="843" y="861"/>
      <point x="851" y="834" type="curve"/>
      <point x="931" y="831" type="line" smooth="yes"/>
      <point x="949" y="831"/>
      <point x="966" y="836"/>
      <point x="984" y="836" type="curve" smooth="yes"/>
      <point x="1004" y="836"/>
      <point x="1021" y="827"/>
      <point x="1033" y="811" type="curve"/>
      <point x="1033" y="786"/>
      <point x="1026" y="778"/>
      <point x="1001" y="778" type="curve" smooth="yes"/>
      <point x="970" y="778"/>
      <point x="939" y="784"/>
      <point x="908" y="784" type="curve" smooth="yes"/>
      <point x="898" y="784"/>
      <point x="849" y="784"/>
      <point x="849" y="766" type="curve" smooth="yes"/>
      <point x="849" y="522"/>
      <point x="863" y="279"/>
      <point x="863" y="35" type="curve"/>
      <point x="916" y="37"/>
      <point x="968" y="43"/>
      <point x="1021" y="43" type="curve" smooth="yes"/>
      <point x="1046" y="43"/>
      <point x="1162" y="43"/>
      <point x="1162" y="4" type="curve"/>
      <point x="1150" y="-14" type="line"/>
      <point x="1046" y="-14"/>
      <point x="943" y="-20"/>
      <point x="839" y="-20" type="curve" smooth="yes"/>
      <point x="821" y="-20"/>
      <point x="792" y="-13"/>
    </contour>
  </outline>
</glyph>
<glyph name="tbar" format="1">
  <advance width="720"/>
  <unicode hex="0167"/>
  <outline>
    <contour>
      <point x="370" y="29" type="line"/>
      <point x="370" y="78"/>
      <point x="366" y="129"/>
      <point x="366" y="178" type="curve" smooth="yes"/>
      <point x="366" y="203"/>
      <point x="370" y="225"/>
      <point x="370" y="250" type="curve" smooth="yes"/>
      <point x="370" y="266"/>
      <point x="368" y="283"/>
      <point x="362" y="299" type="curve"/>
      <point x="362" y="429"/>
      <point x="355" y="558"/>
      <point x="346" y="687" type="curve"/>
      <point x="297" y="682"/>
      <point x="252" y="680"/>
      <point x="223" y="680" type="curve" smooth="yes"/>
      <point x="205" y="680"/>
      <point x="180" y="692"/>
      <point x="180" y="715" type="curve" smooth="yes"/>
      <point x="180" y="732"/>
      <point x="257" y="747"/>
      <point x="341" y="758" type="curve"/>
      <point x="328" y="938"/>
      <point x="313" y="1118"/>
      <point x="311" y="1298" type="curve"/>
      <point x="256" y="1298"/>
      <point x="149" y="1300"/>
      <point x="139" y="1337" type="curve"/>
      <point x="145" y="1353"/>
      <point x="162" y="1360"/>
      <point x="178" y="1360" type="curve" smooth="yes"/>
      <point x="272" y="1360"/>
      <point x="362" y="1341"/>
      <point x="456" y="1341" type="curve" smooth="yes"/>
      <point x="468" y="1341"/>
      <point x="481" y="1343"/>
      <point x="493" y="1343" type="curve" smooth="yes"/>
      <point x="511" y="1343"/>
      <point x="530" y="1340"/>
      <point x="530" y="1317" type="curve" smooth="yes"/>
      <point x="530" y="1297"/>
      <point x="503" y="1284"/>
      <point x="485" y="1284" type="curve" smooth="yes"/>
      <point x="448" y="1284"/>
      <point x="411" y="1298"/>
      <point x="374" y="1298" type="curve"/>
      <point x="364" y="1286" type="line"/>
      <point x="368" y="1278" type="line"/>
      <point x="364" y="1270"/>
      <point x="364" y="1261"/>
      <point x="364" y="1253" type="curve" smooth="yes"/>
      <point x="364" y="1090"/>
      <point x="376" y="927"/>
      <point x="389" y="764" type="curve"/>
      <point x="446" y="770"/>
      <point x="500" y="774"/>
      <point x="530" y="774" type="curve" smooth="yes"/>
      <point x="548" y="774"/>
      <point x="575" y="759"/>
      <point x="575" y="739" type="curve" smooth="yes"/>
      <point x="575" y="721"/>
      <point x="487" y="704"/>
      <point x="395" y="693" type="curve"/>
      <point x="413" y="479"/>
      <point x="432" y="265"/>
      <point x="432" y="51" type="curve" smooth="yes"/>
      <point x="432" y="31"/>
      <point x="413" y="12"/>
      <point x="393" y="12" type="curve"/>
    </contour>
  </outline>
</glyph>
<glyph name="florin" format="1">
  <advance width="620"/>
  <unicode hex="0192"/>
  <outline>
    <contour>
      <point x="460" y="1569" type="curve" smooth="yes"/>
      <point x="313" y="1539"/>
      <point x="295" y="1461"/>
      <point x="295" y="1285" type="curve" smooth="yes"/>
      <point x="295" y="1233"/>
      <point x="288" y="1198"/>
      <point x="281" y="975" type="curve"/>
      <point x="258" y="975"/>
      <point x="214" y="987"/>
      <point x="191" y="987" type="curve" smooth="yes"/>
      <point x="171" y="987"/>
      <point x="142" y="991"/>
      <point x="142" y="966" type="curve" smooth="yes"/>
      <point x="142" y="917"/>
      <point x="279" y="946"/>
      <point x="279" y="928" type="curve" smooth="yes"/>
      <point x="279" y="838" type="line" smooth="yes"/>
      <point x="279" y="745"/>
      <point x="252" y="173"/>
      <point x="250" y="131" type="curve" smooth="yes"/>
      <point x="239" y="-72"/>
      <point x="233" y="-109"/>
      <point x="83" y="-131" type="curve" smooth="yes"/>
      <point x="58" y="-134"/>
      <point x="4" y="-140"/>
      <point x="4" y="-166" type="curve" smooth="yes"/>
      <point x="4" y="-185"/>
      <point x="30" y="-190"/>
      <point x="56" y="-190" type="curve" smooth="yes"/>
      <point x="84" y="-190"/>
      <point x="116" y="-184"/>
      <point x="135" y="-180" type="curve" smooth="yes"/>
      <point x="270" y="-150"/>
      <point x="298" y="-59"/>
      <point x="298" y="117" type="curve" smooth="yes"/>
      <point x="298" y="159"/>
      <point x="316" y="460"/>
      <point x="332" y="855" type="curve" smooth="yes"/>
      <point x="335" y="928" type="line"/>
      <point x="358" y="928"/>
      <point x="403" y="916"/>
      <point x="426" y="916" type="curve" smooth="yes"/>
      <point x="446" y="916"/>
      <point x="475" y="912"/>
      <point x="475" y="937" type="curve" smooth="yes"/>
      <point x="475" y="971"/>
      <point x="410" y="976"/>
      <point x="369" y="976" type="curve" smooth="yes"/>
      <point x="351" y="976"/>
      <point x="338" y="975"/>
      <point x="338" y="975" type="curve"/>
      <point x="338" y="1047" type="line" smooth="yes"/>
      <point x="338" y="1140"/>
      <point x="343" y="1229"/>
      <point x="343" y="1271" type="curve" smooth="yes"/>
      <point x="343" y="1432"/>
      <point x="364" y="1500"/>
      <point x="514" y="1522" type="curve" smooth="yes"/>
      <point x="537" y="1525"/>
      <point x="588" y="1532"/>
      <point x="588" y="1563" type="curve" smooth="yes"/>
      <point x="588" y="1577"/>
      <point x="580" y="1580"/>
      <point x="567" y="1580" type="curve" smooth="yes"/>
      <point x="559" y="1580"/>
      <point x="550" y="1579"/>
      <point x="539" y="1579" type="curve" smooth="yes"/>
      <point x="511" y="1579"/>
      <point x="479" y="1573"/>
    </contour>
  </outline>
</glyph>
<glyph name="ogonek" format="1">
  <advance width="620"/>
  <unicode hex="02DB"/>
  <outline>
    <contour>
      <point x="368" y="22" type="curve"/>
      <point x="427" y="14" type="line"/>
      <point x="428" y="15"/>
      <point x="429" y="15"/>
      <point x="429" y="15" type="curve"/>
      <point x="430" y="14" type="line"/>
      <point x="430" y="5"/>
      <point x="319" y="-116"/>
      <point x="319" y="-220" type="curve" smooth="yes"/>
      <point x="319" y="-234"/>
      <point x="317" y="-253"/>
      <point x="315" y="-267" type="curve" smooth="yes"/>
      <point x="315" y="-279"/>
      <point x="313" y="-294"/>
      <point x="313" y="-310" type="curve" smooth="yes"/>
      <point x="313" y="-343"/>
      <point x="347" y="-394"/>
      <point x="382" y="-394" type="curve" smooth="yes"/>
      <point x="407" y="-394"/>
      <point x="423" y="-373"/>
      <point x="448" y="-373" type="curve" smooth="yes"/>
      <point x="464" y="-373"/>
      <point x="470" y="-380"/>
      <point x="470" y="-394" type="curve" smooth="yes"/>
      <point x="470" y="-433"/>
      <point x="413" y="-449"/>
      <point x="382" y="-449" type="curve" smooth="yes"/>
      <point x="292" y="-449"/>
      <point x="227" y="-342"/>
      <point x="227" y="-287" type="curve" smooth="yes"/>
      <point x="227" y="-113"/>
      <point x="368" y="22"/>
    </contour>
  </outline>
</glyph>
<glyph name="tilde" format="1">
  <advance width="800"/>
  <unicode hex="02DC"/>
  <outline>
    <contour>
      <point x="412" y="805" type="move" name="_top"/>
    </contour>
    <contour>
      <point x="179" y="1055" type="curve" smooth="yes"/>
      <point x="179" y="1147"/>
      <point x="238" y="1197"/>
      <point x="298" y="1197" type="curve" smooth="yes"/>
      <point x="329" y="1197"/>
      <point x="361" y="1183"/>
      <point x="385" y="1155" type="curve"/>
      <point x="404" y="1116"/>
      <point x="460" y="1076"/>
      <point x="502" y="1076" type="curve" smooth="yes"/>
      <point x="532" y="1076"/>
      <point x="555" y="1096"/>
      <point x="555" y="1149" type="curve" smooth="yes"/>
      <point x="555" y="1163"/>
      <point x="545" y="1174"/>
      <point x="543" y="1188" type="curve"/>
      <point x="547" y="1196"/>
      <point x="556" y="1200"/>
      <point x="564" y="1200" type="curve" smooth="yes"/>
      <point x="599" y="1200"/>
      <point x="611" y="1159"/>
      <point x="611" y="1130" type="curve" smooth="yes"/>
      <point x="611" y="1073"/>
      <point x="559" y="1022"/>
      <point x="502" y="1022" type="curve" smooth="yes"/>
      <point x="422" y="1022"/>
      <point x="367" y="1088"/>
      <point x="320" y="1143" type="curve"/>
      <point x="306" y="1149" type="line"/>
      <point x="267" y="1149"/>
      <point x="230" y="1125"/>
      <point x="230" y="1094" type="curve" smooth="yes"/>
      <point x="230" y="1080"/>
      <point x="236" y="1065"/>
      <point x="240" y="1051" type="curve"/>
      <point x="218" y="1020" type="line"/>
      <point x="202" y="1020"/>
      <point x="179" y="1037"/>
    </contour>
  </outline>
</glyph>
<glyph name="uni0307" format="1">
  <advance width="520"/>
  <unicode hex="0307"/>
  <outline>
    <contour>
      <point x="252" y="805" type="move" name="_top"/>
    </contour>
    <contour>
      <point x="203" y="1202" type="curve" smooth="yes"/>
      <point x="203" y="1229"/>
      <point x="229" y="1257"/>
      <point x="256" y="1257" type="curve" smooth="yes"/>
      <point x="281" y="1257"/>
      <point x="305" y="1227"/>
      <point x="305" y="1204" type="curve" smooth="yes"/>
      <point x="305" y="1167"/>
      <point x="281" y="1153"/>
      <point x="248" y="1153" type="curve" smooth="yes"/>
      <point x="223" y="1153"/>
      <point x="203" y="1179"/>
    </contour>
  </outline>
</glyph>
<glyph name="uni0326" format="1">
  <advance width="600"/>
  <unicode hex="0326"/>
  <outline>
    <contour>
      <point x="227" y="-424" type="line"/>
      <point x="231" y="-406" type="line"/>
      <point x="272" y="-367"/>
      <point x="338" y="-319"/>
      <point x="338" y="-256" type="curve"/>
      <point x="307" y="-238"/>
      <point x="278" y="-203"/>
      <point x="278" y="-166" type="curve" smooth="yes"/>
      <point x="278" y="-127"/>
      <point x="321" y="-102"/>
      <point x="356" y="-102" type="curve" smooth="yes"/>
      <point x="395" y="-102"/>
      <point x="412" y="-129"/>
      <point x="424" y="-162" type="curve"/>
      <point x="420" y="-168" type="line"/>
      <point x="424" y="-176"/>
      <point x="424" y="-185"/>
      <point x="424" y="-193" type="curve" smooth="yes"/>
      <point x="424" y="-259"/>
      <point x="334" y="-438"/>
      <point x="260" y="-440" type="curve"/>
    </contour>
  </outline>
</glyph>
<glyph name="uni0358" format="1">
  <advance width="600"/>
  <unicode hex="0358"/>
  <outline>
    <contour>
      <point x="252" y="805" type="move" name="_top"/>
    </contour>
    <contour>
      <point x="203" y="1202" type="curve" smooth="yes"/>
      <point x="203" y="1229"/>
      <point x="229" y="1257"/>
      <point x="256" y="1257" type="curve" smooth="yes"/>
      <point x="281" y="1257"/>
      <point x="305" y="1227"/>
      <point x="305" y="1204" type="curve" smooth="yes"/>
      <point x="305" y="1167"/>
      <point x="281" y="1153"/>
      <point x="248" y="1153" type="curve" smooth="yes"/>
      <point x="223" y="1153"/>
      <point x="203" y="1179"/>
    </contour>
  </outline>
</glyph>
<glyph name="uni03BC" format="1">
  <advance width="800"/>
  <unicode hex="03BC"/>
  <outline>
    <contour>
      <point x="406" y="1356" type="move" name="top"/>
    </contour>
    <contour>
      <point x="620" y="1305" type="curve" smooth="yes"/>
      <point x="620" y="1379"/>
      <point x="618" y="1389"/>
      <point x="585" y="1389" type="curve" smooth="yes"/>
      <point x="569" y="1389"/>
      <point x="550" y="1386"/>
      <point x="550" y="1366" type="curve" smooth="yes"/>
      <point x="550" y="1354"/>
      <point x="554" y="1341"/>
      <point x="554" y="1329" type="curve" smooth="yes"/>
      <point x="554" y="1053"/>
      <point x="548" y="772"/>
      <point x="540" y="496" type="curve"/>
      <point x="530" y="340"/>
      <point x="521" y="25"/>
      <point x="417" y="25" type="curve" smooth="yes"/>
      <point x="282" y="25"/>
      <point x="263" y="158"/>
      <point x="263" y="258" type="curve" smooth="yes"/>
      <point x="263" y="287" type="line"/>
      <point x="260" y="422"/>
      <point x="241" y="557"/>
      <point x="241" y="692" type="curve"/>
      <point x="235" y="1235" type="line" smooth="yes"/>
      <point x="235" y="1270"/>
      <point x="235" y="1342"/>
      <point x="188" y="1348" type="curve"/>
      <point x="175" y="1319" type="line"/>
      <point x="195" y="1158"/>
      <point x="184" y="613"/>
      <point x="210" y="286" type="curve"/>
      <point x="211" y="164"/>
      <point x="217" y="40"/>
      <point x="217" y="-82" type="curve" smooth="yes"/>
      <point x="217" y="-175"/>
      <point x="216" y="-242"/>
      <point x="216" y="-289" type="curve" smooth="yes"/>
      <point x="216" y="-373"/>
      <point x="219" y="-393"/>
      <point x="235" y="-393" type="curve" smooth="yes"/>
      <point x="262" y="-393"/>
      <point x="268" y="-381"/>
      <point x="268" y="-356" type="curve" smooth="yes"/>
      <point x="268" y="-227"/>
      <point x="263" y="-94"/>
      <point x="263" y="36" type="curve"/>
      <point x="293" y="3"/>
      <point x="347" y="-30"/>
      <point x="392" y="-31" type="curve" smooth="yes"/>
      <point x="640" y="-31"/>
      <point x="578" y="592"/>
      <point x="601" y="879" type="curve" smooth="yes"/>
      <point x="601" y="893"/>
      <point x="599" y="906"/>
      <point x="599" y="920" type="curve" smooth="yes"/>
      <point x="599" y="973"/>
      <point x="609" y="1030"/>
      <point x="609" y="1083" type="curve" smooth="yes"/>
      <point x="609" y="1087"/>
      <point x="609" y="1092"/>
      <point x="607" y="1096" type="curve" smooth="yes"/>
      <point x="617" y="1135"/>
      <point x="620" y="1239"/>
    </contour>
  </outline>
</glyph>
<glyph name="pi" format="1">
  <advance width="731"/>
  <unicode hex="03C0"/>
  <outline>
    <contour>
      <point x="644" y="-33" type="curve" smooth="yes"/>
      <point x="657" y="-33"/>
      <point x="667" y="-24"/>
      <point x="667" y="-13" type="curve" smooth="yes"/>
      <point x="667" y="-2"/>
      <point x="661" y="11"/>
      <point x="656" y="21" type="curve" smooth="yes"/>
      <point x="620" y="86"/>
      <point x="586" y="162"/>
      <point x="586" y="236" type="curve" smooth="yes"/>
      <point x="578" y="1294" type="line"/>
      <point x="601" y="1292"/>
      <point x="624" y="1289"/>
      <point x="646" y="1289" type="curve" smooth="yes"/>
      <point x="664" y="1289"/>
      <point x="691" y="1296"/>
      <point x="691" y="1316" type="curve" smooth="yes"/>
      <point x="691" y="1339"/>
      <point x="672" y="1342"/>
      <point x="654" y="1342" type="curve" smooth="yes"/>
      <point x="546" y="1340" type="line"/>
      <point x="220" y="1348" type="line"/>
      <point x="205" y="1348" type="line" smooth="yes"/>
      <point x="131" y="1348"/>
      <point x="88" y="1344"/>
      <point x="28" y="1306" type="curve" smooth="yes"/>
      <point x="20" y="1301"/>
      <point x="12" y="1291"/>
      <point x="12" y="1281" type="curve" smooth="yes"/>
      <point x="12" y="1273"/>
      <point x="22" y="1257"/>
      <point x="38" y="1257" type="curve" smooth="yes"/>
      <point x="63" y="1257"/>
      <point x="105" y="1291"/>
      <point x="153" y="1291" type="curve" smooth="yes"/>
      <point x="181" y="1291" type="line"/>
      <point x="188" y="598" type="line" smooth="yes"/>
      <point x="189" y="492"/>
      <point x="201" y="51"/>
      <point x="201" y="18" type="curve" smooth="yes"/>
      <point x="201" y="0"/>
      <point x="215" y="-8"/>
      <point x="232" y="-8" type="curve" smooth="yes"/>
      <point x="252" y="-8"/>
      <point x="254" y="7"/>
      <point x="254" y="23" type="curve" smooth="yes"/>
      <point x="254" y="62" type="line" smooth="yes"/>
      <point x="254" y="322"/>
      <point x="239" y="983"/>
      <point x="239" y="1245" type="curve" smooth="yes"/>
      <point x="239" y="1294" type="line"/>
      <point x="384" y="1293" type="line" smooth="yes"/>
      <point x="409" y="1293"/>
      <point x="484" y="1294"/>
      <point x="509" y="1294" type="curve" smooth="yes"/>
      <point x="522" y="1294" type="line"/>
      <point x="522" y="1061"/>
      <point x="520" y="851"/>
      <point x="520" y="673" type="curve" smooth="yes"/>
      <point x="520" y="383"/>
      <point x="526" y="179"/>
      <point x="549" y="98" type="curve" smooth="yes"/>
      <point x="562" y="51"/>
      <point x="603" y="-33"/>
    </contour>
  </outline>
</glyph>
<glyph name="emdash" format="1">
  <advance width="1060"/>
  <unicode hex="2014"/>
  <outline>
    <contour>
      <point x="983" y="727" type="curve"/>
      <point x="921" y="727" type="line"/>
      <point x="921" y="721"/>
      <point x="819" y="721"/>
      <point x="706" y="721" type="curve" smooth="yes"/>
      <point x="118" y="721" type="line" smooth="yes"/>
      <point x="98" y="721"/>
      <point x="75" y="733"/>
      <point x="75" y="756" type="curve" smooth="yes"/>
      <point x="75" y="762"/>
      <point x="358" y="762"/>
      <point x="645" y="762" type="curve" smooth="yes"/>
      <point x="937" y="762" type="line" smooth="yes"/>
      <point x="955" y="762"/>
      <point x="983" y="747"/>
    </contour>
  </outline>
</glyph>
<glyph name="quoteright" format="1">
  <advance width="390"/>
  <unicode hex="2019"/>
  <outline>
    <contour>
      <point x="99" y="1233" type="line"/>
      <point x="103" y="1251" type="line"/>
      <point x="144" y="1290"/>
      <point x="210" y="1338"/>
      <point x="210" y="1401" type="curve"/>
      <point x="179" y="1419"/>
      <point x="150" y="1454"/>
      <point x="150" y="1491" type="curve" smooth="yes"/>
      <point x="150" y="1530"/>
      <point x="193" y="1554"/>
      <point x="228" y="1554" type="curve" smooth="yes"/>
      <point x="267" y="1554"/>
      <point x="284" y="1528"/>
      <point x="296" y="1495" type="curve"/>
      <point x="292" y="1489" type="line"/>
      <point x="296" y="1481"/>
      <point x="296" y="1472"/>
      <point x="296" y="1464" type="curve" smooth="yes"/>
      <point x="296" y="1398"/>
      <point x="206" y="1219"/>
      <point x="132" y="1217" type="curve"/>
    </contour>
  </outline>
</glyph>
<glyph name="quotedblleft" format="1">
  <advance width="700"/>
  <unicode hex="201C"/>
  <outline>
    <contour>
      <point x="565" y="1538" type="line"/>
      <point x="561" y="1520" type="line"/>
      <point x="520" y="1481"/>
      <point x="454" y="1433"/>
      <point x="454" y="1370" type="curve"/>
      <point x="485" y="1352"/>
      <point x="514" y="1317"/>
      <point x="514" y="1280" type="curve" smooth="yes"/>
      <point x="514" y="1241"/>
      <point x="471" y="1217"/>
      <point x="436" y="1217" type="curve" smooth="yes"/>
      <point x="397" y="1217"/>
      <point x="380" y="1243"/>
      <point x="368" y="1276" type="curve"/>
      <point x="372" y="1282" type="line"/>
      <point x="368" y="1290"/>
      <point x="368" y="1299"/>
      <point x="368" y="1307" type="curve" smooth="yes"/>
      <point x="368" y="1373"/>
      <point x="458" y="1552"/>
      <point x="532" y="1554" type="curve"/>
    </contour>
    <contour>
      <point x="352" y="1538" type="line"/>
      <point x="348" y="1520" type="line"/>
      <point x="307" y="1481"/>
      <point x="241" y="1433"/>
      <point x="241" y="1370" type="curve"/>
      <point x="272" y="1352"/>
      <point x="301" y="1317"/>
      <point x="301" y="1280" type="curve" smooth="yes"/>
      <point x="301" y="1241"/>
      <point x="258" y="1217"/>
      <point x="223" y="1217" type="curve" smooth="yes"/>
      <point x="184" y="1217"/>
      <point x="167" y="1243"/>
      <point x="155" y="1276" type="curve"/>
      <point x="159" y="1282" type="line"/>
      <point x="155" y="1290"/>
      <point x="155" y="1299"/>
      <point x="155" y="1307" type="curve" smooth="yes"/>
      <point x="155" y="1373"/>
      <point x="245" y="1552"/>
      <point x="319" y="1554" type="curve"/>
    </contour>
  </outline>
</glyph>
<glyph name="quotedblright" format="1">
  <advance width="720"/>
  <unicode hex="201D"/>
  <outline>
    <contour>
      <point x="393" y="1233" type="line"/>
      <point x="397" y="1251" type="line"/>
      <point x="438" y="1290"/>
      <point x="504" y="1338"/>
      <point x="504" y="1401" type="curve"/>
      <point x="473" y="1419"/>
      <point x="444" y="1454"/>
      <point x="444" y="1491" type="curve" smooth="yes"/>
      <point x="444" y="1530"/>
      <point x="487" y="1554"/>
      <point x="522" y="1554" type="curve" smooth="yes"/>
      <point x="561" y="1554"/>
      <point x="578" y="1528"/>
      <point x="590" y="1495" type="curve"/>
      <point x="586" y="1489" type="line"/>
      <point x="590" y="1481"/>
      <point x="590" y="1472"/>
      <point x="590" y="1464" type="curve" smooth="yes"/>
      <point x="590" y="1398"/>
      <point x="500" y="1219"/>
      <point x="426" y="1217" type="curve"/>
    </contour>
    <contour>
      <point x="147" y="1233" type="line"/>
      <point x="151" y="1251" type="line"/>
      <point x="192" y="1290"/>
      <point x="258" y="1338"/>
      <point x="258" y="1401" type="curve"/>
      <point x="227" y="1419"/>
      <point x="198" y="1454"/>
      <point x="198" y="1491" type="curve" smooth="yes"/>
      <point x="198" y="1530"/>
      <point x="241" y="1554"/>
      <point x="276" y="1554" type="curve" smooth="yes"/>
      <point x="315" y="1554"/>
      <point x="332" y="1528"/>
      <point x="344" y="1495" type="curve"/>
      <point x="340" y="1489" type="line"/>
      <point x="344" y="1481"/>
      <point x="344" y="1472"/>
      <point x="344" y="1464" type="curve" smooth="yes"/>
      <point x="344" y="1398"/>
      <point x="254" y="1219"/>
      <point x="180" y="1217" type="curve"/>
    </contour>
  </outline>
</glyph>
<glyph name="quotedblbase" format="1">
  <advance width="720"/>
  <unicode hex="201E"/>
  <outline>
    <contour>
      <point x="353" y="-162" type="line"/>
      <point x="357" y="-143" type="line"/>
      <point x="398" y="-104"/>
      <point x="463" y="-57"/>
      <point x="463" y="6" type="curve"/>
      <point x="432" y="24"/>
      <point x="404" y="59"/>
      <point x="404" y="96" type="curve" smooth="yes"/>
      <point x="404" y="135"/>
      <point x="447" y="160"/>
      <point x="482" y="160" type="curve" smooth="yes"/>
      <point x="523" y="160"/>
      <point x="549" y="121"/>
      <point x="549" y="82" type="curve" smooth="yes"/>
      <point x="549" y="10"/>
      <point x="467" y="-176"/>
      <point x="385" y="-178" type="curve"/>
    </contour>
    <contour>
      <point x="148" y="-174" type="curve"/>
      <point x="123" y="-158" type="line"/>
      <point x="150" y="-97"/>
      <point x="238" y="-72"/>
      <point x="238" y="6" type="curve"/>
      <point x="207" y="24"/>
      <point x="179" y="59"/>
      <point x="179" y="96" type="curve" smooth="yes"/>
      <point x="179" y="135"/>
      <point x="221" y="160"/>
      <point x="256" y="160" type="curve" smooth="yes"/>
      <point x="297" y="160"/>
      <point x="324" y="121"/>
      <point x="324" y="82" type="curve" smooth="yes"/>
      <point x="324" y="4"/>
      <point x="238" y="-174"/>
    </contour>
  </outline>
</glyph>
<glyph name="dagger" format="1">
  <advance width="700"/>
  <unicode hex="2020"/>
  <outline>
    <contour>
      <point x="556" y="1080" type="curve" smooth="yes"/>
      <point x="574" y="1080"/>
      <point x="601" y="1087"/>
      <point x="601" y="1107" type="curve" smooth="yes"/>
      <point x="601" y="1130"/>
      <point x="582" y="1133"/>
      <point x="564" y="1133" type="curve" smooth="yes"/>
      <point x="477" y="1131" type="line" smooth="yes"/>
      <point x="447" y="1131"/>
      <point x="409" y="1133"/>
      <point x="369" y="1136" type="curve"/>
      <point x="369" y="1254" type="line"/>
      <point x="363" y="1270"/>
      <point x="361" y="1287"/>
      <point x="361" y="1303" type="curve" smooth="yes"/>
      <point x="361" y="1328"/>
      <point x="365" y="1350"/>
      <point x="365" y="1375" type="curve" smooth="yes"/>
      <point x="365" y="1424"/>
      <point x="361" y="1475"/>
      <point x="361" y="1524" type="curve"/>
      <point x="338" y="1541" type="line"/>
      <point x="318" y="1541"/>
      <point x="286" y="1522"/>
      <point x="286" y="1502" type="curve" smooth="yes"/>
      <point x="286" y="1362"/>
      <point x="288" y="1248"/>
      <point x="290" y="1141" type="curve"/>
      <point x="227" y="1146"/>
      <point x="166" y="1150"/>
      <point x="121" y="1150" type="curve" smooth="yes"/>
      <point x="105" y="1150"/>
      <point x="88" y="1143"/>
      <point x="82" y="1127" type="curve"/>
      <point x="82" y="1093"/>
      <point x="129" y="1088"/>
      <point x="291" y="1088" type="curve"/>
      <point x="294" y="911"/>
      <point x="299" y="747"/>
      <point x="299" y="510" type="curve"/>
      <point x="307" y="279"/>
      <point x="309" y="269"/>
      <point x="309" y="250" type="curve" smooth="yes"/>
      <point x="309" y="225"/>
      <point x="305" y="203"/>
      <point x="305" y="178" type="curve" smooth="yes"/>
      <point x="305" y="129"/>
      <point x="309" y="78"/>
      <point x="309" y="29" type="curve"/>
      <point x="332" y="12" type="line"/>
      <point x="352" y="12"/>
      <point x="384" y="31"/>
      <point x="384" y="51" type="curve" smooth="yes"/>
      <point x="384" y="191"/>
      <point x="379" y="385"/>
      <point x="379" y="465" type="curve" smooth="yes"/>
      <point x="376" y="642"/>
      <point x="371" y="806"/>
      <point x="371" y="1043" type="curve" smooth="yes"/>
      <point x="371" y="1084"/>
      <point x="371" y="1088"/>
      <point x="381" y="1088" type="curve" smooth="yes"/>
      <point x="418" y="1088"/>
      <point x="519" y="1080"/>
    </contour>
  </outline>
</glyph>
<glyph name="daggerdbl" format="1">
  <advance width="600"/>
  <unicode hex="2021"/>
  <outline>
    <contour>
      <point x="556" y="1080" type="curve" smooth="yes"/>
      <point x="574" y="1080"/>
      <point x="601" y="1087"/>
      <point x="601" y="1107" type="curve" smooth="yes"/>
      <point x="601" y="1130"/>
      <point x="582" y="1133"/>
      <point x="564" y="1133" type="curve" smooth="yes"/>
      <point x="477" y="1131" type="line" smooth="yes"/>
      <point x="447" y="1131"/>
      <point x="409" y="1133"/>
      <point x="369" y="1136" type="curve"/>
      <point x="369" y="1254" type="line"/>
      <point x="363" y="1270"/>
      <point x="361" y="1287"/>
      <point x="361" y="1303" type="curve" smooth="yes"/>
      <point x="361" y="1328"/>
      <point x="365" y="1350"/>
      <point x="365" y="1375" type="curve" smooth="yes"/>
      <point x="365" y="1424"/>
      <point x="361" y="1475"/>
      <point x="361" y="1524" type="curve"/>
      <point x="338" y="1541" type="line"/>
      <point x="318" y="1541"/>
      <point x="286" y="1522"/>
      <point x="286" y="1502" type="curve" smooth="yes"/>
      <point x="286" y="1362"/>
      <point x="288" y="1248"/>
      <point x="290" y="1141" type="curve"/>
      <point x="227" y="1146"/>
      <point x="166" y="1150"/>
      <point x="121" y="1150" type="curve" smooth="yes"/>
      <point x="105" y="1150"/>
      <point x="88" y="1143"/>
      <point x="82" y="1127" type="curve"/>
      <point x="82" y="1093"/>
      <point x="129" y="1088"/>
      <point x="291" y="1088" type="curve"/>
      <point x="294" y="911"/>
      <point x="299" y="747"/>
      <point x="299" y="510" type="curve" smooth="yes"/>
      <point x="299" y="469"/>
      <point x="299" y="465"/>
      <point x="289" y="465" type="curve" smooth="yes"/>
      <point x="252" y="465"/>
      <point x="151" y="473"/>
      <point x="114" y="473" type="curve" smooth="yes"/>
      <point x="96" y="473"/>
      <point x="69" y="466"/>
      <point x="69" y="446" type="curve" smooth="yes"/>
      <point x="69" y="423"/>
      <point x="88" y="420"/>
      <point x="106" y="420" type="curve" smooth="yes"/>
      <point x="193" y="422" type="line" smooth="yes"/>
      <point x="223" y="422"/>
      <point x="261" y="420"/>
      <point x="301" y="417" type="curve"/>
      <point x="301" y="299" type="line"/>
      <point x="307" y="283"/>
      <point x="309" y="266"/>
      <point x="309" y="250" type="curve" smooth="yes"/>
      <point x="309" y="225"/>
      <point x="305" y="203"/>
      <point x="305" y="178" type="curve" smooth="yes"/>
      <point x="305" y="129"/>
      <point x="309" y="78"/>
      <point x="309" y="29" type="curve"/>
      <point x="332" y="12" type="line"/>
      <point x="352" y="12"/>
      <point x="384" y="31"/>
      <point x="384" y="51" type="curve" smooth="yes"/>
      <point x="384" y="191"/>
      <point x="382" y="305"/>
      <point x="380" y="412" type="curve"/>
      <point x="443" y="407"/>
      <point x="504" y="403"/>
      <point x="549" y="403" type="curve" smooth="yes"/>
      <point x="565" y="403"/>
      <point x="582" y="410"/>
      <point x="588" y="426" type="curve"/>
      <point x="588" y="460"/>
      <point x="541" y="465"/>
      <point x="379" y="465" type="curve"/>
      <point x="376" y="642"/>
      <point x="371" y="806"/>
      <point x="371" y="1043" type="curve" smooth="yes"/>
      <point x="371" y="1084"/>
      <point x="371" y="1088"/>
      <point x="381" y="1088" type="curve" smooth="yes"/>
      <point x="418" y="1088"/>
      <point x="519" y="1080"/>
    </contour>
  </outline>
</glyph>
<glyph name="ellipsis" format="1">
  <advance width="1120"/>
  <unicode hex="2026"/>
  <outline>
    <contour>
      <point x="826" y="41" type="curve" smooth="yes"/>
      <point x="826" y="68"/>
      <point x="852" y="96"/>
      <point x="879" y="96" type="curve" smooth="yes"/>
      <point x="904" y="96"/>
      <point x="928" y="66"/>
      <point x="928" y="43" type="curve" smooth="yes"/>
      <point x="928" y="6"/>
      <point x="904" y="-8"/>
      <point x="871" y="-8" type="curve" smooth="yes"/>
      <point x="846" y="-8"/>
      <point x="826" y="18"/>
    </contour>
    <contour>
      <point x="498" y="41" type="curve" smooth="yes"/>
      <point x="498" y="68"/>
      <point x="525" y="96"/>
      <point x="552" y="96" type="curve" smooth="yes"/>
      <point x="577" y="96"/>
      <point x="601" y="66"/>
      <point x="601" y="43" type="curve" smooth="yes"/>
      <point x="601" y="6"/>
      <point x="576" y="-8"/>
      <point x="543" y="-8" type="curve" smooth="yes"/>
      <point x="518" y="-8"/>
      <point x="498" y="18"/>
    </contour>
    <contour>
      <point x="171" y="41" type="curve" smooth="yes"/>
      <point x="171" y="68"/>
      <point x="197" y="96"/>
      <point x="224" y="96" type="curve" smooth="yes"/>
      <point x="249" y="96"/>
      <point x="273" y="66"/>
      <point x="273" y="43" type="curve" smooth="yes"/>
      <point x="273" y="6"/>
      <point x="249" y="-8"/>
      <point x="216" y="-8" type="curve" smooth="yes"/>
      <point x="191" y="-8"/>
      <point x="171" y="18"/>
    </contour>
  </outline>
</glyph>
<glyph name="Omega" format="1">
  <advance width="840"/>
  <unicode hex="2126"/>
  <outline>
    <contour>
      <point x="386" y="1536" type="move" name="top"/>
    </contour>
    <contour>
      <point x="543" y="73" type="curve"/>
      <point x="614" y="220"/>
      <point x="664" y="491"/>
      <point x="664" y="682" type="curve" smooth="yes"/>
      <point x="664" y="688" type="line" smooth="yes"/>
      <point x="664" y="1005"/>
      <point x="663" y="1501"/>
      <point x="371" y="1501" type="curve" smooth="yes"/>
      <point x="192" y="1501"/>
      <point x="169" y="1202"/>
      <point x="169" y="955" type="curve" smooth="yes"/>
      <point x="169" y="872" type="line" smooth="yes"/>
      <point x="169" y="666"/>
      <point x="215" y="290"/>
      <point x="302" y="67" type="curve"/>
      <point x="203" y="69" type="line"/>
      <point x="125" y="69"/>
      <point x="75" y="65"/>
      <point x="75" y="48" type="curve" smooth="yes"/>
      <point x="75" y="25"/>
      <point x="100" y="13"/>
      <point x="118" y="13" type="curve" smooth="yes"/>
      <point x="158" y="13"/>
      <point x="260" y="11"/>
      <point x="329" y="11" type="curve" smooth="yes"/>
      <point x="362" y="11"/>
      <point x="379" y="19"/>
      <point x="379" y="34" type="curve" smooth="yes"/>
      <point x="379" y="37"/>
      <point x="378" y="41"/>
      <point x="376" y="45" type="curve" smooth="yes"/>
      <point x="284" y="239"/>
      <point x="230" y="654"/>
      <point x="230" y="761" type="curve" smooth="yes"/>
      <point x="230" y="861" type="line" smooth="yes"/>
      <point x="230" y="989"/>
      <point x="234" y="1448"/>
      <point x="381" y="1448" type="curve" smooth="yes"/>
      <point x="602" y="1448"/>
      <point x="604" y="904"/>
      <point x="604" y="732" type="curve" smooth="yes"/>
      <point x="604" y="723" type="line" smooth="yes"/>
      <point x="604" y="621"/>
      <point x="549" y="241"/>
      <point x="487" y="41" type="curve" smooth="yes"/>
      <point x="486" y="38"/>
      <point x="485" y="35"/>
      <point x="485" y="33" type="curve" smooth="yes"/>
      <point x="485" y="17"/>
      <point x="513" y="13"/>
      <point x="549" y="13" type="curve" smooth="yes"/>
      <point x="573" y="13"/>
      <point x="601" y="15"/>
      <point x="627" y="15" type="curve" smooth="yes"/>
      <point x="665" y="15"/>
      <point x="748" y="19"/>
      <point x="748" y="36" type="curve" smooth="yes"/>
      <point x="748" y="56"/>
      <point x="721" y="71"/>
      <point x="703" y="71" type="curve" smooth="yes"/>
      <point x="644" y="71"/>
      <point x="598" y="72"/>
    </contour>
  </outline>
</glyph>
<glyph name="estimated" format="1">
  <advance width="914"/>
  <unicode hex="212E"/>
  <outline>
    <contour>
      <point x="226" y="670" type="curve"/>
      <point x="510" y="670" type="line" smooth="yes"/>
      <point x="607" y="670"/>
      <point x="690" y="678"/>
      <point x="690" y="1027" type="curve" smooth="yes"/>
      <point x="690" y="1240"/>
      <point x="634" y="1333"/>
      <point x="446" y="1333" type="curve" smooth="yes"/>
      <point x="279" y="1333"/>
      <point x="229" y="960"/>
      <point x="229" y="865" type="curve" smooth="yes"/>
      <point x="229" y="857" type="line" smooth="yes"/>
      <point x="229" y="795"/>
      <point x="228" y="732"/>
    </contour>
    <contour>
      <point x="760" y="991" type="curve" smooth="yes"/>
      <point x="760" y="933" type="line" smooth="yes"/>
      <point x="760" y="735"/>
      <point x="679" y="609"/>
      <point x="503" y="609" type="curve" smooth="yes"/>
      <point x="224" y="609" type="line"/>
      <point x="222" y="554"/>
      <point x="221" y="499"/>
      <point x="221" y="444" type="curve" smooth="yes"/>
      <point x="221" y="213"/>
      <point x="303" y="47"/>
      <point x="465" y="47" type="curve" smooth="yes"/>
      <point x="530" y="47"/>
      <point x="608" y="73"/>
      <point x="699" y="133" type="curve"/>
      <point x="713" y="133"/>
      <point x="742" y="121"/>
      <point x="730" y="111" type="curve" smooth="yes"/>
      <point x="623" y="25"/>
      <point x="528" y="-12"/>
      <point x="449" y="-12" type="curve" smooth="yes"/>
      <point x="257" y="-12"/>
      <point x="151" y="204"/>
      <point x="151" y="476" type="curve" smooth="yes"/>
      <point x="151" y="710" type="line" smooth="yes"/>
      <point x="151" y="819" type="line" smooth="yes"/>
      <point x="151" y="1066"/>
      <point x="165" y="1318"/>
      <point x="387" y="1394" type="curve"/>
      <point x="418" y="1399"/>
      <point x="447" y="1401"/>
      <point x="474" y="1401" type="curve" smooth="yes"/>
      <point x="685" y="1401"/>
      <point x="760" y="1259"/>
    </contour>
  </outline>
</glyph>
<glyph name="partialdiff" format="1">
  <advance width="680"/>
  <unicode hex="2202"/>
  <outline>
    <contour>
      <point x="437" y="727" type="curve" smooth="yes"/>
      <point x="437" y="844" type="line"/>
      <point x="437" y="844"/>
      <point x="416" y="860"/>
      <point x="375" y="868" type="curve"/>
      <point x="236" y="868"/>
      <point x="228" y="291"/>
      <point x="228" y="174" type="curve" smooth="yes"/>
      <point x="228" y="123"/>
      <point x="230" y="12"/>
      <point x="304" y="12" type="curve" smooth="yes"/>
      <point x="400" y="12"/>
      <point x="396" y="100"/>
      <point x="404" y="166" type="curve" smooth="yes"/>
      <point x="427" y="352"/>
      <point x="437" y="539"/>
    </contour>
    <contour>
      <point x="490" y="815" type="curve" smooth="yes"/>
      <point x="490" y="807" type="line" smooth="yes"/>
      <point x="490" y="660"/>
      <point x="486" y="514"/>
      <point x="480" y="369" type="curve"/>
      <point x="464" y="258"/>
      <point x="488" y="-29"/>
      <point x="320" y="-29" type="curve" smooth="yes"/>
      <point x="195" y="-29"/>
      <point x="179" y="70"/>
      <point x="179" y="170" type="curve" smooth="yes"/>
      <point x="179" y="334"/>
      <point x="181" y="913"/>
      <point x="392" y="913" type="curve" smooth="yes"/>
      <point x="406" y="913"/>
      <point x="425" y="905"/>
      <point x="437" y="897" type="curve"/>
      <point x="437" y="1154"/>
      <point x="366" y="1429"/>
      <point x="279" y="1497" type="curve" smooth="yes"/>
      <point x="260" y="1512"/>
      <point x="209" y="1521"/>
      <point x="209" y="1550" type="curve" smooth="yes"/>
      <point x="209" y="1560"/>
      <point x="225" y="1569"/>
      <point x="233" y="1569" type="curve" smooth="yes"/>
      <point x="401" y="1569"/>
      <point x="490" y="1163"/>
    </contour>
  </outline>
</glyph>
<glyph name="emptyset" format="1">
  <advance width="1197"/>
  <unicode hex="2205"/>
  <outline>
    <contour>
      <point x="920" y="569" type="line" smooth="yes"/>
      <point x="920" y="364"/>
      <point x="815" y="162"/>
      <point x="571" y="162" type="curve" smooth="yes"/>
      <point x="349" y="162"/>
      <point x="283" y="315"/>
      <point x="259" y="458" type="curve"/>
      <point x="900" y="940" type="line"/>
      <point x="916" y="864"/>
      <point x="920" y="797"/>
      <point x="920" y="765" type="curve" smooth="yes"/>
    </contour>
    <contour>
      <point x="886" y="996" type="curve"/>
      <point x="250" y="524" type="line"/>
      <point x="246" y="574" type="line" smooth="yes"/>
      <point x="240" y="647"/>
      <point x="230" y="722"/>
      <point x="230" y="794" type="curve" smooth="yes"/>
      <point x="230" y="946"/>
      <point x="268" y="1304"/>
      <point x="562" y="1304" type="curve" smooth="yes"/>
      <point x="754" y="1304"/>
      <point x="845" y="1144"/>
    </contour>
    <contour>
      <point x="9" y="325" type="curve" smooth="yes"/>
      <point x="9" y="310"/>
      <point x="20" y="305"/>
      <point x="32" y="305" type="curve" smooth="yes"/>
      <point x="63" y="305"/>
      <point x="96" y="340"/>
      <point x="126" y="361" type="curve" smooth="yes"/>
      <point x="200" y="414" type="line"/>
      <point x="242" y="258"/>
      <point x="340" y="98"/>
      <point x="592" y="98" type="curve" smooth="yes"/>
      <point x="926" y="98"/>
      <point x="990" y="448"/>
      <point x="990" y="674" type="curve" smooth="yes"/>
      <point x="990" y="755"/>
      <point x="983" y="869"/>
      <point x="955" y="981" type="curve"/>
      <point x="994" y="1011"/>
      <point x="1104" y="1093"/>
      <point x="1113" y="1104" type="curve" smooth="yes"/>
      <point x="1117" y="1109"/>
      <point x="1119" y="1115"/>
      <point x="1119" y="1121" type="curve" smooth="yes"/>
      <point x="1119" y="1128"/>
      <point x="1113" y="1145"/>
      <point x="1102" y="1145" type="curve" smooth="yes"/>
      <point x="1083" y="1145"/>
      <point x="1036" y="1106"/>
      <point x="1027" y="1100" type="curve" smooth="yes"/>
      <point x="939" y="1035" type="line"/>
      <point x="884" y="1207"/>
      <point x="769" y="1360"/>
      <point x="539" y="1360" type="curve" smooth="yes"/>
      <point x="203" y="1360"/>
      <point x="156" y="963"/>
      <point x="156" y="786" type="curve" smooth="yes"/>
      <point x="156" y="727"/>
      <point x="162" y="670"/>
      <point x="168" y="611" type="curve" smooth="yes"/>
      <point x="172" y="573"/>
      <point x="177" y="526"/>
      <point x="186" y="476" type="curve"/>
      <point x="19" y="354" type="line"/>
      <point x="13" y="346"/>
      <point x="9" y="336"/>
    </contour>
  </outline>
</glyph>
<glyph name="minus" format="1">
  <advance width="780"/>
  <unicode hex="2212"/>
  <outline>
    <contour>
      <point x="636" y="739" type="curve" smooth="yes"/>
      <point x="636" y="729"/>
      <point x="305" y="721"/>
      <point x="182" y="721" type="curve" smooth="yes"/>
      <point x="164" y="721"/>
      <point x="139" y="733"/>
      <point x="139" y="756" type="curve" smooth="yes"/>
      <point x="139" y="766"/>
      <point x="487" y="774"/>
      <point x="591" y="774" type="curve" smooth="yes"/>
      <point x="609" y="774"/>
      <point x="636" y="759"/>
    </contour>
  </outline>
</glyph>
<glyph name="uni2219" format="1">
  <advance width="520"/>
  <unicode hex="2219"/>
  <outline>
    <contour>
      <point x="227" y="1575" type="curve" smooth="yes"/>
      <point x="227" y="1600"/>
      <point x="237" y="1632"/>
      <point x="266" y="1632" type="curve" smooth="yes"/>
      <point x="295" y="1632"/>
      <point x="317" y="1612"/>
      <point x="317" y="1583" type="curve" smooth="yes"/>
      <point x="317" y="1556"/>
      <point x="305" y="1538"/>
      <point x="276" y="1538" type="curve" smooth="yes"/>
      <point x="251" y="1538"/>
      <point x="227" y="1546"/>
    </contour>
  </outline>
</glyph>
